<svg width="16" height="16" viewBox="0 0 16 16" fill="none" xmlns="http://www.w3.org/2000/svg">
<circle cx="8.00073" cy="8.00073" r="7.25" fill="white" stroke="#333333" stroke-width="1.5"/>
<path d="M8.06007 5.00236C8.36667 5.00236 8.62381 5.15723 8.7326 5.58314L9.28607 7.62482H10.3245L10.8886 5.41858C10.9678 5.07012 11.2842 4.96364 11.5711 5.02172C11.8875 5.08948 12.0755 5.33147 11.9864 5.68961L11.4223 7.62482H12.2135C12.4113 7.62482 12.5004 7.77969 12.5007 8.23536C12.5007 8.41927 12.4117 8.59278 12.2139 8.59278H11.2546L10.5326 11.42C10.4238 11.8459 10.137 12.0007 9.86007 12.0007C9.58315 12.0007 9.29634 11.8459 9.18755 11.4006L8.51502 8.59278H7.56557L6.8337 11.42C6.72491 11.8459 6.42821 12.0007 6.15128 12.0007C5.87436 12.0007 5.57766 11.8459 5.47876 11.4103L4.75678 8.59278H3.78755C3.58974 8.59278 3.50073 8.41927 3.50073 8.23536C3.50036 7.77969 3.58937 7.62482 3.78717 7.62482H4.58827L4.0348 5.68961C3.94579 5.33147 4.1337 5.08948 4.46007 5.02172C4.75678 4.95396 5.06337 5.04108 5.15238 5.41858L5.71574 7.62482H6.79377L7.38755 5.58314C7.49634 5.15723 7.7337 5.00236 8.06007 5.00236ZM5.87436 8.59278L6.22051 10.1035L6.61612 8.59278H5.87436ZM9.45458 8.59278L9.82051 10.0938L10.1667 8.59278H9.45458ZM8.06007 6.66726L7.74322 7.62482H8.34651L8.06007 6.66726Z" fill="#333333"/>
</svg>
