<svg width="16" height="16" viewBox="0 0 16 16" fill="none" xmlns="http://www.w3.org/2000/svg">
<path d="M8.88343 4.25845L11.2202 1.11231C11.3221 0.975109 11.5189 0.961442 11.6379 1.0833L14.9186 4.44022C15.0447 4.56926 15.0211 4.78473 14.8701 4.88196L11.5854 6.99822C11.4827 7.0644 11.4346 7.19102 11.461 7.31224C11.8609 9.14421 11.1575 10.394 10.6196 10.9319C10.5216 11.0298 10.3678 11.0187 10.2697 10.9208L5.08314 5.74636C4.97225 5.63573 4.97081 5.45257 5.0877 5.34862C6.29616 4.27391 7.81413 4.22823 8.59383 4.36917C8.70331 4.38896 8.81615 4.34903 8.88343 4.25845Z" fill="#111111"/>
<path d="M8 9.7027L6.2973 8L1 15L8 9.7027Z" fill="#111111"/>
</svg>
