<svg width="24" height="24" viewBox="0 0 24 24" fill="none" xmlns="http://www.w3.org/2000/svg">
<path d="M12 15C13.6569 15 15 13.6569 15 12C15 10.3431 13.6569 9 12 9C10.3431 9 9 10.3431 9 12C9 13.6569 10.3431 15 12 15Z" stroke="white" stroke-width="1.5" stroke-miterlimit="10" stroke-linecap="round" stroke-linejoin="round"/>
<path d="M2.25 12.874V11.126C2.25 10.093 3.07834 9.23882 4.10157 9.23882C5.86544 9.23882 6.58658 7.96749 5.69978 6.40812C5.19303 5.51421 5.49513 4.35213 6.38193 3.83565L8.06784 2.85235C8.83771 2.38553 9.83171 2.66364 10.2897 3.44829L10.3969 3.637C11.274 5.19637 12.7163 5.19637 13.6031 3.637L13.7103 3.44829C14.1683 2.66364 15.1623 2.38553 15.9322 2.85235L17.6181 3.83565C18.5049 4.35213 18.807 5.51421 18.3002 6.40812C17.4134 7.96749 18.1346 9.23882 19.8984 9.23882C20.9119 9.23882 21.75 10.0831 21.75 11.126V12.874C21.75 13.907 20.9217 14.7612 19.8984 14.7612C18.1346 14.7612 17.4134 16.0325 18.3002 17.5919C18.807 18.4957 18.5049 19.6479 17.6181 20.1644L15.9322 21.1476C15.1623 21.6145 14.1683 21.3364 13.7103 20.5517L13.6031 20.363C12.726 18.8036 11.2837 18.8036 10.3969 20.363L10.2897 20.5517C9.83171 21.3364 8.83771 21.6145 8.06784 21.1476L6.38193 20.1644C5.49513 19.6479 5.19303 18.4858 5.69978 17.5919C6.58658 16.0325 5.86544 14.7612 4.10157 14.7612C3.07834 14.7612 2.25 13.907 2.25 12.874Z" stroke="white" stroke-width="1.5" stroke-miterlimit="10" stroke-linecap="round" stroke-linejoin="round"/>
</svg>
