<svg width="48" height="48" viewBox="0 0 48 48" fill="none" xmlns="http://www.w3.org/2000/svg">
<path d="M45.4597 21.2093V25.5167C45.4597 26.6667 44.5397 27.6075 43.3688 27.6493H39.2706C37.0124 27.6493 34.9424 25.9975 34.7542 23.7393C34.6288 22.4221 35.1306 21.1884 36.0087 20.3312C36.7824 19.5366 37.8487 19.0767 39.0197 19.0767H43.3688C44.5397 19.1185 45.4597 20.0593 45.4597 21.2093Z" stroke="#333333" stroke-width="2" stroke-linecap="round" stroke-linejoin="round"/>
<path d="M3.64191 21.0365V16.0546C3.64191 10.3674 7.071 6.39464 12.4028 5.72555C12.9465 5.64191 13.511 5.6001 14.0965 5.6001H32.9146C33.4583 5.6001 33.981 5.62098 34.4828 5.70462C39.8774 6.33189 43.3692 10.3256 43.3692 16.0546V19.0865H39.0201C37.8492 19.0865 36.7828 19.5464 36.0091 20.341C35.131 21.1983 34.6292 22.4319 34.7546 23.7492C34.9428 26.0074 37.0128 27.6592 39.271 27.6592H43.3692V30.691C43.3692 36.9637 39.1874 41.1456 32.9146 41.1456H25.2874" stroke="#333333" stroke-width="2" stroke-linecap="round" stroke-linejoin="round"/>
<path d="M20.3692 33.6182C20.3692 34.3208 20.2814 35.0014 20.1057 35.66C19.9081 36.5382 19.5569 37.3944 19.0958 38.1409C17.581 40.6876 14.7927 42.4001 11.5874 42.4001C9.32604 42.4001 7.28426 41.5438 5.74744 40.1387C5.08881 39.5679 4.51797 38.8873 4.07888 38.1409C3.26656 36.8236 2.80554 35.2648 2.80554 33.6182C2.80554 31.2472 3.7496 29.0737 5.28642 27.493C6.8891 25.8464 9.12845 24.8364 11.5874 24.8364C14.178 24.8364 16.5271 25.9561 18.1079 27.7564C19.513 29.3152 20.3692 31.3789 20.3692 33.6182Z" fill="#4D65E1" stroke="#4D65E1" stroke-width="2" stroke-miterlimit="10" stroke-linecap="round" stroke-linejoin="round"/>
<path d="M11.7124 29.7484C11.8964 29.7484 12.0604 29.8044 12.2044 29.9164C12.3564 30.0204 12.4644 30.2044 12.5284 30.4684L13.2004 33.3244H14.4604L15.1444 30.2644C15.1924 30.0484 15.2964 29.9044 15.4564 29.8324C15.6244 29.7524 15.7964 29.7324 15.9724 29.7724C16.1644 29.8124 16.3084 29.9044 16.4044 30.0484C16.5084 30.1924 16.5324 30.3764 16.4764 30.6004L15.7924 33.3244H16.7524C16.8724 33.3244 16.9604 33.3684 17.0164 33.4564C17.0724 33.5364 17.1004 33.6364 17.1004 33.7564C17.1004 33.8684 17.0724 33.9684 17.0164 34.0564C16.9604 34.1364 16.8724 34.1764 16.7524 34.1764H15.5884L14.7124 37.7044C14.6484 37.9684 14.5364 38.1564 14.3764 38.2684C14.2244 38.3724 14.0644 38.4244 13.8964 38.4244C13.7284 38.4244 13.5644 38.3724 13.4044 38.2684C13.2524 38.1564 13.1444 37.9604 13.0804 37.6804L12.2644 34.1764H11.1124L10.2244 37.7044C10.1604 37.9684 10.0484 38.1564 9.88843 38.2684C9.72843 38.3724 9.56443 38.4244 9.39643 38.4244C9.22843 38.4244 9.06443 38.3724 8.90443 38.2684C8.75243 38.1564 8.64443 37.9644 8.58043 37.6924L7.70443 34.1764H6.52843C6.40843 34.1764 6.32043 34.1364 6.26443 34.0564C6.20843 33.9684 6.18043 33.8684 6.18043 33.7564C6.18043 33.6364 6.20843 33.5364 6.26443 33.4564C6.32043 33.3684 6.40843 33.3244 6.52843 33.3244H7.50043L6.82843 30.6004C6.77243 30.3764 6.79243 30.1924 6.88843 30.0484C6.99243 29.9044 7.14443 29.8124 7.34443 29.7724C7.52843 29.7324 7.70043 29.7484 7.86043 29.8204C8.02043 29.8844 8.12843 30.0324 8.18443 30.2644L8.86843 33.3244H10.1764L10.8964 30.4684C10.9604 30.2044 11.0604 30.0204 11.1964 29.9164C11.3404 29.8044 11.5124 29.7484 11.7124 29.7484ZM9.48043 36.0724L9.96043 34.1764H9.06043L9.48043 36.0724ZM13.8484 36.0604L14.2684 34.1764H13.4044L13.8484 36.0604ZM11.3284 33.3244H12.0604L11.7124 31.8124L11.3284 33.3244Z" fill="white"/>
</svg>
