<svg width="49" height="48" viewBox="0 0 49 48" fill="none" xmlns="http://www.w3.org/2000/svg">
<path d="M31.5561 22.9666C35.3775 22.9666 38.4754 19.8687 38.4754 16.0473C38.4754 12.2258 35.3775 9.12793 31.5561 9.12793C27.7346 9.12793 24.6367 12.2258 24.6367 16.0473C24.6367 19.8687 27.7346 22.9666 31.5561 22.9666Z" stroke="#333333" stroke-width="2" stroke-linecap="round" stroke-linejoin="round"/>
<path d="M13.7022 22.9676C17.5236 22.9676 20.6215 19.8697 20.6215 16.0483C20.6215 12.2268 17.5236 9.12891 13.7022 9.12891C9.88071 9.12891 6.78281 12.2268 6.78281 16.0483C6.78281 19.8697 9.88071 22.9676 13.7022 22.9676Z" fill="#F5F5F5" stroke="#333333" stroke-width="2" stroke-linecap="round" stroke-linejoin="round"/>
<path d="M38.6664 28.4116C36.6649 27.126 34.3929 26.3999 31.9845 26.3999C28.5502 26.3999 25.9571 27.1302 23.4664 29.5999" stroke="#333333" stroke-width="2" stroke-linecap="round"/>
<path d="M26.6539 39.6477C26.6539 32.5927 20.9347 26.8735 13.8797 26.8735C6.82467 26.8735 1.10547 32.5927 1.10547 39.6477" stroke="#333333" stroke-width="2" stroke-linecap="round"/>
<path d="M47.1774 35.7236C47.1774 36.2776 47.1081 36.8141 46.9697 37.3334C46.8139 38.0258 46.5369 38.7009 46.1734 39.2894C44.9791 41.2973 42.7807 42.6475 40.2535 42.6475C38.4706 42.6475 36.8608 41.9724 35.6492 40.8645C35.1299 40.4145 34.6798 39.8779 34.3336 39.2894C33.6932 38.2508 33.3297 37.0219 33.3297 35.7236C33.3297 33.8542 34.074 32.1406 35.2857 30.8943C36.5493 29.5961 38.3148 28.7998 40.2535 28.7998C42.2961 28.7998 44.1482 29.6826 45.3945 31.102C46.5023 32.331 47.1774 33.9581 47.1774 35.7236Z" fill="#4D65E1" stroke="#4D65E1" stroke-width="2" stroke-miterlimit="10" stroke-linecap="round" stroke-linejoin="round"/>
<path d="M37.5527 36.2875L39.4385 38.1431C39.6622 38.3632 40.0311 38.3252 40.2052 38.064L42.9468 33.952" stroke="white" stroke-width="2" stroke-linecap="round"/>
</svg>
