<svg width="48" height="48" viewBox="0 0 48 48" fill="none" xmlns="http://www.w3.org/2000/svg">
<path d="M14.2779 11.3403C14.2779 6.18171 18.7109 2 24.1746 2C29.6383 2 34.0713 6.18171 34.0713 11.3403" stroke="#333333" stroke-width="2" stroke-miterlimit="10"/>
<path d="M41.4299 26.6841H6.90797C5.07936 26.6841 3.4724 25.9158 2.5193 24.7414V36.9463C2.5193 39.5256 4.62498 41.611 7.22936 41.611H41.1307C43.7351 41.611 45.8408 39.5256 45.8408 36.9463V24.7305C44.8877 25.9158 43.2696 26.6951 41.441 26.6951L41.4299 26.6841Z" stroke="#333333" stroke-width="2" stroke-miterlimit="10"/>
<path d="M45.8301 24.7195C46.3953 24.0171 46.7278 23.161 46.7278 22.239V14.9073C46.7278 14.9073 47.1157 11.1427 42.3945 10.4731H6.34316C6.34316 10.4731 2.18723 10.6378 1.62202 14.5232L1.59985 22.25C1.59985 23.1719 1.93233 24.028 2.50862 24.7415" stroke="#333333" stroke-width="2" stroke-miterlimit="10"/>
<path d="M24.1745 35.2214C28.6492 35.2214 32.2767 31.5939 32.2767 27.1192C32.2767 22.6445 28.6492 19.0171 24.1745 19.0171C19.6998 19.0171 16.0724 22.6445 16.0724 27.1192C16.0724 31.5939 19.6998 35.2214 24.1745 35.2214Z" fill="#4D65E1"/>
<path d="M24.1746 24.3862V30.1805" stroke="white" stroke-width="2" stroke-linecap="round" stroke-linejoin="round"/>
<path d="M27.1069 27.2769H21.2431" stroke="white" stroke-width="2" stroke-linecap="round" stroke-linejoin="round"/>
</svg>
