<svg width="48" height="48" viewBox="0 0 48 48" fill="none" xmlns="http://www.w3.org/2000/svg">
<g clip-path="url(#clip0_120_1223)">
<path d="M40.7334 22.5961V14.0761C40.7334 6.01611 38.8534 3.99609 31.2934 3.99609H16.1734C8.61342 3.99609 6.73341 6.01611 6.73341 14.0761V36.5961C6.73341 41.9161 9.65344 43.1761 13.1934 39.3761L13.2134 39.3561C14.8534 37.6161 17.3534 37.7561 18.7734 39.6561L20.7934 42.3561" stroke="#333333" stroke-width="2" stroke-linecap="round" stroke-linejoin="round"/>
<path d="M15.7334 14.0039H31.7334" stroke="#333333" stroke-width="2" stroke-linecap="round" stroke-linejoin="round"/>
<path d="M17.7328 21.9961H29.7328" stroke="#333333" stroke-width="2" stroke-linecap="round" stroke-linejoin="round"/>
<path d="M42.3325 36C42.3325 36.6 42.2575 37.1812 42.1075 37.7437C41.9388 38.4937 41.6388 39.225 41.245 39.8625C39.9513 42.0375 37.57 43.5 34.8325 43.5C32.9013 43.5 31.1575 42.7687 29.845 41.5687C29.2825 41.0812 28.795 40.5 28.42 39.8625C27.7262 38.7375 27.3325 37.4062 27.3325 36C27.3325 33.975 28.1388 32.1188 29.4513 30.7688C30.82 29.3625 32.7325 28.5 34.8325 28.5C37.045 28.5 39.0513 29.4563 40.4013 30.9938C41.6013 32.325 42.3325 34.0875 42.3325 36Z" fill="#4D65E1" stroke="#4D65E1" stroke-width="2" stroke-miterlimit="10" stroke-linecap="round" stroke-linejoin="round"/>
<path d="M31.9066 36.6089L33.9851 38.6542C34.2088 38.8743 34.5777 38.8363 34.7518 38.5752L37.7495 34.0791" stroke="white" stroke-width="2" stroke-linecap="round"/>
</g>
<defs>
<clipPath id="clip0_120_1223">
<rect width="48" height="48" fill="white"/>
</clipPath>
</defs>
</svg>
