<svg width="96" height="32" viewBox="0 0 96 32" fill="none" xmlns="http://www.w3.org/2000/svg">
<path d="M88.0002 1L89.934 5.33833L94.6576 5.83688L91.1292 9.01667L92.1147 13.6631L88.0002 11.29L83.8857 13.6631L84.8712 9.01667L81.3428 5.83688L86.0664 5.33833L88.0002 1Z" fill="#DDDDDD" stroke="#DDDDDD" stroke-width="1.5" stroke-linejoin="round"/>
<path d="M28.0002 1L29.934 5.33833L34.6576 5.83688L31.1292 9.01667L32.1147 13.6631L28.0002 11.29L23.8857 13.6631L24.8712 9.01667L21.3428 5.83688L26.0664 5.33833L28.0002 1Z" fill="#DDDDDD" stroke="#DDDDDD" stroke-width="1.5" stroke-linejoin="round"/>
<path d="M48.0002 1L49.934 5.33833L54.6576 5.83688L51.1292 9.01667L52.1147 13.6631L48.0002 11.29L43.8857 13.6631L44.8712 9.01667L41.3428 5.83688L46.0664 5.33833L48.0002 1Z" fill="#DDDDDD" stroke="#DDDDDD" stroke-width="1.5" stroke-linejoin="round"/>
<path d="M68.0002 1L69.934 5.33833L74.6576 5.83688L71.1292 9.01667L72.1147 13.6631L68.0002 11.29L63.8857 13.6631L64.8712 9.01667L61.3428 5.83688L66.0664 5.33833L68.0002 1Z" fill="#DDDDDD" stroke="#DDDDDD" stroke-width="1.5" stroke-linejoin="round"/>
<path d="M8.00017 1L9.93398 5.33833L14.6576 5.83688L11.1292 9.01667L12.1147 13.6631L8.00017 11.29L3.88567 13.6631L4.87119 9.01667L1.34277 5.83688L6.06636 5.33833L8.00017 1Z" fill="#DDDDDD" stroke="#DDDDDD" stroke-width="1.5" stroke-linejoin="round"/>
<path d="M88.0002 17L89.934 21.3383L94.6576 21.8369L91.1292 25.0167L92.1147 29.6631L88.0002 27.29L83.8857 29.6631L84.8712 25.0167L81.3428 21.8369L86.0664 21.3383L88.0002 17Z" fill="#62D491" stroke="#62D491" stroke-width="1.5" stroke-linejoin="round"/>
<path d="M28.0002 17L29.934 21.3383L34.6576 21.8369L31.1292 25.0167L32.1147 29.6631L28.0002 27.29L23.8857 29.6631L24.8712 25.0167L21.3428 21.8369L26.0664 21.3383L28.0002 17Z" fill="#62D491" stroke="#62D491" stroke-width="1.5" stroke-linejoin="round"/>
<path d="M48.0002 17L49.934 21.3383L54.6576 21.8369L51.1292 25.0167L52.1147 29.6631L48.0002 27.29L43.8857 29.6631L44.8712 25.0167L41.3428 21.8369L46.0664 21.3383L48.0002 17Z" fill="#62D491" stroke="#62D491" stroke-width="1.5" stroke-linejoin="round"/>
<path d="M68.0002 17L69.934 21.3383L74.6576 21.8369L71.1292 25.0167L72.1147 29.6631L68.0002 27.29L63.8857 29.6631L64.8712 25.0167L61.3428 21.8369L66.0664 21.3383L68.0002 17Z" fill="#62D491" stroke="#62D491" stroke-width="1.5" stroke-linejoin="round"/>
<path d="M8.00017 17L9.93398 21.3383L14.6576 21.8369L11.1292 25.0167L12.1147 29.6631L8.00017 27.29L3.88567 29.6631L4.87119 25.0167L1.34277 21.8369L6.06636 21.3383L8.00017 17Z" fill="#62D491" stroke="#62D491" stroke-width="1.5" stroke-linejoin="round"/>
</svg>
