<svg width="96" height="32" viewBox="0 0 96 32" fill="none" xmlns="http://www.w3.org/2000/svg">
<path d="M88 1L89.9338 5.33833L94.6574 5.83688L91.129 9.01667L92.1145 13.6631L88 11.29L83.8855 13.6631L84.871 9.01667L81.3426 5.83688L86.0662 5.33833L88 1Z" fill="#DDDDDD" stroke="#DDDDDD" stroke-width="1.5" stroke-linejoin="round"/>
<path d="M28 1L29.9338 5.33833L34.6574 5.83688L31.129 9.01667L32.1145 13.6631L28 11.29L23.8855 13.6631L24.871 9.01667L21.3426 5.83688L26.0662 5.33833L28 1Z" fill="#DDDDDD" stroke="#DDDDDD" stroke-width="1.5" stroke-linejoin="round"/>
<path d="M48 1L49.9338 5.33833L54.6574 5.83688L51.129 9.01667L52.1145 13.6631L48 11.29L43.8855 13.6631L44.871 9.01667L41.3426 5.83688L46.0662 5.33833L48 1Z" fill="#DDDDDD" stroke="#DDDDDD" stroke-width="1.5" stroke-linejoin="round"/>
<path d="M68 1L69.9338 5.33833L74.6574 5.83688L71.129 9.01667L72.1145 13.6631L68 11.29L63.8855 13.6631L64.871 9.01667L61.3426 5.83688L66.0662 5.33833L68 1Z" fill="#DDDDDD" stroke="#DDDDDD" stroke-width="1.5" stroke-linejoin="round"/>
<path d="M8 1L9.93381 5.33833L14.6574 5.83688L11.129 9.01667L12.1145 13.6631L8 11.29L3.8855 13.6631L4.87102 9.01667L1.3426 5.83688L6.06619 5.33833L8 1Z" fill="#DDDDDD" stroke="#DDDDDD" stroke-width="1.5" stroke-linejoin="round"/>
<path d="M88 17L89.9338 21.3383L94.6574 21.8369L91.129 25.0167L92.1145 29.6631L88 27.29L83.8855 29.6631L84.871 25.0167L81.3426 21.8369L86.0662 21.3383L88 17Z" fill="#4D65E1" stroke="#4D65E1" stroke-width="1.5" stroke-linejoin="round"/>
<path d="M28 17L29.9338 21.3383L34.6574 21.8369L31.129 25.0167L32.1145 29.6631L28 27.29L23.8855 29.6631L24.871 25.0167L21.3426 21.8369L26.0662 21.3383L28 17Z" fill="#4D65E1" stroke="#4D65E1" stroke-width="1.5" stroke-linejoin="round"/>
<path d="M48 17L49.9338 21.3383L54.6574 21.8369L51.129 25.0167L52.1145 29.6631L48 27.29L43.8855 29.6631L44.871 25.0167L41.3426 21.8369L46.0662 21.3383L48 17Z" fill="#4D65E1" stroke="#4D65E1" stroke-width="1.5" stroke-linejoin="round"/>
<path d="M68 17L69.9338 21.3383L74.6574 21.8369L71.129 25.0167L72.1145 29.6631L68 27.29L63.8855 29.6631L64.871 25.0167L61.3426 21.8369L66.0662 21.3383L68 17Z" fill="#4D65E1" stroke="#4D65E1" stroke-width="1.5" stroke-linejoin="round"/>
<path d="M8 17L9.93381 21.3383L14.6574 21.8369L11.129 25.0167L12.1145 29.6631L8 27.29L3.8855 29.6631L4.87102 25.0167L1.3426 21.8369L6.06619 21.3383L8 17Z" fill="#4D65E1" stroke="#4D65E1" stroke-width="1.5" stroke-linejoin="round"/>
</svg>
