<svg width="40" height="40" viewBox="0 0 40 40" fill="none" xmlns="http://www.w3.org/2000/svg">
<rect x="0.498535" y="0.5" width="39" height="39" rx="19.5" fill="white"/>
<rect x="0.498535" y="0.5" width="39" height="39" rx="19.5" stroke="#DDDDDD"/>
<path fill-rule="evenodd" clip-rule="evenodd" d="M27.8122 13.4476C28.6724 13.6944 29.3508 14.4202 29.5804 15.3419C29.9985 17.0137 29.9985 20.5 29.9985 20.5C29.9985 20.5 29.9985 23.9875 29.5804 25.6581C29.3508 26.5798 28.6724 27.3056 27.8122 27.5524C26.2531 28 19.9985 28 19.9985 28C19.9985 28 13.7451 28 12.1849 27.5524C11.3247 27.3056 10.6463 26.5798 10.4167 25.6581C9.99854 23.9863 9.99854 20.5 9.99854 20.5C9.99854 20.5 9.99854 17.0137 10.4167 15.3419C10.6463 14.4202 11.3247 13.6944 12.1849 13.4476C13.744 13 19.9985 13 19.9985 13C19.9985 13 26.2531 13 27.8122 13.4476ZM22.9985 20.5L17.9985 23V18L22.9985 20.5Z" fill="#111111"/>
</svg>
