<svg width="40" height="40" viewBox="0 0 40 40" fill="none" xmlns="http://www.w3.org/2000/svg">
<rect x="0.498535" y="0.5" width="39.0008" height="39" rx="19.5" fill="white"/>
<rect x="0.498535" y="0.5" width="39.0008" height="39" rx="19.5" stroke="#DDDDDD"/>
<path d="M14.3634 18.642C13.9834 18.642 13.6754 18.9409 13.6754 19.3097C13.6754 19.6784 13.9834 19.9787 14.3634 19.9787C14.7435 19.9787 15.0515 19.6798 15.0515 19.3097C15.0515 18.9395 14.7435 18.642 14.3634 18.642Z" fill="#111111"/>
<path d="M21.1662 18.5721C20.7565 18.5721 20.4245 18.8943 20.4245 19.2918C20.4245 19.6894 20.7565 20.0116 21.1662 20.0116C21.5759 20.0116 21.9079 19.6894 21.9079 19.2918C21.9079 18.8943 21.5759 18.5721 21.1662 18.5721Z" fill="#111111"/>
<path d="M24.9964 19.2918C24.9964 18.9039 25.3213 18.5886 25.7212 18.5886C26.121 18.5886 26.4459 18.9039 26.4459 19.2918C26.4459 19.6798 26.121 19.9951 25.7212 19.9951C25.3213 19.9951 24.9964 19.6798 24.9964 19.2918Z" fill="#111111"/>
<path fill-rule="evenodd" clip-rule="evenodd" d="M12.6752 12H27.3248C28.8026 12 30.0007 13.1625 30.0007 14.5965V23.0331C30.0007 24.467 28.8026 25.6296 27.3248 25.6296H22.1976L20.4372 29.6532C20.4372 29.6532 20.3172 30.0014 20.0233 30.0014C19.7308 30.0014 19.6093 29.6532 19.6093 29.6532L17.8489 25.6296H12.6752C11.1973 25.6296 9.99927 24.467 9.99927 23.0331V14.5965C9.99927 13.1625 11.1973 12 12.6752 12ZM14.6305 21.0439C14.6305 21.0439 16.2736 21 16.2821 19.4577H16.2807C16.2807 19.4577 16.5025 17.655 14.7308 17.4946C14.7308 17.4946 13.917 17.4864 13.6359 17.9525V16.1209C13.6359 16.1209 12.5141 16.1347 12.4392 16.1237V16.1209C12.4336 16.1223 12.4392 16.1237 12.4392 16.1237V20.9136H13.6359V20.6353C13.6359 20.6353 13.9947 21.0439 14.6305 21.0439ZM18.3886 20.9219V17.6427C18.3886 17.6427 18.5229 16.0401 16.6523 15.966V17.1107C16.6523 17.1107 17.2174 17.2341 17.2174 17.6756V20.9219H18.3886ZM19.201 19.2932C19.201 20.2611 20.0798 21.0466 21.1649 21.0466C22.2499 21.0466 23.1287 20.2611 23.1287 19.2932C23.1287 18.3254 22.2499 17.5398 21.1649 17.5398C20.0798 17.5398 19.201 18.3254 19.201 19.2932ZM25.854 22.7123C27.5989 22.7123 27.5819 21.0466 27.5819 21.0466V17.5864H26.3937V17.9374C26.0052 17.4302 25.3737 17.496 25.3737 17.496C23.7729 17.6097 23.739 19.041 23.739 19.041V19.5647C23.739 20.9452 25.1971 21.0466 25.1971 21.0466C26.2256 21.0466 26.3683 20.6024 26.3683 20.6024C26.3768 21.6992 25.6435 21.6334 25.6435 21.6334H25.3228V22.7123H25.854Z" fill="#111111"/>
</svg>
