<svg width="32" height="32" viewBox="0 0 32 32" fill="none" xmlns="http://www.w3.org/2000/svg">
<path d="M27.3334 15.0666V9.38658C27.3334 4.0132 26.0801 2.6665 21.04 2.6665H10.9599C5.91985 2.6665 4.6665 4.0132 4.6665 9.38658V24.4C4.6665 27.9467 6.61321 28.7868 8.97323 26.2534L8.98654 26.2401C10.0799 25.0801 11.7466 25.1734 12.6932 26.4401L14.0399 28.2401" stroke="#333333" stroke-width="1.5" stroke-linecap="round" stroke-linejoin="round"/>
<path d="M10.6665 9.33325H21.3333" stroke="#333333" stroke-width="1.5" stroke-linecap="round" stroke-linejoin="round"/>
<path d="M12 14.6665H20.0001" stroke="#333333" stroke-width="1.5" stroke-linecap="round" stroke-linejoin="round"/>
<path d="M24.2825 19.6935L19.5625 24.4135C19.3758 24.6002 19.2025 24.9469 19.1625 25.2002L18.9091 27.0002C18.8158 27.6536 19.2692 28.1069 19.9225 28.0136L21.7225 27.7602C21.9759 27.7202 22.3359 27.5469 22.5092 27.3602L27.2293 22.6402C28.0426 21.8268 28.4293 20.8802 27.2293 19.6802C26.0426 18.4935 25.0959 18.8801 24.2825 19.6935Z" fill="#62D491" stroke="white" stroke-width="1.5" stroke-miterlimit="10" stroke-linecap="round" stroke-linejoin="round"/>
<path d="M23.5996 20.3735C23.9996 21.8135 25.1196 22.9336 26.5596 23.3336" stroke="white" stroke-width="1.5" stroke-miterlimit="10" stroke-linecap="round" stroke-linejoin="round"/>
</svg>
