<svg width="16" height="16" viewBox="0 0 16 16" fill="none" xmlns="http://www.w3.org/2000/svg">
<path d="M8 10C9.10457 10 10 9.10457 10 8C10 6.89543 9.10457 6 8 6C6.89543 6 6 6.89543 6 8C6 9.10457 6.89543 10 8 10Z" stroke="#333333" stroke-width="1.5" stroke-miterlimit="10" stroke-linecap="round" stroke-linejoin="round"/>
<path d="M1.5 8.5827V7.4173C1.5 6.72867 2.05222 6.15921 2.73438 6.15921C3.91029 6.15921 4.39105 5.31166 3.79985 4.27208C3.46202 3.67614 3.66342 2.90142 4.25462 2.5571L5.37856 1.90157C5.8918 1.59036 6.55447 1.77576 6.85982 2.29886L6.93128 2.42467C7.51599 3.46425 8.47751 3.46425 9.06872 2.42467L9.14018 2.29886C9.44553 1.77576 10.1082 1.59036 10.6214 1.90157L11.7454 2.5571C12.3366 2.90142 12.538 3.67614 12.2001 4.27208C11.6089 5.31166 12.0897 6.15921 13.2656 6.15921C13.9413 6.15921 14.5 6.72204 14.5 7.4173V8.5827C14.5 9.27133 13.9478 9.84079 13.2656 9.84079C12.0897 9.84079 11.6089 10.6883 12.2001 11.7279C12.538 12.3305 12.3366 13.0986 11.7454 13.4429L10.6214 14.0984C10.1082 14.4096 9.44553 14.2242 9.14018 13.7011L9.06872 13.5753C8.48401 12.5358 7.52249 12.5358 6.93128 13.5753L6.85982 13.7011C6.55447 14.2242 5.8918 14.4096 5.37856 14.0984L4.25462 13.4429C3.66342 13.0986 3.46202 12.3239 3.79985 11.7279C4.39105 10.6883 3.91029 9.84079 2.73438 9.84079C2.05222 9.84079 1.5 9.27133 1.5 8.5827Z" stroke="#333333" stroke-width="1.5" stroke-miterlimit="10" stroke-linecap="round" stroke-linejoin="round"/>
</svg>
