<svg width="16" height="16" viewBox="0 0 16 16" fill="none" xmlns="http://www.w3.org/2000/svg">
<path d="M14.6668 11.3851V3.33839C14.6668 2.53839 14.0135 1.94506 13.2202 2.01173H13.1802C11.7802 2.13173 9.6535 2.84506 8.46683 3.59173L8.3535 3.66506C8.16016 3.78506 7.84016 3.78506 7.64683 3.66506L7.48016 3.56506C6.2935 2.82506 4.1735 2.11839 2.7735 2.00506C1.98016 1.93839 1.3335 2.53839 1.3335 3.33173V11.3851C1.3335 12.0251 1.8535 12.6251 2.4935 12.7051L2.68683 12.7317C4.1335 12.9251 6.36683 13.6584 7.64683 14.3584L7.6735 14.3717C7.8535 14.4717 8.14016 14.4717 8.3135 14.3717C9.5935 13.6651 11.8335 12.9251 13.2868 12.7317L13.5068 12.7051C14.1468 12.6251 14.6668 12.0251 14.6668 11.3851Z" stroke="#19B3BD" stroke-width="1.5" stroke-linecap="round" stroke-linejoin="round"/>
<line x1="8.25" y1="6.75" x2="8.25" y2="9.91667" stroke="#19B3BD" stroke-width="1.5" stroke-linecap="round"/>
</svg>
