<svg width="16" height="16" viewBox="0 0 16 16" fill="none" xmlns="http://www.w3.org/2000/svg">
<circle cx="8.00049" cy="8.00049" r="7.25" fill="white" stroke="#333333" stroke-width="1.5"/>
<path d="M8.05983 5.00212C8.36642 5.00212 8.62357 5.15699 8.73236 5.58289L9.28583 7.62458H10.3243L10.8884 5.41834C10.9675 5.06987 11.284 4.9634 11.5708 5.02147C11.8873 5.08923 12.0752 5.33122 11.9862 5.68937L11.4221 7.62458H12.2133C12.4111 7.62458 12.5001 7.77945 12.5005 8.23511C12.5005 8.41902 12.4115 8.59254 12.2137 8.59254H11.2543L10.5324 11.4197C10.4236 11.8456 10.1368 12.0005 9.85983 12.0005C9.58291 12.0005 9.29609 11.8456 9.1873 11.4004L8.51477 8.59254H7.56532L6.83346 11.4197C6.72466 11.8456 6.42796 12.0005 6.15104 12.0005C5.87412 12.0005 5.57741 11.8456 5.47851 11.41L4.75653 8.59254H3.7873C3.5895 8.59254 3.50049 8.41902 3.50049 8.23511C3.50012 7.77945 3.58913 7.62458 3.78693 7.62458H4.58803L4.03456 5.68937C3.94554 5.33122 4.13346 5.08923 4.45983 5.02147C4.75653 4.95372 5.06313 5.04083 5.15214 5.41834L5.7155 7.62458H6.79352L7.3873 5.58289C7.49609 5.15699 7.73346 5.00212 8.05983 5.00212ZM5.87412 8.59254L6.22027 10.1033L6.61587 8.59254H5.87412ZM9.45433 8.59254L9.82027 10.0936L10.1664 8.59254H9.45433ZM8.05983 6.66701L7.74297 7.62458H8.34627L8.05983 6.66701Z" fill="#333333"/>
</svg>
