<svg width="16" height="16" viewBox="0 0 16 16" fill="none" xmlns="http://www.w3.org/2000/svg">
<path d="M15 12.431C15 12.683 14.9439 12.942 14.8247 13.194C14.7056 13.446 14.5513 13.684 14.348 13.908C14.0045 14.286 13.6259 14.559 13.1983 14.734C12.7777 14.909 12.322 15 11.8312 15C11.1162 15 10.352 14.832 9.54582 14.489C8.73961 14.146 7.9334 13.684 7.1342 13.103C6.32799 12.515 5.56385 11.864 4.83475 11.143C4.11267 10.415 3.46069 9.652 2.87882 8.854C2.30396 8.056 1.84126 7.258 1.50476 6.467C1.16825 5.669 1 4.906 1 4.178C1 3.702 1.08413 3.247 1.25238 2.827C1.42063 2.4 1.68703 2.008 2.05859 1.658C2.50726 1.217 2.998 1 3.51678 1C3.71307 1 3.90936 1.042 4.08463 1.126C4.2669 1.21 4.42814 1.336 4.55433 1.518L6.18077 3.807C6.30696 3.982 6.3981 4.143 6.46119 4.297C6.52429 4.444 6.55934 4.591 6.55934 4.724C6.55934 4.892 6.51027 5.06 6.41212 5.221C6.32098 5.382 6.18778 5.55 6.01953 5.718L5.48673 6.271C5.40961 6.348 5.37456 6.439 5.37456 6.551C5.37456 6.607 5.38157 6.656 5.39559 6.712C5.41663 6.768 5.43766 6.81 5.45168 6.852C5.57787 7.083 5.79519 7.384 6.10366 7.748C6.41913 8.112 6.75563 8.483 7.12018 8.854C7.49875 9.225 7.8633 9.568 8.23485 9.883C8.5994 10.191 8.90085 10.401 9.13921 10.527C9.17426 10.541 9.21632 10.562 9.2654 10.583C9.32148 10.604 9.37757 10.611 9.44066 10.611C9.55984 10.611 9.65098 10.569 9.72809 10.492L10.2609 9.967C10.4362 9.792 10.6044 9.659 10.7656 9.575C10.9269 9.477 11.0881 9.428 11.2634 9.428C11.3966 9.428 11.5368 9.456 11.691 9.519C11.8453 9.582 12.0065 9.673 12.1818 9.792L14.5023 11.437C14.6845 11.563 14.8107 11.71 14.8878 11.885C14.9579 12.06 15 12.235 15 12.431Z" fill="#111111"/>
</svg>
