<svg width="24" height="24" viewBox="0 0 24 24" fill="none" xmlns="http://www.w3.org/2000/svg">
<path d="M22 17.0776V5.00759C22 3.80759 21.02 2.91759 19.83 3.01759H19.77C17.67 3.19759 14.48 4.26759 12.7 5.38759L12.53 5.49759C12.24 5.67759 11.76 5.67759 11.47 5.49759L11.22 5.34759C9.44 4.23759 6.26 3.17759 4.16 3.00759C2.97 2.90759 2 3.80759 2 4.99759V17.0776C2 18.0376 2.78 18.9376 3.74 19.0576L4.03 19.0976C6.2 19.3876 9.55 20.4876 11.47 21.5376L11.51 21.5576C11.78 21.7076 12.21 21.7076 12.47 21.5576C14.39 20.4976 17.75 19.3876 19.93 19.0976L20.26 19.0576C21.22 18.9376 22 18.0376 22 17.0776Z" stroke="#333333" stroke-width="1.5" stroke-linecap="round" stroke-linejoin="round"/>
<line x1="12" y1="9.75" x2="12" y2="15.25" stroke="#333333" stroke-width="1.5" stroke-linecap="round"/>
</svg>
