<svg width="25" height="24" viewBox="0 0 25 24" fill="none" xmlns="http://www.w3.org/2000/svg">
<path d="M8.15039 11.9999L10.9804 14.8299L16.6504 9.16992" stroke="#333333" stroke-width="1.5" stroke-linecap="round" stroke-linejoin="round"/>
<path d="M11.1454 2.4425C11.8454 1.8525 12.9754 1.8525 13.6554 2.4425L15.2354 3.7925C15.5354 4.0425 16.1054 4.2525 16.5054 4.2525H18.2054C19.2654 4.2525 20.1354 5.1225 20.1354 6.1825V7.8825C20.1354 8.2825 20.3454 8.8425 20.5954 9.1425L21.9454 10.7225C22.5354 11.4225 22.5354 12.5525 21.9454 13.2325L20.5954 14.8125C20.3454 15.1125 20.1354 15.6725 20.1354 16.0725V17.7725C20.1354 18.8325 19.2654 19.7025 18.2054 19.7025H16.5054C16.1054 19.7025 15.5454 19.9125 15.2454 20.1625L13.6654 21.5125C12.9654 22.1025 11.8354 22.1025 11.1554 21.5125L9.57539 20.1625C9.27539 19.9125 8.70539 19.7025 8.31539 19.7025H6.56539C5.50539 19.7025 4.63539 18.8325 4.63539 17.7725V16.0625C4.63539 15.6725 4.43539 15.1025 4.18539 14.8125L2.83539 13.2225C2.25539 12.5325 2.25539 11.4125 2.83539 10.7225L4.18539 9.1325C4.43539 8.8325 4.63539 8.2725 4.63539 7.8825V6.1925C4.63539 5.1325 5.50539 4.2625 6.56539 4.2625H8.29539C8.69539 4.2625 9.25539 4.0525 9.55539 3.8025L11.1454 2.4425Z" stroke="#333333" stroke-width="1.5" stroke-linecap="round" stroke-linejoin="round"/>
</svg>
