<svg width="24" height="24" viewBox="0 0 24 24" fill="none" xmlns="http://www.w3.org/2000/svg">
<path d="M12 22C17.5228 22 22 17.5228 22 12C22 6.47715 17.5228 2 12 2C6.47715 2 2 6.47715 2 12C2 17.5228 6.47715 22 12 22Z" fill="#29C78E" stroke="#29C78E" stroke-width="1.5" stroke-linecap="round" stroke-linejoin="round"/>
<path d="M12.1098 14C12.0457 13.9908 11.9634 13.9908 11.8902 14C10.2805 13.945 9 12.626 9 11.0046C9 9.34657 10.3354 8 12 8C13.6555 8 15 9.34657 15 11.0046C14.9909 12.626 13.7195 13.945 12.1098 14Z" fill="white"/>
<path d="M18 18.6055C16.4154 20.0952 14.3145 21 12 21C9.68546 21 7.58457 20.0952 6 18.6055C6.08902 17.7464 6.62315 16.9056 7.57567 16.2475C10.0148 14.5842 14.003 14.5842 16.4243 16.2475C17.3769 16.9056 17.911 17.7464 18 18.6055Z" fill="white"/>
</svg>
