<svg width="25" height="24" viewBox="0 0 25 24" fill="none" xmlns="http://www.w3.org/2000/svg">
<path d="M12.91 13C12.846 12.9908 12.7637 12.9908 12.6905 13C11.0808 12.945 9.80029 11.626 9.80029 10.0046C9.80029 8.34657 11.1357 7 12.8003 7C14.4558 7 15.8003 8.34657 15.8003 10.0046C15.7911 11.626 14.5198 12.945 12.91 13Z" stroke="#333333" stroke-width="1.5" stroke-linecap="round" stroke-linejoin="round"/>
<path d="M19.8003 19.2064C17.9516 20.9444 15.5006 22 12.8003 22C10.1 22 7.64896 20.9444 5.80029 19.2064C5.90415 18.2041 6.5273 17.2232 7.63857 16.4554C10.4843 14.5149 15.1371 14.5149 17.962 16.4554C19.0733 17.2232 19.6964 18.2041 19.8003 19.2064Z" stroke="#333333" stroke-width="1.5" stroke-linecap="round" stroke-linejoin="round"/>
<path d="M12.8003 22C18.3231 22 22.8003 17.5228 22.8003 12C22.8003 6.47715 18.3231 2 12.8003 2C7.27745 2 2.80029 6.47715 2.80029 12C2.80029 17.5228 7.27745 22 12.8003 22Z" stroke="#333333" stroke-width="1.5" stroke-linecap="round" stroke-linejoin="round"/>
</svg>
