<svg width="24" height="24" viewBox="0 0 24 24" fill="none" xmlns="http://www.w3.org/2000/svg">
<path d="M15.25 11C15.25 10.8619 15.3619 10.75 15.5 10.75H20C20.1381 10.75 20.25 10.8619 20.25 11V13.6V21C20.25 21.1381 20.1381 21.25 20 21.25H15.5C15.3619 21.25 15.25 21.1381 15.25 21V11Z" fill="white" stroke="#333333" stroke-width="1.5"/>
<path d="M3.75 3C3.75 2.86193 3.86193 2.75 4 2.75H15C15.1381 2.75 15.25 2.86193 15.25 3V8V21C15.25 21.1381 15.1381 21.25 15 21.25H4C3.86193 21.25 3.75 21.1381 3.75 21V3Z" fill="white" stroke="#333333" stroke-width="1.5"/>
<rect x="6" y="6" width="2" height="2" fill="#333333"/>
<rect x="6" y="10" width="2" height="2" fill="#333333"/>
<rect x="11" y="6" width="2" height="2" fill="#333333"/>
<rect x="11" y="10" width="2" height="2" fill="#333333"/>
</svg>
