<svg width="24" height="24" viewBox="0 0 24 24" fill="none" xmlns="http://www.w3.org/2000/svg">
<path d="M10.745 2.4425C11.445 1.8525 12.575 1.8525 13.255 2.4425L14.835 3.7925C15.135 4.0425 15.705 4.2525 16.105 4.2525H17.805C18.865 4.2525 19.735 5.1225 19.735 6.1825V7.8825C19.735 8.2825 19.945 8.8425 20.195 9.1425L21.545 10.7225C22.135 11.4225 22.135 12.5525 21.545 13.2325L20.195 14.8125C19.945 15.1125 19.735 15.6725 19.735 16.0725V17.7725C19.735 18.8325 18.865 19.7025 17.805 19.7025H16.105C15.705 19.7025 15.145 19.9125 14.845 20.1625L13.265 21.5125C12.565 22.1025 11.435 22.1025 10.755 21.5125L9.175 20.1625C8.875 19.9125 8.305 19.7025 7.915 19.7025H6.165C5.105 19.7025 4.235 18.8325 4.235 17.7725V16.0625C4.235 15.6725 4.035 15.1025 3.785 14.8125L2.435 13.2225C1.855 12.5325 1.855 11.4125 2.435 10.7225L3.785 9.1325C4.035 8.8325 4.235 8.2725 4.235 7.8825V6.1925C4.235 5.1325 5.105 4.2625 6.165 4.2625H7.895C8.295 4.2625 8.855 4.0525 9.155 3.8025L10.745 2.4425Z" fill="#29C78E"/>
<path d="M7.75 11.9999L10.58 14.8299L16.25 9.16992" stroke="white" stroke-width="1.5" stroke-linecap="round" stroke-linejoin="round"/>
</svg>
