<svg width="34" height="32" viewBox="0 0 34 32" fill="none" xmlns="http://www.w3.org/2000/svg">
<path d="M22.0377 15.3113C24.5853 15.3113 26.6506 13.246 26.6506 10.6984C26.6506 8.15072 24.5853 6.08545 22.0377 6.08545C19.4901 6.08545 17.4248 8.15072 17.4248 10.6984C17.4248 13.246 19.4901 15.3113 22.0377 15.3113Z" stroke="#333333" stroke-width="1.5" stroke-linecap="round" stroke-linejoin="round"/>
<path d="M10.1354 15.3117C12.683 15.3117 14.7483 13.2465 14.7483 10.6988C14.7483 8.1512 12.683 6.08594 10.1354 6.08594C7.58773 6.08594 5.52246 8.1512 5.52246 10.6988C5.52246 13.2465 7.58773 15.3117 10.1354 15.3117Z" fill="#F5F5F5" stroke="#333333" stroke-width="1.5" stroke-linecap="round" stroke-linejoin="round"/>
<path d="M26.7779 18.9412C25.4436 18.0841 23.9289 17.6001 22.3232 17.6001C20.0337 17.6001 18.305 18.087 16.6445 19.7334" stroke="#333333" stroke-width="1.5" stroke-linecap="round"/>
<path d="M18.7696 26.4319C18.7696 21.7286 14.9568 17.9158 10.2534 17.9158C5.55011 17.9158 1.7373 21.7286 1.7373 26.4319" stroke="#333333" stroke-width="1.5" stroke-linecap="round"/>
<path d="M32.452 23.8158C32.452 24.1851 32.4058 24.5428 32.3135 24.889C32.2097 25.3506 32.025 25.8007 31.7827 26.193C30.9865 27.5316 29.5209 28.4317 27.8361 28.4317C26.6475 28.4317 25.5743 27.9817 24.7665 27.2431C24.4203 26.9431 24.1203 26.5854 23.8895 26.193C23.4625 25.5006 23.2202 24.6813 23.2202 23.8158C23.2202 22.5696 23.7164 21.4271 24.5242 20.5963C25.3666 19.7308 26.5437 19.2 27.8361 19.2C29.1978 19.2 30.4325 19.7885 31.2634 20.7348C32.002 21.5541 32.452 22.6388 32.452 23.8158Z" fill="#4D65E1" stroke="#4D65E1" stroke-width="1.5" stroke-miterlimit="10" stroke-linecap="round" stroke-linejoin="round"/>
<path d="M26.0355 24.1916L27.149 25.2872C27.3727 25.5074 27.7415 25.4693 27.9157 25.2082L29.6316 22.6346" stroke="white" stroke-width="1.5" stroke-linecap="round"/>
</svg>
