<svg width="32" height="32" viewBox="0 0 32 32" fill="none" xmlns="http://www.w3.org/2000/svg">
<path d="M9.51855 8.89359C9.51855 5.45456 12.4739 2.66675 16.1163 2.66675C19.7588 2.66675 22.7141 5.45456 22.7141 8.89359" stroke="#333333" stroke-width="1.5" stroke-miterlimit="10"/>
<path d="M27.6196 19.1228H4.60498C3.3859 19.1228 2.3146 18.6106 1.6792 17.8276V25.9642C1.6792 27.6837 3.08298 29.074 4.81924 29.074H27.4201C29.1564 29.074 30.5602 27.6837 30.5602 25.9642V17.8203C29.9248 18.6106 28.8461 19.1301 27.627 19.1301L27.6196 19.1228Z" stroke="#333333" stroke-width="1.5" stroke-miterlimit="10"/>
<path d="M30.5532 17.813C30.93 17.3447 31.1517 16.774 31.1517 16.1593V11.2715C31.1517 11.2715 31.4103 8.76177 28.2629 8.31543H4.22861C4.22861 8.31543 1.45799 8.42519 1.08118 11.0154L1.06641 16.1667C1.06641 16.7813 1.28806 17.352 1.67225 17.8276" stroke="#333333" stroke-width="1.5" stroke-miterlimit="10"/>
<path d="M16.1163 24.8144C19.0994 24.8144 21.5177 22.396 21.5177 19.4129C21.5177 16.4298 19.0994 14.0115 16.1163 14.0115C13.1332 14.0115 10.7148 16.4298 10.7148 19.4129C10.7148 22.396 13.1332 24.8144 16.1163 24.8144Z" fill="#4D65E1"/>
<path d="M16.1162 17.5908V21.4537" stroke="white" stroke-width="1.5" stroke-linecap="round" stroke-linejoin="round"/>
<path d="M18.0713 19.5178H14.1621" stroke="white" stroke-width="1.5" stroke-linecap="round" stroke-linejoin="round"/>
</svg>
