<svg width="32" height="32" viewBox="0 0 32 32" fill="none" xmlns="http://www.w3.org/2000/svg">
<path d="M30.3079 14.1395V17.0111C30.3079 17.7778 29.6946 18.405 28.9139 18.4329H26.1818C24.6763 18.4329 23.2964 17.3317 23.1709 15.8262C23.0873 14.948 23.4218 14.1256 24.0073 13.5541C24.523 13.0244 25.2339 12.7178 26.0145 12.7178H28.9139C29.6946 12.7457 30.3079 13.3729 30.3079 14.1395Z" stroke="#333333" stroke-width="1.5" stroke-linecap="round" stroke-linejoin="round"/>
<path d="M2.4292 14.0243V10.7031C2.4292 6.91158 4.71526 4.26309 8.26981 3.81703C8.63223 3.76127 9.00859 3.7334 9.3989 3.7334H21.9444C22.3068 3.7334 22.6553 3.74732 22.9898 3.80308C26.5862 4.22126 28.9141 6.8837 28.9141 10.7031V12.7243H26.0146C25.234 12.7243 24.5231 13.031 24.0074 13.5607C23.4219 14.1322 23.0874 14.9546 23.171 15.8328C23.2965 17.3382 24.6764 18.4394 26.1819 18.4394H28.9141V20.4607C28.9141 24.6425 26.1262 27.4304 21.9444 27.4304H16.8595" stroke="#333333" stroke-width="1.5" stroke-linecap="round" stroke-linejoin="round"/>
<path d="M13.5807 22.4122C13.5807 22.8805 13.5221 23.3342 13.405 23.7733C13.2733 24.3588 13.0391 24.9296 12.7318 25.4272C11.7219 27.1251 9.86304 28.2667 7.72613 28.2667C6.21858 28.2667 4.85739 27.6958 3.83285 26.7591C3.39376 26.3786 3.0132 25.9249 2.72047 25.4272C2.17893 24.5491 1.87158 23.5099 1.87158 22.4122C1.87158 20.8314 2.50095 19.3825 3.5255 18.3286C4.59395 17.2309 6.08685 16.5576 7.72613 16.5576C9.45322 16.5576 11.0193 17.3041 12.0731 18.5043C13.0099 19.5435 13.5807 20.9193 13.5807 22.4122Z" fill="#4D65E1" stroke="#4D65E1" stroke-width="1.5" stroke-miterlimit="10" stroke-linecap="round" stroke-linejoin="round"/>
<path d="M7.8278 18.6691C7.99647 18.6691 8.1468 18.7204 8.2788 18.8231C8.41813 18.9184 8.51713 19.0871 8.5758 19.3291L9.1918 21.9471H10.3468L10.9738 19.1421C11.0178 18.9441 11.1131 18.8121 11.2598 18.7461C11.4138 18.6728 11.5715 18.6544 11.7328 18.6911C11.9088 18.7278 12.0408 18.8121 12.1288 18.9441C12.2241 19.0761 12.2461 19.2448 12.1948 19.4501L11.5678 21.9471H12.4478C12.5578 21.9471 12.6385 21.9874 12.6898 22.0681C12.7411 22.1414 12.7668 22.2331 12.7668 22.3431C12.7668 22.4458 12.7411 22.5374 12.6898 22.6181C12.6385 22.6914 12.5578 22.7281 12.4478 22.7281H11.3808L10.5778 25.9621C10.5191 26.2041 10.4165 26.3764 10.2698 26.4791C10.1305 26.5744 9.9838 26.6221 9.8298 26.6221C9.6758 26.6221 9.52547 26.5744 9.3788 26.4791C9.23947 26.3764 9.14047 26.1968 9.0818 25.9401L8.3338 22.7281H7.2778L6.4638 25.9621C6.40513 26.2041 6.30247 26.3764 6.1558 26.4791C6.00913 26.5744 5.8588 26.6221 5.7048 26.6221C5.5508 26.6221 5.40047 26.5744 5.2538 26.4791C5.11447 26.3764 5.01547 26.2004 4.9568 25.9511L4.1538 22.7281H3.0758C2.9658 22.7281 2.88513 22.6914 2.8338 22.6181C2.78247 22.5374 2.7568 22.4458 2.7568 22.3431C2.7568 22.2331 2.78247 22.1414 2.8338 22.0681C2.88513 21.9874 2.9658 21.9471 3.0758 21.9471H3.9668L3.3508 19.4501C3.29947 19.2448 3.3178 19.0761 3.4058 18.9441C3.50113 18.8121 3.64047 18.7278 3.8238 18.6911C3.99247 18.6544 4.15013 18.6691 4.2968 18.7351C4.44347 18.7938 4.54247 18.9294 4.5938 19.1421L5.2208 21.9471H6.4198L7.0798 19.3291C7.13847 19.0871 7.23013 18.9184 7.3548 18.8231C7.4868 18.7204 7.64447 18.6691 7.8278 18.6691ZM5.7818 24.4661L6.2218 22.7281H5.3968L5.7818 24.4661ZM9.7858 24.4551L10.1708 22.7281H9.3788L9.7858 24.4551ZM7.4758 21.9471H8.1468L7.8278 20.5611L7.4758 21.9471Z" fill="white"/>
</svg>
