<svg width="44" height="44" viewBox="0 0 44 44" fill="none" xmlns="http://www.w3.org/2000/svg">
<rect x="5.12842" y="8.06152" width="33.7432" height="24.6173" stroke="#111111" stroke-width="2"/>
<path d="M1.4668 7.82202H42.1532" stroke="#111111" stroke-width="2" stroke-linecap="round" stroke-linejoin="round"/>
<path d="M22 4.3999V7.44188" stroke="#111111" stroke-width="2" stroke-linecap="round" stroke-linejoin="round"/>
<path d="M14.7754 32.9185L12.4939 39.0024" stroke="#111111" stroke-width="2" stroke-linecap="round" stroke-linejoin="round"/>
<path d="M29.9854 32.9185L32.2668 39.0024" stroke="#111111" stroke-width="2" stroke-linecap="round" stroke-linejoin="round"/>
<path fill-rule="evenodd" clip-rule="evenodd" d="M15.3999 18.425C16.1593 18.425 16.7749 19.0407 16.7749 19.8L16.7749 25.6667C16.7749 26.4261 16.1593 27.0417 15.3999 27.0417C14.6405 27.0417 14.0249 26.4261 14.0249 25.6667L14.0249 19.8C14.0249 19.0407 14.6405 18.425 15.3999 18.425Z" fill="#4D65E1"/>
<path fill-rule="evenodd" clip-rule="evenodd" d="M22 16.9583C22.7594 16.9583 23.375 17.5739 23.375 18.3333L23.375 25.6666C23.375 26.426 22.7594 27.0416 22 27.0416C21.2406 27.0416 20.625 26.426 20.625 25.6666L20.625 18.3333C20.625 17.5739 21.2406 16.9583 22 16.9583Z" fill="#4D65E1"/>
<path fill-rule="evenodd" clip-rule="evenodd" d="M28.6001 14.7583C29.3595 14.7583 29.9751 15.3739 29.9751 16.1333L29.9751 25.6666C29.9751 26.426 29.3595 27.0416 28.6001 27.0416C27.8407 27.0416 27.2251 26.426 27.2251 25.6666L27.2251 16.1333C27.2251 15.3739 27.8407 14.7583 28.6001 14.7583Z" fill="#4D65E1"/>
<path d="M1.84717 32.9185H42.5336" stroke="#111111" stroke-width="2" stroke-linecap="round" stroke-linejoin="round"/>
</svg>
