<svg width="44" height="44" viewBox="0 0 44 44" fill="none" xmlns="http://www.w3.org/2000/svg">
<path d="M13 16.8708C16.866 16.8708 20 13.7368 20 9.87085C20 6.00486 16.866 2.87085 13 2.87085C9.13401 2.87085 6 6.00486 6 9.87085C6 13.7368 9.13401 16.8708 13 16.8708Z" stroke="#111111" stroke-width="2" stroke-miterlimit="10"/>
<path d="M19.8842 26.1104C19.8541 26.1104 19.824 26.0176 19.7969 26.0176C19.2703 22.578 16.4387 19.9031 12.9421 19.9031C9.06632 19.9031 6 23.0888 6 27.0764V40.1289H32.6129C32.6129 32.389 26.9136 26.1104 19.8842 26.1104Z" stroke="#111111" stroke-width="2" stroke-miterlimit="10" stroke-linejoin="round"/>
<path d="M36.572 13.0129C33.6889 13.0129 32.9872 16.2168 32.9872 16.2168C32.9872 16.2168 31.7657 13 29.495 13C26.506 13 25.6884 16.0169 26.0989 18.2699C26.1717 18.6761 26.314 19.0725 26.506 19.4593L26.7112 19.8332C28.4523 22.7792 32.9938 25 32.9938 25C32.9938 25 37.7967 22.7276 39.4286 19.6914L39.6106 19.3175C39.7596 18.9758 39.8688 18.6277 39.9218 18.2699C40.2561 16.0846 39.5875 13.0129 36.572 13.0129Z" fill="#29C78E"/>
</svg>
