<svg width="44" height="44" viewBox="0 0 44 44" fill="none" xmlns="http://www.w3.org/2000/svg">
<path d="M41.6726 19.4417V23.3902C41.6726 24.4443 40.8293 25.3068 39.7559 25.3451H35.9992C33.9292 25.3451 32.0318 23.8309 31.8593 21.7609C31.7443 20.5534 32.2042 19.4226 33.0092 18.6368C33.7184 17.9084 34.6959 17.4868 35.7692 17.4868H39.7559C40.8293 17.5251 41.6726 18.3876 41.6726 19.4417Z" stroke="#111111" stroke-width="2" stroke-linecap="round" stroke-linejoin="round"/>
<path d="M3.33936 19.2833V14.7166C3.33936 9.5033 6.48269 5.86163 11.3702 5.2483C11.8685 5.17163 12.386 5.1333 12.9227 5.1333H30.1727C30.671 5.1333 31.1502 5.15244 31.6102 5.22911C36.5552 5.80411 39.756 9.46497 39.756 14.7166V17.4958H35.7693C34.696 17.4958 33.7185 17.9174 33.0093 18.6458C32.2043 19.4316 31.7444 20.5625 31.8594 21.77C32.0319 23.84 33.9293 25.3541 35.9993 25.3541H39.756V28.1333C39.756 33.8833 35.9227 37.7166 30.1727 37.7166H23.181" stroke="#111111" stroke-width="2" stroke-linecap="round" stroke-linejoin="round"/>
<path d="M18.6728 30.8166C18.6728 31.4606 18.5923 32.0845 18.4313 32.6882C18.2501 33.4932 17.9282 34.2781 17.5055 34.9623C16.1169 37.2968 13.561 38.8666 10.6228 38.8666C8.54988 38.8666 6.67825 38.0817 5.2695 36.7937C4.66575 36.2704 4.14248 35.6466 3.73998 34.9623C2.99535 33.7548 2.57275 32.326 2.57275 30.8166C2.57275 28.6431 3.43814 26.6508 4.84689 25.2018C6.31601 23.6924 8.36875 22.7666 10.6228 22.7666C12.9975 22.7666 15.1509 23.793 16.5999 25.4433C17.8879 26.8721 18.6728 28.7639 18.6728 30.8166Z" fill="#4D65E1" stroke="#4D65E1" stroke-width="2" stroke-miterlimit="10" stroke-linecap="round" stroke-linejoin="round"/>
<path d="M10.7434 26.8813C10.9274 26.8813 11.0914 26.9373 11.2354 27.0493C11.3874 27.1533 11.4954 27.3373 11.5594 27.6013L12.2314 30.4573H13.4914L14.1754 27.3973C14.2234 27.1813 14.3274 27.0373 14.4874 26.9653C14.6554 26.8853 14.8274 26.8653 15.0034 26.9053C15.1954 26.9453 15.3394 27.0373 15.4354 27.1813C15.5394 27.3253 15.5634 27.5093 15.5074 27.7333L14.8234 30.4573H15.7834C15.9034 30.4573 15.9914 30.5013 16.0474 30.5893C16.1034 30.6693 16.1314 30.7693 16.1314 30.8893C16.1314 31.0013 16.1034 31.1013 16.0474 31.1893C15.9914 31.2693 15.9034 31.3093 15.7834 31.3093H14.6194L13.7434 34.8373C13.6794 35.1013 13.5674 35.2893 13.4074 35.4013C13.2554 35.5053 13.0954 35.5573 12.9274 35.5573C12.7594 35.5573 12.5954 35.5053 12.4354 35.4013C12.2834 35.2893 12.1754 35.0933 12.1114 34.8133L11.2954 31.3093H10.1434L9.25543 34.8373C9.19143 35.1013 9.07943 35.2893 8.91943 35.4013C8.75943 35.5053 8.59543 35.5573 8.42743 35.5573C8.25943 35.5573 8.09543 35.5053 7.93543 35.4013C7.78343 35.2893 7.67543 35.0973 7.61143 34.8253L6.73543 31.3093H5.55943C5.43943 31.3093 5.35143 31.2693 5.29543 31.1893C5.23943 31.1013 5.21143 31.0013 5.21143 30.8893C5.21143 30.7693 5.23943 30.6693 5.29543 30.5893C5.35143 30.5013 5.43943 30.4573 5.55943 30.4573H6.53143L5.85943 27.7333C5.80343 27.5093 5.82343 27.3253 5.91943 27.1813C6.02343 27.0373 6.17543 26.9453 6.37543 26.9053C6.55943 26.8653 6.73143 26.8813 6.89143 26.9533C7.05143 27.0173 7.15943 27.1653 7.21543 27.3973L7.89943 30.4573H9.20743L9.92743 27.6013C9.99143 27.3373 10.0914 27.1533 10.2274 27.0493C10.3714 26.9373 10.5434 26.8813 10.7434 26.8813ZM8.51143 33.2053L8.99143 31.3093H8.09143L8.51143 33.2053ZM12.8794 33.1933L13.2994 31.3093H12.4354L12.8794 33.1933ZM10.3594 30.4573H11.0914L10.7434 28.9453L10.3594 30.4573Z" fill="white"/>
</svg>
