<svg width="44" height="44" viewBox="0 0 44 44" fill="none" xmlns="http://www.w3.org/2000/svg">
<path d="M19.2505 20.625C23.8068 20.625 27.5005 16.9314 27.5005 12.375C27.5005 7.81865 23.8068 4.125 19.2505 4.125C14.6941 4.125 11.0005 7.81865 11.0005 12.375C11.0005 16.9314 14.6941 20.625 19.2505 20.625Z" stroke="#111111" stroke-width="2" stroke-linecap="round" stroke-linejoin="round"/>
<path d="M33.4362 26.8987L25.8238 34.5093C25.5227 34.8102 25.2432 35.3691 25.1787 35.7776L24.7701 38.6799C24.6196 39.7333 25.3507 40.4643 26.4044 40.3138L29.3074 39.9053C29.716 39.8408 30.2966 39.5614 30.5762 39.2604L38.1885 31.6499C39.5002 30.3385 40.1238 28.812 38.1885 26.8772C36.2746 24.9638 34.7479 25.5873 33.4362 26.8987Z" fill="#29C78E" stroke="white" stroke-width="1.5" stroke-miterlimit="10" stroke-linecap="round" stroke-linejoin="round"/>
<path d="M32.0015 28.6353C32.5659 30.6669 34.1464 32.247 36.1785 32.8113L32.0015 28.6353Z" fill="#62D491"/>
<path d="M32.0015 28.6353C32.5659 30.6669 34.1464 32.247 36.1785 32.8113" stroke="white" stroke-width="1.5" stroke-miterlimit="10" stroke-linecap="round" stroke-linejoin="round"/>
<path d="M5.50049 38.9583C5.50049 31.8633 12.2169 26.125 20.486 26.125C22.3003 26.125 24.0447 26.4 25.6672 26.9133" stroke="#111111" stroke-width="2" stroke-linecap="round" stroke-linejoin="round"/>
</svg>
