<svg width="44" height="44" viewBox="0 0 44 44" fill="none" xmlns="http://www.w3.org/2000/svg">
<rect x="2.37598" y="9.25" width="39.25" height="25.2406" rx="4" stroke="#111111" stroke-width="2"/>
<path d="M1.77783 15.7986H42.3958" stroke="#111111" stroke-width="2" stroke-miterlimit="10"/>
<path d="M37.737 26.1251C37.737 27.8954 36.299 29.3334 34.5286 29.3334C32.7583 29.3334 31.3203 27.8954 31.3203 26.1251C31.3203 24.3548 32.7583 22.9167 34.5286 22.9167C36.299 22.9167 37.737 24.3548 37.737 26.1251Z" fill="#29C78E"/>
<path d="M32.237 26.1251C32.237 27.8954 30.799 29.3334 29.0286 29.3334C27.2583 29.3334 25.8203 27.8954 25.8203 26.1251C25.8203 24.3548 27.2583 22.9167 29.0286 22.9167C30.799 22.9167 32.237 24.3548 32.237 26.1251Z" fill="#29C78E"/>
</svg>
