<svg width="44" height="44" viewBox="0 0 44 44" fill="none" xmlns="http://www.w3.org/2000/svg">
<path d="M37.5832 20.7167V12.9068C37.5832 5.51843 35.8598 3.66675 28.9298 3.66675H15.0698C8.13984 3.66675 6.4165 5.51843 6.4165 12.9068V33.5501C6.4165 38.4267 9.09319 39.5817 12.3382 36.0984L12.3565 36.0801C13.8598 34.4851 16.1515 34.6134 17.4532 36.3551L19.3048 38.8301" stroke="#111111" stroke-width="2" stroke-linecap="round" stroke-linejoin="round"/>
<path d="M14.6665 12.8333H29.3332" stroke="#111111" stroke-width="2" stroke-linecap="round" stroke-linejoin="round"/>
<path d="M16.5 20.1667H27.5" stroke="#111111" stroke-width="2" stroke-linecap="round" stroke-linejoin="round"/>
<path d="M33.7364 26.3296L26.1241 33.9419C25.8231 34.243 25.5435 34.8021 25.479 35.2106L25.0704 38.1136C24.9199 39.1673 25.651 39.8985 26.7047 39.7479L29.6077 39.3394C30.0163 39.2749 30.5969 38.9953 30.8764 38.6942L38.4888 31.082C39.8005 29.7702 40.4241 28.2435 38.4888 26.3081C36.5749 24.3943 35.0481 25.0179 33.7364 26.3296Z" fill="#29C78E" stroke="white" stroke-width="1.5" stroke-miterlimit="10" stroke-linecap="round" stroke-linejoin="round"/>
<path d="M32.6348 27.4263C33.2799 29.7487 35.0862 31.555 37.4086 32.2001" stroke="white" stroke-width="1.5" stroke-miterlimit="10" stroke-linecap="round" stroke-linejoin="round"/>
</svg>
