<svg width="44" height="44" viewBox="0 0 44 44" fill="none" xmlns="http://www.w3.org/2000/svg">
<path d="M23.1084 40.4905H20.04H14.9716C13.3304 40.4905 12 39.1601 12 37.5189V18.0199C12 16.3788 13.3304 15.0483 14.9716 15.0483H25.1084C26.7496 15.0483 28.08 16.3788 28.08 18.0199V20.7694" stroke="#111111" stroke-width="2" stroke-linecap="round" stroke-linejoin="bevel"/>
<path d="M26.0566 10.2136H14.0234C12.9059 10.2136 12 11.1195 12 12.237V13.025C12 14.1424 12.9059 15.0483 14.0234 15.0483H26.0566C27.1741 15.0483 28.08 14.1424 28.08 13.025V12.237C28.08 11.1195 27.1741 10.2136 26.0566 10.2136Z" stroke="#111111" stroke-width="2" stroke-linejoin="bevel"/>
<path d="M23.0115 4.97159C23.0115 3.32887 21.6827 2 20.04 2C18.3972 2 17.0684 3.32887 17.0684 4.97159C17.0684 5.85973 17.4623 6.64771 18.0834 7.1886V10.2203H22.0032V7.1886C22.6176 6.64103 23.0182 5.85973 23.0182 4.97159H23.0115Z" stroke="#111111" stroke-width="2" stroke-linejoin="bevel"/>
<path d="M12 22.3269H17.0684" stroke="#111111" stroke-width="2" stroke-linecap="round" stroke-linejoin="round"/>
<path d="M12 33.5588H17.0684" stroke="#111111" stroke-width="2" stroke-linecap="round" stroke-linejoin="round"/>
<path d="M12 27.9431H17.0684" stroke="#111111" stroke-width="2" stroke-linecap="round" stroke-linejoin="round"/>
<path d="M39.6 32.383C39.6 33.027 39.5195 33.6509 39.3585 34.2546C39.1774 35.0596 38.8554 35.8445 38.4328 36.5288C37.0442 38.8633 34.4883 40.433 31.55 40.433C29.4771 40.433 27.6055 39.6481 26.1967 38.3601C25.593 37.8368 25.0697 37.213 24.6672 36.5288C23.9226 35.3213 23.5 33.8924 23.5 32.383C23.5 30.2095 24.3654 28.2172 25.7741 26.7682C27.2433 25.2588 29.296 24.333 31.55 24.333C33.9248 24.333 36.0781 25.3594 37.5271 27.0097C38.8151 28.4385 39.6 30.3303 39.6 32.383Z" fill="#29C78E" stroke="#29C78E" stroke-width="2" stroke-miterlimit="10" stroke-linecap="round" stroke-linejoin="round"/>
<path d="M31.6707 28.4478C31.8547 28.4478 32.0187 28.5038 32.1627 28.6158C32.3147 28.7198 32.4227 28.9038 32.4867 29.1678L33.1587 32.0238H34.4187L35.1027 28.9638C35.1507 28.7478 35.2547 28.6038 35.4147 28.5318C35.5827 28.4518 35.7547 28.4318 35.9307 28.4718C36.1227 28.5118 36.2667 28.6038 36.3627 28.7478C36.4667 28.8918 36.4907 29.0758 36.4347 29.2998L35.7507 32.0238H36.7107C36.8307 32.0238 36.9187 32.0678 36.9747 32.1558C37.0307 32.2358 37.0587 32.3358 37.0587 32.4558C37.0587 32.5678 37.0307 32.6678 36.9747 32.7558C36.9187 32.8358 36.8307 32.8758 36.7107 32.8758H35.5467L34.6707 36.4038C34.6067 36.6678 34.4947 36.8558 34.3347 36.9678C34.1827 37.0718 34.0227 37.1238 33.8547 37.1238C33.6867 37.1238 33.5227 37.0718 33.3627 36.9678C33.2107 36.8558 33.1027 36.6598 33.0387 36.3798L32.2227 32.8758H31.0707L30.1827 36.4038C30.1187 36.6678 30.0067 36.8558 29.8467 36.9678C29.6867 37.0718 29.5227 37.1238 29.3547 37.1238C29.1867 37.1238 29.0227 37.0718 28.8627 36.9678C28.7107 36.8558 28.6027 36.6638 28.5387 36.3918L27.6627 32.8758H26.4867C26.3667 32.8758 26.2787 32.8358 26.2227 32.7558C26.1667 32.6678 26.1387 32.5678 26.1387 32.4558C26.1387 32.3358 26.1667 32.2358 26.2227 32.1558C26.2787 32.0678 26.3667 32.0238 26.4867 32.0238H27.4587L26.7867 29.2998C26.7307 29.0758 26.7507 28.8918 26.8467 28.7478C26.9507 28.6038 27.1027 28.5118 27.3027 28.4718C27.4867 28.4318 27.6587 28.4478 27.8187 28.5198C27.9787 28.5838 28.0867 28.7318 28.1427 28.9638L28.8267 32.0238H30.1347L30.8547 29.1678C30.9187 28.9038 31.0187 28.7198 31.1547 28.6158C31.2987 28.5038 31.4707 28.4478 31.6707 28.4478ZM29.4387 34.7718L29.9187 32.8758H29.0187L29.4387 34.7718ZM33.8067 34.7598L34.2267 32.8758H33.3627L33.8067 34.7598ZM31.2867 32.0238H32.0187L31.6707 30.5118L31.2867 32.0238Z" fill="white"/>
</svg>
