<svg width="44" height="44" viewBox="0 0 44 44" fill="none" xmlns="http://www.w3.org/2000/svg">
<path d="M13.0879 10.3952C13.0879 5.66649 17.1515 1.83325 22.1598 1.83325C27.1682 1.83325 31.2318 5.66649 31.2318 10.3952" stroke="#111111" stroke-width="2" stroke-miterlimit="10"/>
<path d="M37.9772 24.4605H6.33203C4.6558 24.4605 3.18275 23.7563 2.30908 22.6797V33.8676C2.30908 36.2319 4.23928 38.1435 6.62664 38.1435H37.7029C40.0902 38.1435 42.0204 36.2319 42.0204 33.8676V22.6697C41.1468 23.7563 39.6636 24.4706 37.9873 24.4706L37.9772 24.4605Z" stroke="#111111" stroke-width="2" stroke-miterlimit="10"/>
<path d="M42.0107 22.6595C42.5288 22.0156 42.8336 21.2308 42.8336 20.3857V13.665C42.8336 13.665 43.1891 10.2141 38.8614 9.60034H5.81434C5.81434 9.60034 2.00473 9.75126 1.48663 13.3128L1.46631 20.3958C1.46631 21.2409 1.77108 22.0257 2.29934 22.6796" stroke="#111111" stroke-width="2" stroke-miterlimit="10"/>
<path d="M22.1599 32.2861C26.2617 32.2861 29.5869 28.9609 29.5869 24.8591C29.5869 20.7573 26.2617 17.4321 22.1599 17.4321C18.0581 17.4321 14.7329 20.7573 14.7329 24.8591C14.7329 28.9609 18.0581 32.2861 22.1599 32.2861Z" fill="#4D65E1"/>
<path d="M22.1597 22.354V27.6655" stroke="white" stroke-width="2" stroke-linecap="round" stroke-linejoin="round"/>
<path d="M24.8478 25.0039H19.4727" stroke="white" stroke-width="2" stroke-linecap="round" stroke-linejoin="round"/>
</svg>
