<svg width="44" height="44" viewBox="0 0 44 44" fill="none" xmlns="http://www.w3.org/2000/svg">
<path d="M15.5966 9.61292C13.5775 7.76491 14.8849 4.3999 17.6221 4.3999H26.3797C29.1169 4.3999 30.4243 7.76491 28.4052 9.61292L26.8898 10.9999H17.112L15.5966 9.61292Z" stroke="#111111" stroke-width="2"/>
<path d="M4.40088 28.7294C4.40088 20.1527 11.3536 13.2 19.9303 13.2H24.0715C32.6481 13.2 39.6009 20.1527 39.6009 28.7294V28.7294C39.6009 34.733 34.734 39.6 28.7303 39.6H15.2715C9.26781 39.6 4.40088 34.733 4.40088 28.7294V28.7294Z" stroke="#111111" stroke-width="2"/>
<rect x="16.5" y="9.8999" width="11" height="3.3" rx="1.65" fill="#F5F5F5" stroke="#111111" stroke-width="2"/>
<path d="M22.1088 21.0833C22.3868 21.0833 22.6346 21.1661 22.8522 21.3318C23.0819 21.4856 23.2451 21.7578 23.3418 22.1483L24.3571 26.3728H26.261L27.2945 21.8465C27.367 21.527 27.5242 21.314 27.7659 21.2075C28.0198 21.0892 28.2797 21.0596 28.5456 21.1188C28.8357 21.1779 29.0533 21.314 29.1984 21.527C29.3555 21.74 29.3918 22.0122 29.3071 22.3435L28.2736 26.3728H29.7242C29.9055 26.3728 30.0385 26.4379 30.1231 26.568C30.2077 26.6864 30.25 26.8343 30.25 27.0118C30.25 27.1775 30.2077 27.3254 30.1231 27.4555C30.0385 27.5739 29.9055 27.633 29.7242 27.633H27.9654L26.6418 32.8516C26.5451 33.2421 26.3758 33.5202 26.1341 33.6858C25.9044 33.8397 25.6626 33.9166 25.4088 33.9166C25.1549 33.9166 24.9071 33.8397 24.6654 33.6858C24.4357 33.5202 24.2725 33.2302 24.1758 32.8161L22.9429 27.633H21.2022L19.8604 32.8516C19.7637 33.2421 19.5945 33.5202 19.3527 33.6858C19.111 33.8397 18.8632 33.9166 18.6093 33.9166C18.3555 33.9166 18.1077 33.8397 17.8659 33.6858C17.6363 33.5202 17.4731 33.2362 17.3764 32.8338L16.0527 27.633H14.2758C14.0945 27.633 13.9615 27.5739 13.8769 27.4555C13.7923 27.3254 13.75 27.1775 13.75 27.0118C13.75 26.8343 13.7923 26.6864 13.8769 26.568C13.9615 26.4379 14.0945 26.3728 14.2758 26.3728H15.7445L14.7291 22.3435C14.6445 22.0122 14.6747 21.74 14.8198 21.527C14.9769 21.314 15.2066 21.1779 15.5088 21.1188C15.7868 21.0596 16.0467 21.0833 16.2885 21.1898C16.5302 21.2844 16.6934 21.5033 16.778 21.8465L17.8115 26.3728H19.7879L20.8758 22.1483C20.9725 21.7578 21.1236 21.4856 21.3291 21.3318C21.5467 21.1661 21.8066 21.0833 22.1088 21.0833ZM18.7363 30.4376L19.4615 27.633H18.1016L18.7363 30.4376ZM25.3363 30.4198L25.9709 27.633H24.6654L25.3363 30.4198ZM21.5286 26.3728H22.6346L22.1088 24.1363L21.5286 26.3728Z" fill="#29C78E"/>
</svg>
