<svg width="45" height="44" viewBox="0 0 45 44" fill="none" xmlns="http://www.w3.org/2000/svg">
<path d="M28.9267 21.0529C32.4297 21.0529 35.2695 18.2132 35.2695 14.7102C35.2695 11.2072 32.4297 8.36743 28.9267 8.36743C25.4237 8.36743 22.584 11.2072 22.584 14.7102C22.584 18.2132 25.4237 21.0529 28.9267 21.0529Z" stroke="#111111" stroke-width="2" stroke-linecap="round" stroke-linejoin="round"/>
<path d="M12.561 21.0536C16.064 21.0536 18.9037 18.2139 18.9037 14.7109C18.9037 11.2079 16.064 8.36816 12.561 8.36816C9.058 8.36816 6.21826 11.2079 6.21826 14.7109C6.21826 18.2139 9.058 21.0536 12.561 21.0536Z" stroke="#111111" stroke-width="2" stroke-linecap="round" stroke-linejoin="round"/>
<path d="M35.4446 26.044C33.6099 24.8655 31.5272 24.2 29.3195 24.2C26.1714 24.2 23.7943 24.8694 21.5112 27.1333" stroke="#111111" stroke-width="2" stroke-linecap="round"/>
<path d="M24.433 36.3437C24.433 29.8766 19.1904 24.634 12.7234 24.634C6.25627 24.634 1.01367 29.8766 1.01367 36.3437" stroke="#111111" stroke-width="2" stroke-linecap="round"/>
<path d="M43.2464 32.7468C43.2464 33.2545 43.183 33.7464 43.056 34.2224C42.9132 34.8571 42.6594 35.4759 42.3262 36.0154C41.2313 37.856 39.2162 39.0936 36.8996 39.0936C35.2653 39.0936 33.7896 38.4747 32.6789 37.4592C32.2029 37.0467 31.7903 36.5549 31.473 36.0154C30.8859 35.0634 30.5527 33.9368 30.5527 32.7468C30.5527 31.0331 31.235 29.4623 32.3457 28.3199C33.504 27.1298 35.1225 26.3999 36.8996 26.3999C38.7719 26.3999 40.4697 27.2092 41.6121 28.5103C42.6276 29.6368 43.2464 31.1283 43.2464 32.7468Z" fill="#4D65E1" stroke="#4D65E1" stroke-width="2" stroke-miterlimit="10" stroke-linecap="round" stroke-linejoin="round"/>
<path d="M34.4239 33.2633L36.1166 34.9289C36.3403 35.1491 36.7092 35.111 36.8833 34.8499L39.3685 31.1225" stroke="white" stroke-width="2" stroke-linecap="round"/>
</svg>
