<svg width="44" height="44" viewBox="0 0 44 44" fill="none" xmlns="http://www.w3.org/2000/svg">
<g clip-path="url(#clip0_184_7625)">
<path d="M37.34 20.7131V12.9031C37.34 5.51477 35.6167 3.66309 28.6867 3.66309H14.8267C7.89668 3.66309 6.17334 5.51477 6.17334 12.9031V33.5464C6.17334 38.4231 8.85003 39.5781 12.095 36.0948L12.1133 36.0764C13.6167 34.4814 15.9083 34.6097 17.21 36.3514L19.0617 38.8264" stroke="#111111" stroke-width="2" stroke-linecap="round" stroke-linejoin="round"/>
<path d="M14.4233 12.8369H29.09" stroke="#111111" stroke-width="2" stroke-linecap="round" stroke-linejoin="round"/>
<path d="M16.2559 20.1631H27.2559" stroke="#111111" stroke-width="2" stroke-linecap="round" stroke-linejoin="round"/>
<path d="M38.8057 33C38.8057 33.55 38.7369 34.0828 38.5994 34.5984C38.4447 35.2859 38.1698 35.9562 37.8088 36.5406C36.6229 38.5344 34.44 39.875 31.9307 39.875C30.1604 39.875 28.5619 39.2046 27.3588 38.1046C26.8432 37.6578 26.3963 37.125 26.0525 36.5406C25.4166 35.5094 25.0557 34.2891 25.0557 33C25.0557 31.1438 25.7947 29.4422 26.9979 28.2047C28.2525 26.9157 30.0057 26.125 31.9307 26.125C33.9588 26.125 35.7979 27.0016 37.0354 28.411C38.1354 29.6313 38.8057 31.2469 38.8057 33Z" fill="#4D65E1" stroke="#4D65E1" stroke-width="2" stroke-miterlimit="10" stroke-linecap="round" stroke-linejoin="round"/>
<path d="M29.2485 33.5583L31.1179 35.3977C31.3416 35.6179 31.7105 35.5799 31.8846 35.3187L34.6046 31.2393" stroke="white" stroke-width="2" stroke-linecap="round"/>
</g>
<defs>
<clipPath id="clip0_184_7625">
<rect width="44" height="44" fill="white" transform="translate(0.000976562)"/>
</clipPath>
</defs>
</svg>
