<svg width="61" height="60" viewBox="0 0 61 60" fill="none" xmlns="http://www.w3.org/2000/svg">
<rect x="0.666992" width="60" height="60" rx="30" fill="white"/>
<rect x="16.751" y="21.3916" width="27.5" height="17.6509" rx="4.25" stroke="#333333" stroke-width="1.5"/>
<path d="M16.2832 25.9485H44.8388" stroke="#333333" stroke-width="1.5" stroke-miterlimit="10"/>
<path d="M41.3337 33.2684C41.3337 34.3548 40.4513 35.2373 39.3649 35.2373C38.2785 35.2373 37.396 34.3548 37.396 33.2684C37.396 32.182 38.2785 31.2996 39.3649 31.2996C40.4513 31.2996 41.3337 32.182 41.3337 33.2684Z" fill="#62D491"/>
<path d="M37.3962 33.2684C37.3962 34.3548 36.5138 35.2373 35.4274 35.2373C34.341 35.2373 33.4585 34.3548 33.4585 33.2684C33.4585 32.182 34.341 31.2996 35.4274 31.2996C36.5138 31.2996 37.3962 32.182 37.3962 33.2684Z" fill="#DDDDDD"/>
</svg>
