<svg width="73" height="72" viewBox="0 0 73 72" fill="none" xmlns="http://www.w3.org/2000/svg">
<rect x="0.666504" width="72" height="72" rx="36" fill="white"/>
<path d="M28 30.8708C31.866 30.8708 35 27.7368 35 23.8708C35 20.0049 31.866 16.8708 28 16.8708C24.134 16.8708 21 20.0049 21 23.8708C21 27.7368 24.134 30.8708 28 30.8708Z" stroke="#111111" stroke-width="2" stroke-miterlimit="10"/>
<path d="M34.8842 40.1104C34.8541 40.1104 34.824 40.0176 34.7969 40.0176C34.2703 36.578 31.4387 33.9031 27.9421 33.9031C24.0663 33.9031 21 37.0888 21 41.0764V54.1289H47.6129C47.6129 46.389 41.9136 40.1104 34.8842 40.1104Z" stroke="#111111" stroke-width="2" stroke-miterlimit="10" stroke-linejoin="round"/>
<path d="M51.572 27.0129C48.6889 27.0129 47.9872 30.2168 47.9872 30.2168C47.9872 30.2168 46.7657 27 44.495 27C41.506 27 40.6884 30.0169 41.0989 32.2699C41.1717 32.6761 41.314 33.0725 41.506 33.4593L41.7112 33.8332C43.4523 36.7792 47.9938 39 47.9938 39C47.9938 39 52.7967 36.7276 54.4286 33.6914L54.6106 33.3175C54.7596 32.9758 54.8688 32.6277 54.9218 32.2699C55.2561 30.0846 54.5875 27.0129 51.572 27.0129Z" fill="#29C78E"/>
</svg>
