<svg width="61" height="60" viewBox="0 0 61 60" fill="none" xmlns="http://www.w3.org/2000/svg">
<rect x="0.333496" width="60" height="60" rx="30" fill="white"/>
<path d="M31.0005 29C34.3142 29 37.0005 26.3137 37.0005 23C37.0005 19.6863 34.3142 17 31.0005 17C27.6868 17 25.0005 19.6863 25.0005 23C25.0005 26.3137 27.6868 29 31.0005 29Z" stroke="#333333" stroke-width="1.5" stroke-linecap="round" stroke-linejoin="round"/>
<path d="M40.9721 34.1277L36.1278 38.9708C35.9363 39.1623 35.7584 39.518 35.7173 39.7779L35.4573 41.6248C35.3615 42.2952 35.8268 42.7604 36.4973 42.6646L38.3447 42.4046C38.6047 42.3636 38.9742 42.1858 39.1521 41.9942L43.9963 37.1512C44.831 36.3167 45.2279 35.3453 43.9963 34.114C42.7784 32.8964 41.8068 33.2932 40.9721 34.1277Z" fill="#62D491" stroke="white" stroke-width="1.5" stroke-miterlimit="10" stroke-linecap="round" stroke-linejoin="round"/>
<path d="M40.2749 34.8254C40.6854 36.303 41.8349 37.4521 43.3128 37.8626L40.2749 34.8254Z" fill="#62D491"/>
<path d="M40.2749 34.8254C40.6854 36.303 41.8349 37.4521 43.3128 37.8626" stroke="white" stroke-width="1.5" stroke-miterlimit="10" stroke-linecap="round" stroke-linejoin="round"/>
<path d="M21.0005 42.3333C21.0005 37.1733 25.8852 33 31.899 33C33.2185 33 34.4872 33.2 35.6672 33.5733" stroke="#333333" stroke-width="1.5" stroke-linecap="round" stroke-linejoin="round"/>
</svg>
