<svg width="61" height="60" viewBox="0 0 61 60" fill="none" xmlns="http://www.w3.org/2000/svg">
<rect x="0.333496" width="60" height="60" rx="30" fill="white"/>
<path d="M35.0377 29.3113C37.5853 29.3113 39.6506 27.246 39.6506 24.6984C39.6506 22.1507 37.5853 20.0854 35.0377 20.0854C32.4901 20.0854 30.4248 22.1507 30.4248 24.6984C30.4248 27.246 32.4901 29.3113 35.0377 29.3113Z" stroke="#333333" stroke-width="1.5" stroke-linecap="round" stroke-linejoin="round"/>
<path d="M23.1354 29.3117C25.683 29.3117 27.7483 27.2465 27.7483 24.6988C27.7483 22.1512 25.683 20.0859 23.1354 20.0859C20.5877 20.0859 18.5225 22.1512 18.5225 24.6988C18.5225 27.2465 20.5877 29.3117 23.1354 29.3117Z" fill="#F5F5F5" stroke="#333333" stroke-width="1.5" stroke-linecap="round" stroke-linejoin="round"/>
<path d="M39.7779 32.9412C38.4436 32.0841 36.9289 31.6001 35.3232 31.6001C33.0337 31.6001 31.305 32.087 29.6445 33.7334" stroke="#333333" stroke-width="1.5" stroke-linecap="round"/>
<path d="M31.7696 40.4319C31.7696 35.7286 27.9568 31.9158 23.2534 31.9158C18.5501 31.9158 14.7373 35.7286 14.7373 40.4319" stroke="#333333" stroke-width="1.5" stroke-linecap="round"/>
<path d="M45.452 37.8158C45.452 38.1851 45.4058 38.5428 45.3135 38.889C45.2097 39.3506 45.025 39.8007 44.7827 40.193C43.9865 41.5316 42.5209 42.4317 40.8361 42.4317C39.6475 42.4317 38.5743 41.9817 37.7665 41.2431C37.4203 40.9431 37.1203 40.5854 36.8895 40.193C36.4625 39.5006 36.2202 38.6813 36.2202 37.8158C36.2202 36.5696 36.7164 35.4271 37.5242 34.5963C38.3666 33.7308 39.5437 33.2 40.8361 33.2C42.1978 33.2 43.4325 33.7885 44.2634 34.7348C45.002 35.5541 45.452 36.6388 45.452 37.8158Z" fill="#4D65E1" stroke="#4D65E1" stroke-width="1.5" stroke-miterlimit="10" stroke-linecap="round" stroke-linejoin="round"/>
<path d="M39.0355 38.1916L40.149 39.2872C40.3727 39.5074 40.7415 39.4693 40.9157 39.2082L42.6316 36.6346" stroke="white" stroke-width="1.5" stroke-linecap="round"/>
</svg>
