<svg width="60" height="60" viewBox="0 0 60 60" fill="none" xmlns="http://www.w3.org/2000/svg">
<rect width="60" height="60" rx="30" fill="white"/>
<path d="M26.4446 22C24.5855 20.2984 25.7893 17.2 28.3096 17.2H31.6907C34.211 17.2 35.4149 20.2984 33.5558 22V22H26.4446V22Z" stroke="#333333" stroke-width="1.5"/>
<path d="M17.2002 34.8942C17.2002 28.6566 22.2567 23.6001 28.4943 23.6001H31.5061C37.7436 23.6001 42.8002 28.6566 42.8002 34.8942V34.8942C42.8002 39.2605 39.2606 42.8001 34.8943 42.8001H25.1061C20.7398 42.8001 17.2002 39.2605 17.2002 34.8942V34.8942Z" stroke="#333333" stroke-width="1.5"/>
<rect x="26" y="21.2" width="8" height="2.4" rx="1.2" fill="#F8F8F8" stroke="#333333" stroke-width="1.5"/>
<path d="M30.4712 29C30.6532 29 30.8154 29.0581 30.9578 29.1743C31.1081 29.2822 31.2149 29.473 31.2782 29.7469L31.9429 32.7095H33.189L33.8655 29.5353C33.913 29.3112 34.0158 29.1618 34.1741 29.0871C34.3402 29.0041 34.5103 28.9834 34.6844 29.0249C34.8743 29.0664 35.0167 29.1618 35.1116 29.3112C35.2145 29.4606 35.2382 29.6515 35.1829 29.8838L34.5064 32.7095H35.4558C35.5745 32.7095 35.6615 32.7552 35.7169 32.8465C35.7723 32.9295 35.8 33.0332 35.8 33.1577C35.8 33.2739 35.7723 33.3776 35.7169 33.4689C35.6615 33.5519 35.5745 33.5934 35.4558 33.5934H34.3046L33.4382 37.2531C33.3749 37.527 33.2642 37.722 33.1059 37.8382C32.9556 37.9461 32.7974 38 32.6312 38C32.4651 38 32.3029 37.9461 32.1446 37.8382C31.9943 37.722 31.8875 37.5187 31.8242 37.2282L31.0171 33.5934H29.8778L28.9996 37.2531C28.9363 37.527 28.8255 37.722 28.6673 37.8382C28.509 37.9461 28.3468 38 28.1807 38C28.0145 38 27.8523 37.9461 27.6941 37.8382C27.5437 37.722 27.4369 37.5228 27.3736 37.2407L26.5073 33.5934H25.3442C25.2255 33.5934 25.1385 33.5519 25.0831 33.4689C25.0277 33.3776 25 33.2739 25 33.1577C25 33.0332 25.0277 32.9295 25.0831 32.8465C25.1385 32.7552 25.2255 32.7095 25.3442 32.7095H26.3055L25.6409 29.8838C25.5855 29.6515 25.6053 29.4606 25.7002 29.3112C25.8031 29.1618 25.9534 29.0664 26.1512 29.0249C26.3332 28.9834 26.5033 29 26.6615 29.0747C26.8198 29.1411 26.9266 29.2946 26.982 29.5353L27.6585 32.7095H28.9521L29.6642 29.7469C29.7275 29.473 29.8264 29.2822 29.9609 29.1743C30.1033 29.0581 30.2734 29 30.4712 29ZM28.2637 35.5602L28.7385 33.5934H27.8484L28.2637 35.5602ZM32.5837 35.5477L32.9991 33.5934H32.1446L32.5837 35.5477ZM30.0914 32.7095H30.8154L30.4712 31.1411L30.0914 32.7095Z" fill="#62D491"/>
</svg>
