<svg width="61" height="60" viewBox="0 0 61 60" fill="none" xmlns="http://www.w3.org/2000/svg">
<rect x="0.666992" width="60" height="60" rx="30" fill="white"/>
<path d="M45.3079 28.1395V31.0111C45.3079 31.7778 44.6946 32.405 43.9139 32.4329H41.1818C39.6763 32.4329 38.2964 31.3317 38.1709 29.8262C38.0873 28.948 38.4218 28.1256 39.0073 27.5541C39.523 27.0244 40.2339 26.7178 41.0145 26.7178H43.9139C44.6946 26.7457 45.3079 27.3729 45.3079 28.1395Z" stroke="#333333" stroke-width="1.5" stroke-linecap="round" stroke-linejoin="round"/>
<path d="M17.4292 28.0243V24.7031C17.4292 20.9116 19.7153 18.2631 23.2698 17.817C23.6322 17.7613 24.0086 17.7334 24.3989 17.7334H36.9444C37.3068 17.7334 37.6553 17.7473 37.9898 17.8031C41.5862 18.2213 43.9141 20.8837 43.9141 24.7031V26.7243H41.0146C40.234 26.7243 39.5231 27.031 39.0074 27.5607C38.4219 28.1322 38.0874 28.9546 38.171 29.8328C38.2965 31.3382 39.6764 32.4394 41.1819 32.4394H43.9141V34.4607C43.9141 38.6425 41.1262 41.4304 36.9444 41.4304H31.8595" stroke="#333333" stroke-width="1.5" stroke-linecap="round" stroke-linejoin="round"/>
<path d="M28.5807 36.4122C28.5807 36.8805 28.5221 37.3342 28.405 37.7733C28.2733 38.3588 28.0391 38.9296 27.7318 39.4272C26.7219 41.1251 24.863 42.2667 22.7261 42.2667C21.2186 42.2667 19.8574 41.6958 18.8328 40.7591C18.3938 40.3786 18.0132 39.9249 17.7205 39.4272C17.1789 38.5491 16.8716 37.5099 16.8716 36.4122C16.8716 34.8314 17.501 33.3825 18.5255 32.3286C19.594 31.2309 21.0869 30.5576 22.7261 30.5576C24.4532 30.5576 26.0193 31.3041 27.0731 32.5043C28.0099 33.5435 28.5807 34.9193 28.5807 36.4122Z" fill="#4D65E1" stroke="#4D65E1" stroke-width="1.5" stroke-miterlimit="10" stroke-linecap="round" stroke-linejoin="round"/>
<path d="M22.8278 32.6691C22.9965 32.6691 23.1468 32.7204 23.2788 32.8231C23.4181 32.9184 23.5171 33.0871 23.5758 33.3291L24.1918 35.9471H25.3468L25.9738 33.1421C26.0178 32.9441 26.1131 32.8121 26.2598 32.7461C26.4138 32.6728 26.5715 32.6544 26.7328 32.6911C26.9088 32.7278 27.0408 32.8121 27.1288 32.9441C27.2241 33.0761 27.2461 33.2448 27.1948 33.4501L26.5678 35.9471H27.4478C27.5578 35.9471 27.6385 35.9874 27.6898 36.0681C27.7411 36.1414 27.7668 36.2331 27.7668 36.3431C27.7668 36.4458 27.7411 36.5374 27.6898 36.6181C27.6385 36.6914 27.5578 36.7281 27.4478 36.7281H26.3808L25.5778 39.9621C25.5191 40.2041 25.4165 40.3764 25.2698 40.4791C25.1305 40.5744 24.9838 40.6221 24.8298 40.6221C24.6758 40.6221 24.5255 40.5744 24.3788 40.4791C24.2395 40.3764 24.1405 40.1968 24.0818 39.9401L23.3338 36.7281H22.2778L21.4638 39.9621C21.4051 40.2041 21.3025 40.3764 21.1558 40.4791C21.0091 40.5744 20.8588 40.6221 20.7048 40.6221C20.5508 40.6221 20.4005 40.5744 20.2538 40.4791C20.1145 40.3764 20.0155 40.2004 19.9568 39.9511L19.1538 36.7281H18.0758C17.9658 36.7281 17.8851 36.6914 17.8338 36.6181C17.7825 36.5374 17.7568 36.4458 17.7568 36.3431C17.7568 36.2331 17.7825 36.1414 17.8338 36.0681C17.8851 35.9874 17.9658 35.9471 18.0758 35.9471H18.9668L18.3508 33.4501C18.2995 33.2448 18.3178 33.0761 18.4058 32.9441C18.5011 32.8121 18.6405 32.7278 18.8238 32.6911C18.9925 32.6544 19.1501 32.6691 19.2968 32.7351C19.4435 32.7938 19.5425 32.9294 19.5938 33.1421L20.2208 35.9471H21.4198L22.0798 33.3291C22.1385 33.0871 22.2301 32.9184 22.3548 32.8231C22.4868 32.7204 22.6445 32.6691 22.8278 32.6691ZM20.7818 38.4661L21.2218 36.7281H20.3968L20.7818 38.4661ZM24.7858 38.4551L25.1708 36.7281H24.3788L24.7858 38.4551ZM22.4758 35.9471H23.1468L22.8278 34.5611L22.4758 35.9471Z" fill="white"/>
</svg>
