<svg width="72" height="72" viewBox="0 0 72 72" fill="none" xmlns="http://www.w3.org/2000/svg">
<rect width="72" height="72" rx="36" fill="white"/>
<path d="M37.1084 54.4905H34.04H28.9716C27.3304 54.4905 26 53.1601 26 51.5189V32.0199C26 30.3788 27.3304 29.0483 28.9716 29.0483H39.1084C40.7496 29.0483 42.08 30.3788 42.08 32.0199V34.7694" stroke="#111111" stroke-width="2" stroke-linecap="round" stroke-linejoin="bevel"/>
<path d="M40.0566 24.2136H28.0234C26.9059 24.2136 26 25.1195 26 26.237V27.025C26 28.1424 26.9059 29.0483 28.0234 29.0483H40.0566C41.1741 29.0483 42.08 28.1424 42.08 27.025V26.237C42.08 25.1195 41.1741 24.2136 40.0566 24.2136Z" stroke="#111111" stroke-width="2" stroke-linejoin="bevel"/>
<path d="M37.0115 18.9716C37.0115 17.3289 35.6827 16 34.04 16C32.3972 16 31.0684 17.3289 31.0684 18.9716C31.0684 19.8597 31.4623 20.6477 32.0834 21.1886V24.2203H36.0032V21.1886C36.6176 20.641 37.0182 19.8597 37.0182 18.9716H37.0115Z" stroke="#111111" stroke-width="2" stroke-linejoin="bevel"/>
<path d="M26 36.3269H31.0684" stroke="#111111" stroke-width="2" stroke-linecap="round" stroke-linejoin="round"/>
<path d="M26 47.5588H31.0684" stroke="#111111" stroke-width="2" stroke-linecap="round" stroke-linejoin="round"/>
<path d="M26 41.9431H31.0684" stroke="#111111" stroke-width="2" stroke-linecap="round" stroke-linejoin="round"/>
<path d="M53.6 46.383C53.6 47.027 53.5195 47.6509 53.3585 48.2546C53.1774 49.0596 52.8554 49.8445 52.4328 50.5288C51.0442 52.8633 48.4883 54.433 45.55 54.433C43.4771 54.433 41.6055 53.6481 40.1967 52.3601C39.593 51.8368 39.0697 51.213 38.6672 50.5288C37.9226 49.3213 37.5 47.8924 37.5 46.383C37.5 44.2095 38.3654 42.2172 39.7741 40.7682C41.2433 39.2588 43.296 38.333 45.55 38.333C47.9248 38.333 50.0781 39.3594 51.5271 41.0097C52.8151 42.4385 53.6 44.3303 53.6 46.383Z" fill="#29C78E" stroke="#29C78E" stroke-width="2" stroke-miterlimit="10" stroke-linecap="round" stroke-linejoin="round"/>
<path d="M45.6707 42.4478C45.8547 42.4478 46.0187 42.5038 46.1627 42.6158C46.3147 42.7198 46.4227 42.9038 46.4867 43.1678L47.1587 46.0238H48.4187L49.1027 42.9638C49.1507 42.7478 49.2547 42.6038 49.4147 42.5318C49.5827 42.4518 49.7547 42.4318 49.9307 42.4718C50.1227 42.5118 50.2667 42.6038 50.3627 42.7478C50.4667 42.8918 50.4907 43.0758 50.4347 43.2998L49.7507 46.0238H50.7107C50.8307 46.0238 50.9187 46.0678 50.9747 46.1558C51.0307 46.2358 51.0587 46.3358 51.0587 46.4558C51.0587 46.5678 51.0307 46.6678 50.9747 46.7558C50.9187 46.8358 50.8307 46.8758 50.7107 46.8758H49.5467L48.6707 50.4038C48.6067 50.6678 48.4947 50.8558 48.3347 50.9678C48.1827 51.0718 48.0227 51.1238 47.8547 51.1238C47.6867 51.1238 47.5227 51.0718 47.3627 50.9678C47.2107 50.8558 47.1027 50.6598 47.0387 50.3798L46.2227 46.8758H45.0707L44.1827 50.4038C44.1187 50.6678 44.0067 50.8558 43.8467 50.9678C43.6867 51.0718 43.5227 51.1238 43.3547 51.1238C43.1867 51.1238 43.0227 51.0718 42.8627 50.9678C42.7107 50.8558 42.6027 50.6638 42.5387 50.3918L41.6627 46.8758H40.4867C40.3667 46.8758 40.2787 46.8358 40.2227 46.7558C40.1667 46.6678 40.1387 46.5678 40.1387 46.4558C40.1387 46.3358 40.1667 46.2358 40.2227 46.1558C40.2787 46.0678 40.3667 46.0238 40.4867 46.0238H41.4587L40.7867 43.2998C40.7307 43.0758 40.7507 42.8918 40.8467 42.7478C40.9507 42.6038 41.1027 42.5118 41.3027 42.4718C41.4867 42.4318 41.6587 42.4478 41.8187 42.5198C41.9787 42.5838 42.0867 42.7318 42.1427 42.9638L42.8267 46.0238H44.1347L44.8547 43.1678C44.9187 42.9038 45.0187 42.7198 45.1547 42.6158C45.2987 42.5038 45.4707 42.4478 45.6707 42.4478ZM43.4387 48.7718L43.9187 46.8758H43.0187L43.4387 48.7718ZM47.8067 48.7598L48.2267 46.8758H47.3627L47.8067 48.7598ZM45.2867 46.0238H46.0187L45.6707 44.5118L45.2867 46.0238Z" fill="white"/>
</svg>
