<svg width="60" height="60" viewBox="0 0 60 60" fill="none" xmlns="http://www.w3.org/2000/svg">
<rect width="60" height="60" rx="30" fill="white"/>
<path d="M23.5186 22.8936C23.5186 19.4546 26.4739 16.6667 30.1163 16.6667C33.7588 16.6667 36.7141 19.4546 36.7141 22.8936" stroke="#333333" stroke-width="1.5" stroke-miterlimit="10"/>
<path d="M41.6196 33.1228H18.605C17.3859 33.1228 16.3146 32.6106 15.6792 31.8276V39.9642C15.6792 41.6837 17.083 43.074 18.8192 43.074H41.4201C43.1564 43.074 44.5602 41.6837 44.5602 39.9642V31.8203C43.9248 32.6106 42.8461 33.1301 41.627 33.1301L41.6196 33.1228Z" stroke="#333333" stroke-width="1.5" stroke-miterlimit="10"/>
<path d="M44.5532 31.813C44.93 31.3447 45.1517 30.774 45.1517 30.1593V25.2715C45.1517 25.2715 45.4103 22.7618 42.2629 22.3154H18.2286C18.2286 22.3154 15.458 22.4252 15.0812 25.0154L15.0664 30.1667C15.0664 30.7813 15.2881 31.352 15.6722 31.8276" stroke="#333333" stroke-width="1.5" stroke-miterlimit="10"/>
<path d="M30.1163 38.8144C33.0994 38.8144 35.5177 36.396 35.5177 33.4129C35.5177 30.4298 33.0994 28.0115 30.1163 28.0115C27.1332 28.0115 24.7148 30.4298 24.7148 33.4129C24.7148 36.396 27.1332 38.8144 30.1163 38.8144Z" fill="#4D65E1"/>
<path d="M30.1162 31.5908V35.4537" stroke="white" stroke-width="1.5" stroke-linecap="round" stroke-linejoin="round"/>
<path d="M32.0713 33.5178H28.1621" stroke="white" stroke-width="1.5" stroke-linecap="round" stroke-linejoin="round"/>
</svg>
