<svg width="78" height="94" viewBox="0 0 78 94" fill="none" xmlns="http://www.w3.org/2000/svg">
<g opacity="0.2">
<ellipse cx="62.998" cy="3.70394" rx="3.24935" ry="3" transform="rotate(90 62.998 3.70394)" fill="#999999"/>
<ellipse cx="42.998" cy="3.70394" rx="3.24935" ry="3" transform="rotate(90 42.998 3.70394)" fill="#999999"/>
<ellipse cx="22.998" cy="3.70394" rx="3.24935" ry="3" transform="rotate(90 22.998 3.70394)" fill="#999999"/>
<ellipse cx="2.99805" cy="3.70394" rx="3.24935" ry="3" transform="rotate(90 2.99805 3.70394)" fill="#999999"/>
<ellipse cx="62.998" cy="25.366" rx="3.24935" ry="3" transform="rotate(90 62.998 25.366)" fill="#999999"/>
<ellipse cx="42.998" cy="25.366" rx="3.24935" ry="3" transform="rotate(90 42.998 25.366)" fill="#999999"/>
<ellipse cx="22.998" cy="25.366" rx="3.24935" ry="3" transform="rotate(90 22.998 25.366)" fill="#999999"/>
<ellipse cx="2.99805" cy="25.366" rx="3.24935" ry="3" transform="rotate(90 2.99805 25.366)" fill="#999999"/>
<ellipse cx="62.998" cy="47.0286" rx="3.24935" ry="3" transform="rotate(90 62.998 47.0286)" fill="#999999"/>
<ellipse cx="42.998" cy="47.0286" rx="3.24935" ry="3" transform="rotate(90 42.998 47.0286)" fill="#999999"/>
<ellipse cx="22.998" cy="47.0286" rx="3.24935" ry="3" transform="rotate(90 22.998 47.0286)" fill="#999999"/>
<ellipse cx="2.99805" cy="47.0286" rx="3.24935" ry="3" transform="rotate(90 2.99805 47.0286)" fill="#999999"/>
<ellipse cx="62.998" cy="68.6908" rx="3.24935" ry="3" transform="rotate(90 62.998 68.6908)" fill="#999999"/>
<ellipse cx="42.998" cy="68.6908" rx="3.24935" ry="3" transform="rotate(90 42.998 68.6908)" fill="#999999"/>
<ellipse cx="22.998" cy="68.6908" rx="3.24935" ry="3" transform="rotate(90 22.998 68.6908)" fill="#999999"/>
<ellipse cx="2.99805" cy="68.6908" rx="3.24935" ry="3" transform="rotate(90 2.99805 68.6908)" fill="#999999"/>
<ellipse cx="62.998" cy="90.3534" rx="3.24935" ry="3" transform="rotate(90 62.998 90.3534)" fill="#999999"/>
<ellipse cx="42.998" cy="90.3534" rx="3.24935" ry="3" transform="rotate(90 42.998 90.3534)" fill="#999999"/>
<ellipse cx="22.998" cy="90.3534" rx="3.24935" ry="3" transform="rotate(90 22.998 90.3534)" fill="#999999"/>
<ellipse cx="2.99805" cy="90.3534" rx="3.24935" ry="3" transform="rotate(90 2.99805 90.3534)" fill="#999999"/>
</g>
</svg>
