<svg width="58" height="53" viewBox="0 0 58 53" fill="none" xmlns="http://www.w3.org/2000/svg">
<g opacity="0.35">
<circle cx="2.1005" cy="2.28019" r="2.00675" fill="#999999"/>
<circle cx="15.4789" cy="2.28019" r="2.00675" fill="#999999"/>
<circle cx="28.8568" cy="2.28019" r="2.00675" fill="#999999"/>
<circle cx="42.2358" cy="2.28019" r="2.00675" fill="#999999"/>
<circle cx="55.6142" cy="2.28019" r="2.00675" fill="#999999"/>
<circle cx="2.1005" cy="15.6586" r="2.00675" fill="#999999"/>
<circle cx="15.4789" cy="15.6586" r="2.00675" fill="#999999"/>
<circle cx="28.8568" cy="15.6586" r="2.00675" fill="#999999"/>
<circle cx="42.2358" cy="15.6586" r="2.00675" fill="#999999"/>
<circle cx="55.6142" cy="15.6586" r="2.00675" fill="#999999"/>
<circle cx="2.1005" cy="29.0368" r="2.00675" fill="#999999"/>
<circle cx="15.4789" cy="29.0368" r="2.00675" fill="#999999"/>
<circle cx="28.8568" cy="29.0368" r="2.00675" fill="#999999"/>
<circle cx="42.2358" cy="29.0368" r="2.00675" fill="#999999"/>
<circle cx="55.6142" cy="29.0368" r="2.00675" fill="#999999"/>
<circle cx="2.1005" cy="42.4152" r="2.00675" fill="#999999"/>
<circle cx="15.4789" cy="42.4152" r="2.00675" fill="#999999"/>
<circle cx="28.8568" cy="42.4152" r="2.00675" fill="#999999"/>
<circle cx="42.2358" cy="42.4152" r="2.00675" fill="#999999"/>
<circle cx="55.6142" cy="42.4152" r="2.00675" fill="#999999"/>
</g>
</svg>
