<svg width="51" height="48" viewBox="0 0 51 48" fill="none" xmlns="http://www.w3.org/2000/svg">
<g opacity="0.5">
<circle cx="27.146" cy="2.57377" r="1.60893" transform="rotate(90 27.146 2.57377)" fill="#999999"/>
<circle cx="37.872" cy="2.57377" r="1.60893" transform="rotate(90 37.872 2.57377)" fill="#999999"/>
<circle cx="48.5981" cy="2.57377" r="1.60893" transform="rotate(90 48.5981 2.57377)" fill="#999999"/>
<circle cx="27.146" cy="13.2998" r="1.60893" transform="rotate(90 27.146 13.2998)" fill="#999999"/>
<circle cx="37.872" cy="13.2998" r="1.60893" transform="rotate(90 37.872 13.2998)" fill="#999999"/>
<circle cx="48.5981" cy="13.2998" r="1.60893" transform="rotate(90 48.5981 13.2998)" fill="#999999"/>
<circle cx="27.146" cy="24.0259" r="1.60893" transform="rotate(90 27.146 24.0259)" fill="#999999"/>
<circle cx="37.872" cy="24.0259" r="1.60893" transform="rotate(90 37.872 24.0259)" fill="#999999"/>
<circle cx="48.5981" cy="24.0259" r="1.60893" transform="rotate(90 48.5981 24.0259)" fill="#999999"/>
<circle cx="27.146" cy="34.7525" r="1.60893" transform="rotate(90 27.146 34.7525)" fill="#999999"/>
<circle cx="27.146" cy="45.4786" r="1.60893" transform="rotate(90 27.146 45.4786)" fill="#999999"/>
<circle cx="37.872" cy="34.7525" r="1.60893" transform="rotate(90 37.872 34.7525)" fill="#999999"/>
<circle cx="37.872" cy="45.4786" r="1.60893" transform="rotate(90 37.872 45.4786)" fill="#999999"/>
<circle cx="48.5981" cy="34.7525" r="1.60893" transform="rotate(90 48.5981 34.7525)" fill="#999999"/>
<circle cx="48.5981" cy="45.4786" r="1.60893" transform="rotate(90 48.5981 45.4786)" fill="#999999"/>
<circle cx="16.4199" cy="2.57377" r="1.60893" transform="rotate(90 16.4199 2.57377)" fill="#999999"/>
<circle cx="16.4199" cy="13.2998" r="1.60893" transform="rotate(90 16.4199 13.2998)" fill="#999999"/>
<circle cx="16.4199" cy="24.0259" r="1.60893" transform="rotate(90 16.4199 24.0259)" fill="#999999"/>
<circle cx="16.4199" cy="34.7525" r="1.60893" transform="rotate(90 16.4199 34.7525)" fill="#999999"/>
<circle cx="16.4199" cy="45.4786" r="1.60893" transform="rotate(90 16.4199 45.4786)" fill="#999999"/>
<circle cx="5.69332" cy="2.57377" r="1.60893" transform="rotate(90 5.69332 2.57377)" fill="#999999"/>
<circle cx="5.69332" cy="13.2998" r="1.60893" transform="rotate(90 5.69332 13.2998)" fill="#999999"/>
<circle cx="5.69332" cy="24.0259" r="1.60893" transform="rotate(90 5.69332 24.0259)" fill="#999999"/>
<circle cx="5.69332" cy="34.7525" r="1.60893" transform="rotate(90 5.69332 34.7525)" fill="#999999"/>
<circle cx="5.69332" cy="45.4786" r="1.60893" transform="rotate(90 5.69332 45.4786)" fill="#999999"/>
</g>
</svg>
