<svg width="107" height="125" viewBox="0 0 107 125" fill="none" xmlns="http://www.w3.org/2000/svg">
<path opacity="0.25" d="M28.1471 10.4505C26.5359 2.87009 35.5661 -2.34354 41.3253 2.84209L63.8558 23.1286C66.4314 25.4477 70.2074 25.8446 73.2089 24.1117L99.4648 8.95278C106.176 5.07789 113.925 12.0551 110.773 19.1349L98.4418 46.8315C97.0322 49.9977 97.8216 53.7115 100.397 56.0306L122.928 76.3171C128.687 81.5027 124.446 91.0285 116.738 90.2185L86.5867 87.0494C83.1399 86.6871 79.8518 88.5855 78.4421 91.7517L66.1108 119.448C62.9586 126.528 52.5885 125.438 50.9772 117.858L44.6738 88.2025C43.9532 84.8124 41.1317 82.2719 37.6849 81.9096L7.53317 78.7405C-0.174161 77.9305 -2.3421 67.731 4.36941 63.8562L30.6254 48.6973C33.6268 46.9644 35.1711 43.4958 34.4505 40.1058L28.1471 10.4505Z" fill="#FBF8A9"/>
</svg>
