<svg width="16" height="16" viewBox="0 0 16 16" fill="none" xmlns="http://www.w3.org/2000/svg">
<path d="M14.6665 11.9998L14.6665 10.3865C14.6665 9.33317 13.9998 8.6665 12.9465 8.6665L10.6665 8.6665L10.6665 13.3265C10.6665 14.0665 11.2732 14.6665 12.0132 14.6665C12.7398 14.6598 13.4065 14.3665 13.8865 13.8865C14.3665 13.3998 14.6665 12.7332 14.6665 11.9998Z" stroke="#4D65E1" stroke-width="1.5" stroke-miterlimit="10" stroke-linecap="round" stroke-linejoin="round"/>
<path d="M10.6668 13.3332L10.6668 1.33317L1.3335 1.33317L1.3335 11.3332L1.3335 11.9998C1.3335 13.4732 2.00016 14.6665 4.00016 14.6665L4.66683 14.6665L12.0002 14.6665C11.2668 14.6665 10.6668 14.0665 10.6668 13.3332Z" stroke="#4D65E1" stroke-width="1.5" stroke-miterlimit="10" stroke-linecap="round" stroke-linejoin="round"/>
<path d="M4 7.3335L8 7.3335" stroke="#4D65E1" stroke-width="1.5" stroke-linecap="round" stroke-linejoin="round"/>
<path d="M4 4.6665L8 4.6665" stroke="#4D65E1" stroke-width="1.5" stroke-linecap="round" stroke-linejoin="round"/>
<path d="M4 10L8 10" stroke="#4D65E1" stroke-width="1.5" stroke-linecap="round" stroke-linejoin="round"/>
</svg>
