<svg width="36" height="36" viewBox="0 0 36 36" fill="none" xmlns="http://www.w3.org/2000/svg">
<rect x="0.5" y="0.5" width="35" height="35" rx="17.5" fill="white"/>
<rect x="0.5" y="0.5" width="35" height="35" rx="17.5" stroke="#DDDDDD"/>
<path fill-rule="evenodd" clip-rule="evenodd" d="M25.0323 12.103C25.8065 12.3251 26.417 12.9783 26.6236 13.8079C27 15.3125 27 18.4502 27 18.4502C27 18.4502 27 21.5889 26.6236 23.0925C26.417 23.9221 25.8065 24.5753 25.0323 24.7974C23.6291 25.2002 18 25.2002 18 25.2002C18 25.2002 12.3719 25.2002 10.9677 24.7974C10.1935 24.5753 9.58295 23.9221 9.37636 23.0925C9 21.5879 9 18.4502 9 18.4502C9 18.4502 9 15.3125 9.37636 13.8079C9.58295 12.9783 10.1935 12.3251 10.9677 12.103C12.3709 11.7002 18 11.7002 18 11.7002C18 11.7002 23.6291 11.7002 25.0323 12.103ZM20.7 18.4502L16.2 20.7002V16.2002L20.7 18.4502Z" fill="#111111"/>
</svg>
