<svg width="36" height="36" viewBox="0 0 36 36" fill="none" xmlns="http://www.w3.org/2000/svg">
<rect x="0.5" y="0.5" width="35" height="35" rx="17.5" fill="white"/>
<rect x="0.5" y="0.5" width="35" height="35" rx="17.5" stroke="#DDDDDD"/>
<path d="M12.9282 16.7776C12.5861 16.7776 12.3089 17.0466 12.3089 17.3785C12.3089 17.7104 12.5861 17.9806 12.9282 17.9806C13.2702 17.9806 13.5474 17.7116 13.5474 17.3785C13.5474 17.0454 13.2702 16.7776 12.9282 16.7776Z" fill="#111111"/>
<path d="M19.0505 16.7147C18.6818 16.7147 18.383 17.0047 18.383 17.3625C18.383 17.7203 18.6818 18.0102 19.0505 18.0102C19.4193 18.0102 19.7181 17.7203 19.7181 17.3625C19.7181 17.0047 19.4193 16.7147 19.0505 16.7147Z" fill="#111111"/>
<path d="M22.4976 17.3625C22.4976 17.0133 22.7901 16.7295 23.1499 16.7295C23.5097 16.7295 23.8022 17.0133 23.8022 17.3625C23.8022 17.7116 23.5097 17.9954 23.1499 17.9954C22.7901 17.9954 22.4976 17.7116 22.4976 17.3625Z" fill="#111111"/>
<path fill-rule="evenodd" clip-rule="evenodd" d="M11.4087 10.7998H24.5931C25.9232 10.7998 27.0014 11.8461 27.0014 13.1367V20.7296C27.0014 22.0201 25.9232 23.0664 24.5931 23.0664H19.9788L18.3945 26.6877C18.3945 26.6877 18.2864 27.001 18.0219 27.001C17.7587 27.001 17.6494 26.6877 17.6494 26.6877L16.0651 23.0664H11.4087C10.0787 23.0664 9.00049 22.0201 9.00049 20.7296V13.1367C9.00049 11.8461 10.0787 10.7998 11.4087 10.7998ZM13.1685 18.9393C13.1685 18.9393 14.6473 18.8998 14.6549 17.5118H14.6537C14.6537 17.5118 14.8533 15.8893 13.2588 15.7449C13.2588 15.7449 12.5264 15.7375 12.2734 16.157V14.5087C12.2734 14.5087 11.2638 14.521 11.1964 14.5111V14.5087C11.1913 14.5099 11.1964 14.5111 11.1964 14.5111V18.8221H12.2734V18.5716C12.2734 18.5716 12.5963 18.9393 13.1685 18.9393ZM16.5508 18.8295V15.8782C16.5508 15.8782 16.6716 14.4359 14.9881 14.3692V15.3995C14.9881 15.3995 15.4967 15.5105 15.4967 15.9078V18.8295H16.5508ZM17.2819 17.3637C17.2819 18.2348 18.0728 18.9418 19.0493 18.9418C20.0258 18.9418 20.8167 18.2348 20.8167 17.3637C20.8167 16.4926 20.0258 15.7857 19.0493 15.7857C18.0728 15.7857 17.2819 16.4926 17.2819 17.3637ZM23.2695 20.4408C24.8398 20.4408 24.8246 18.9418 24.8246 18.9418V15.8276H23.7552V16.1435C23.4055 15.6869 22.8372 15.7462 22.8372 15.7462C21.3965 15.8486 21.366 17.1367 21.366 17.1367V17.608C21.366 18.8505 22.6782 18.9418 22.6782 18.9418C23.6039 18.9418 23.7323 18.542 23.7323 18.542C23.74 19.5291 23.08 19.4698 23.08 19.4698H22.7914V20.4408H23.2695Z" fill="#111111"/>
</svg>
