<svg width="36" height="36" viewBox="0 0 36 36" fill="none" xmlns="http://www.w3.org/2000/svg">
<rect x="0.5" y="0.5" width="35" height="35" rx="17.5" fill="white"/>
<rect x="0.5" y="0.5" width="35" height="35" rx="17.5" stroke="#DDDDDD"/>
<ellipse cx="17.9998" cy="18" rx="8.99982" ry="9" fill="white"/>
<path d="M26.9993 18.0331C26.9993 13.0443 22.97 9 17.9996 9C13.0293 9 9 13.0443 9 18.0331C9 22.2692 11.9058 25.8239 15.8257 26.8002V20.7936H13.97V18.0331H15.8257V16.8436C15.8257 13.7691 17.212 12.344 20.2193 12.344C20.7895 12.344 21.7734 12.4564 22.1758 12.5684V15.0706C21.9634 15.0482 21.5945 15.037 21.1362 15.037C19.6606 15.037 19.0904 15.5981 19.0904 17.0568V18.0331H22.03L21.525 20.7936H19.0904V27C23.5467 26.4598 26.9996 22.6515 26.9996 18.0331H26.9993Z" fill="#111111"/>
</svg>
