<svg width="36" height="36" viewBox="0 0 36 36" fill="none" xmlns="http://www.w3.org/2000/svg">
<rect x="0.5" y="0.5" width="35" height="35" rx="17.5" fill="white"/>
<rect x="0.5" y="0.5" width="35" height="35" rx="17.5" stroke="#DDDDDD"/>
<path d="M14.2726 9.06294C13.315 9.10812 12.6611 9.26094 12.0894 9.48559C11.4977 9.71617 10.9962 10.0256 10.4973 10.5263C9.9983 11.0271 9.69104 11.529 9.46208 12.1215C9.2405 12.6945 9.09038 13.3489 9.04808 14.3071C9.00577 15.2652 8.99641 15.5732 9.00109 18.0173C9.00577 20.4613 9.01657 20.7677 9.06302 21.7278C9.10874 22.6852 9.26102 23.339 9.48566 23.9108C9.7166 24.5025 10.0257 25.0038 10.5266 25.5029C11.0276 26.0021 11.529 26.3086 12.123 26.5379C12.6955 26.7592 13.3501 26.91 14.3081 26.9519C15.2661 26.9939 15.5744 27.0036 18.0177 26.9989C20.4611 26.9942 20.7687 26.9834 21.7287 26.9379C22.6886 26.8924 23.339 26.739 23.911 26.5154C24.5027 26.284 25.0043 25.9754 25.5031 25.4743C26.0019 24.9732 26.309 24.471 26.5378 23.8781C26.7595 23.3057 26.9102 22.651 26.9518 21.6938C26.9937 20.7331 27.0036 20.4264 26.9989 17.9827C26.9943 15.539 26.9833 15.2326 26.9377 14.2729C26.8922 13.3131 26.7397 12.6613 26.5153 12.0891C26.284 11.4975 25.9753 10.9965 25.4745 10.497C24.9737 9.99751 24.4712 9.69061 23.8784 9.46237C23.3057 9.24078 22.6514 9.08976 21.6934 9.04836C20.7354 9.00696 20.4271 8.99634 17.9828 9.00102C15.5386 9.0057 15.2326 9.01614 14.2726 9.06294ZM14.3777 25.3328C13.5002 25.2947 13.0238 25.1489 12.7063 25.0268C12.2858 24.8648 11.9862 24.669 11.6698 24.3556C11.3534 24.0422 11.159 23.7416 10.9948 23.3221C10.8715 23.0045 10.723 22.5286 10.682 21.6511C10.6373 20.7027 10.628 20.4179 10.6227 18.0151C10.6175 15.6123 10.6267 15.3279 10.6683 14.3791C10.7057 13.5023 10.8524 13.0253 10.9743 12.708C11.1363 12.2869 11.3314 11.988 11.6455 11.6717C11.9596 11.3554 12.2593 11.1607 12.6793 10.9965C12.9964 10.8727 13.4723 10.7254 14.3495 10.6837C15.2986 10.6387 15.583 10.6297 17.9855 10.6244C20.388 10.6192 20.6731 10.6282 21.6226 10.67C22.4994 10.7081 22.9766 10.8534 23.2936 10.976C23.7143 11.138 24.0136 11.3326 24.3299 11.6472C24.6461 11.9619 24.8411 12.2605 25.0052 12.6813C25.1293 12.9976 25.2765 13.4733 25.3179 14.351C25.3631 15.3001 25.3733 15.5847 25.3777 17.987C25.382 20.3893 25.3735 20.6746 25.3319 21.623C25.2936 22.5005 25.1482 22.9772 25.0259 23.2951C24.8639 23.7154 24.6686 24.0151 24.3543 24.3311C24.0401 24.6472 23.7407 24.842 23.3206 25.0061C23.0038 25.1298 22.5273 25.2774 21.6509 25.3192C20.7018 25.3638 20.4173 25.3732 18.014 25.3784C15.6106 25.3836 15.3271 25.3739 14.3779 25.3328M21.7148 13.1898C21.7152 13.4034 21.7789 13.6122 21.8978 13.7896C22.0168 13.967 22.1858 14.1051 22.3833 14.1865C22.5808 14.2679 22.798 14.2889 23.0074 14.2469C23.2169 14.2048 23.4091 14.1016 23.5599 13.9503C23.7107 13.799 23.8132 13.6063 23.8545 13.3967C23.8957 13.1871 23.8739 12.97 23.7918 12.7728C23.7097 12.5756 23.5709 12.4072 23.3931 12.2889C23.2152 12.1705 23.0063 12.1076 22.7927 12.108C22.5063 12.1086 22.2319 12.2229 22.0297 12.4257C21.8276 12.6286 21.7143 12.9034 21.7148 13.1898ZM13.3789 18.009C13.384 20.5614 15.4569 22.6258 18.0087 22.621C20.5606 22.6161 22.6265 20.5434 22.6217 17.991C22.6168 15.4386 20.5434 13.3736 17.9911 13.3786C15.4389 13.3837 13.3741 15.4569 13.3789 18.009ZM15 18.0057C14.9988 17.4124 15.1736 16.832 15.5023 16.338C15.831 15.844 16.2988 15.4585 16.8465 15.2304C17.3943 15.0022 17.9974 14.9416 18.5796 15.0562C19.1617 15.1708 19.6969 15.4555 20.1173 15.8742C20.5377 16.293 20.8245 16.827 20.9414 17.4087C21.0583 17.9904 21.0001 18.5937 20.7741 19.1424C20.5481 19.691 20.1645 20.1603 19.6718 20.491C19.1791 20.8216 18.5994 20.9987 18.006 20.9999C17.6121 21.0007 17.2218 20.9239 16.8575 20.7739C16.4931 20.6238 16.162 20.4035 15.8828 20.1255C15.6037 19.8474 15.382 19.5171 15.2306 19.1534C15.0791 18.7897 15.0007 18.3997 15 18.0057Z" fill="#111111"/>
</svg>
