<svg width="109" height="36" viewBox="0 0 109 36" fill="none" xmlns="http://www.w3.org/2000/svg">
<path d="M46.9587 22.2551V18.1439H48.5649V22.2551H54.4056V23.6947H42.2212V22.2551H46.9619H46.9587ZM51.774 19.9239V13.569H43.2011V12.1003H53.4256V19.9239H51.774Z" fill="#575756"/>
<path d="M58.4162 17.5927V16.3606H59.9315V17.5927H63.5852V16.3606H65.1006V17.5927H67.849V18.9869H55.6646V17.5927H58.4162ZM64.9091 22.3881C64.9091 22.7836 64.8248 23.1597 64.656 23.5099C64.4873 23.8601 64.2602 24.1649 63.9714 24.4242C63.6956 24.6901 63.3646 24.9041 62.9849 25.063C62.6021 25.2218 62.1997 25.2997 61.7746 25.2997C61.3495 25.2997 60.9439 25.2186 60.5546 25.063C60.1684 24.9041 59.831 24.6901 59.5454 24.4242C59.2696 24.1681 59.0457 23.8633 58.877 23.5099C58.7082 23.1597 58.6239 22.7836 58.6239 22.3881C58.6239 21.9925 58.7082 21.6196 58.877 21.2662C59.0457 20.9161 59.2696 20.6048 59.5454 20.3389C59.8342 20.0731 60.1684 19.8623 60.5546 19.7067C60.9407 19.5543 61.3463 19.4765 61.7746 19.4765C62.2029 19.4765 62.6053 19.5543 62.9849 19.7067C63.3646 19.8591 63.6956 20.0698 63.9714 20.3389C64.2569 20.6048 64.4873 20.9161 64.656 21.2662C64.8248 21.6164 64.9091 21.9925 64.9091 22.3881ZM64.8799 13.6436C64.8799 14.0392 64.7956 14.412 64.6268 14.7557C64.4581 15.1026 64.231 15.4106 63.9422 15.6765C63.6761 15.9327 63.3516 16.1434 62.9752 16.299C62.5988 16.4579 62.1997 16.5357 61.7714 16.5357C61.3431 16.5357 60.9407 16.4579 60.561 16.299C60.1782 16.1402 59.8537 15.9327 59.5876 15.6765C59.302 15.4106 59.0717 15.1026 58.9029 14.7557C58.7342 14.4088 58.6498 14.0392 58.6498 13.6436C58.6498 13.248 58.7342 12.8881 58.9029 12.538C59.0717 12.1878 59.2988 11.8765 59.5876 11.6107C59.8537 11.3545 60.1814 11.147 60.561 10.9882C60.9407 10.8293 61.3463 10.7515 61.7714 10.7515C62.1964 10.7515 62.5988 10.8325 62.9752 10.9882C63.3516 11.147 63.6728 11.3545 63.9422 11.6107C64.231 11.8765 64.4581 12.1878 64.6268 12.538C64.7956 12.8881 64.8799 13.2578 64.8799 13.6436ZM63.3062 22.3589C63.3062 21.9439 63.1569 21.5872 62.8551 21.2987C62.5534 21.0069 62.19 20.8609 61.7616 20.8609C61.3333 20.8609 60.9731 21.0069 60.6779 21.2987C60.3793 21.5905 60.2333 21.9439 60.2333 22.3589C60.2333 22.7739 60.3826 23.1306 60.6779 23.4289C60.9764 23.7271 61.3366 23.873 61.7616 23.873C62.1867 23.873 62.5501 23.7239 62.8551 23.4289C63.1569 23.1306 63.3062 22.7771 63.3062 22.3589ZM63.277 13.6436C63.277 13.248 63.1277 12.9011 62.8324 12.6028C62.5372 12.3045 62.177 12.1586 61.7616 12.1586C61.3463 12.1586 60.9926 12.3078 60.7006 12.6028C60.4085 12.9011 60.2625 13.248 60.2625 13.6436C60.2625 14.0392 60.4085 14.4023 60.7006 14.6973C60.9926 14.9956 61.3463 15.1415 61.7616 15.1415C62.177 15.1415 62.5339 14.9924 62.8324 14.6973C63.131 14.4023 63.277 14.0489 63.277 13.6436Z" fill="#575756"/>
<path d="M81.3962 22.2422V23.698H69.2118V22.2422H74.4717V19.0517H70.1917V11.9997H71.8401V17.596H80.6077V19.0517H76.1201V22.2422H81.3962Z" fill="#575756"/>
<path d="M88.1974 17.3268V16.0948H83.9174V11.5815H94.1549V12.9757H85.5528V14.7136H94.1873V16.0948H89.849V17.3268H95.1251V18.721H82.9407V17.3268H88.2006H88.1974ZM92.2826 22.1676C92.2826 22.5826 92.195 22.9782 92.023 23.3478C91.8478 23.7174 91.6174 24.0384 91.3319 24.3043C91.0236 24.5799 90.6764 24.8003 90.2838 24.9657C89.8912 25.1278 89.4726 25.2121 89.028 25.2121C88.5835 25.2121 88.1649 25.1311 87.7723 24.9657C87.3797 24.8036 87.0325 24.5831 86.7242 24.3043C86.4387 24.0384 86.205 23.7174 86.0331 23.3478C85.8578 22.9782 85.7735 22.5826 85.7735 22.1676C85.7735 21.7526 85.8611 21.357 86.0331 20.9874C86.205 20.6178 86.4354 20.2968 86.7242 20.0309C87.0325 19.7553 87.3797 19.5349 87.7723 19.3695C88.1649 19.2074 88.5803 19.1231 89.028 19.1231C89.4758 19.1231 89.8912 19.2041 90.2838 19.3695C90.6764 19.5316 91.0236 19.7521 91.3319 20.0309C91.6207 20.2968 91.8511 20.6178 92.023 20.9874C92.195 21.357 92.2826 21.7526 92.2826 22.1676ZM90.6926 22.1384C90.6926 21.6845 90.5304 21.2954 90.2027 20.9744C89.8749 20.6534 89.4856 20.4913 89.028 20.4913C88.5705 20.4913 88.1811 20.6534 87.8534 20.9744C87.5257 21.2954 87.3634 21.6845 87.3634 22.1384C87.3634 22.5923 87.5257 22.9814 87.8534 23.2959C88.1811 23.6104 88.5705 23.7693 89.028 23.7693C89.4856 23.7693 89.8749 23.6104 90.2027 23.2959C90.5304 22.9782 90.6926 22.5923 90.6926 22.1384Z" fill="#575756"/>
<path d="M96.8157 19.7975H109V21.2533H103.724V24.6674H102.076V21.2533H96.8157V19.7975ZM99.4148 13.3258H106.385V11.6496H108.02V18.0207H97.7956V11.6496H99.4148V13.3258ZM106.385 14.7525H99.4148V16.5779H106.385V14.7525Z" fill="#575756"/>
<path d="M35.1449 17.557C35.1449 27.2548 27.2761 35.1141 17.5741 35.1141C7.87199 35.1141 0 27.2548 0 17.557C0 7.85933 7.8655 0 17.5741 0C27.2826 0 35.1449 7.86257 35.1449 17.557Z" fill="white"/>
<path d="M25.8128 16.3346C23.019 14.4379 19.4432 15.2096 17.5644 18.0628C16.0004 20.4459 13.6349 20.7442 12.7231 20.7442C9.73463 20.7442 7.69362 18.6432 7.08684 16.4708C7.08035 16.4481 7.07386 16.4287 7.07061 16.4092C7.06412 16.3865 7.06088 16.3606 7.05114 16.3346C6.81102 15.4268 6.75262 14.9956 6.75262 14.0326C6.75262 8.84169 12.0871 3.05743 19.7644 3.05743C27.4417 3.05743 32.1305 9.03947 33.2954 12.3661C33.2727 12.3045 33.2532 12.2493 33.2338 12.191C31.0013 5.68369 24.8264 1.0083 17.5579 1.0083C8.41722 1.0083 0.999512 8.41371 0.999512 17.557C0.999512 25.7276 6.89539 32.718 15.0789 32.718C21.601 32.718 25.9848 29.0672 27.9934 24.0254C29.0966 21.2694 28.3178 18.0336 25.8128 16.3314" fill="#003964"/>
<path d="M33.3929 12.6872C32.4227 9.4417 27.8929 3.05762 19.7613 3.05762C12.084 3.05762 6.74951 8.84188 6.74951 14.0328C6.74951 14.9958 6.81116 15.427 7.04804 16.3348C6.94745 15.936 6.89553 15.5405 6.89553 15.1546C6.89553 9.74648 12.3144 5.99838 17.8858 5.99838C25.4301 5.99838 31.5434 12.1069 31.5434 19.642C31.5434 25.5462 28.1395 30.6625 23.2009 33.117C29.5737 30.8149 34.123 24.7162 34.123 17.5572C34.123 15.8615 33.8959 14.3668 33.3962 12.6872" fill="#ED1A3B"/>
</svg>
