<svg width="99" height="31" viewBox="0 0 99 31" fill="none" xmlns="http://www.w3.org/2000/svg">
<path d="M23.6084 14.593C20.9568 12.7917 17.5555 13.5232 15.7633 16.2388C14.2729 18.5064 12.0237 18.7898 11.1459 18.7898C8.30227 18.7898 6.36385 16.7874 5.78781 14.721C5.78781 14.721 5.78781 14.6844 5.76953 14.6661C5.76953 14.6387 5.76038 14.6204 5.75124 14.593C5.52265 13.7335 5.46779 13.3129 5.46779 12.3985C5.46779 7.45192 10.5424 1.94756 17.848 1.94756C25.1537 1.94756 29.6157 7.64394 30.7129 10.8076C30.6946 10.7527 30.6763 10.6979 30.658 10.643C28.5368 4.45287 22.6666 0 15.7542 0C7.05875 0 0 7.04961 0 15.7542C0 23.5353 5.61409 30.1917 13.3952 30.1917C19.6036 30.1917 23.773 26.7081 25.684 21.9169C26.7355 19.2927 25.9857 16.2114 23.6084 14.593Z" fill="#003668"/>
<path d="M30.8227 11.1182C29.8992 8.02767 25.5835 1.94727 17.8573 1.94727C10.5517 1.94727 5.47705 7.45163 5.47705 12.3982C5.47705 13.3126 5.53191 13.724 5.7605 14.5927C5.66906 14.2178 5.6142 13.8338 5.6142 13.468C5.6142 8.32026 10.7711 4.75431 16.0743 4.75431C23.2519 4.75431 29.0672 10.5696 29.0672 17.7472C29.0672 23.3704 25.8304 28.2439 21.1307 30.5755C27.1928 28.381 31.5268 22.5749 31.5268 15.7539C31.5268 14.1355 31.3073 12.7183 30.8319 11.1182H30.8227Z" fill="#E6002D"/>
<path d="M46.0807 20.4911V15.1455H48.2209V20.4911H55.8274V22.3902H39.9814V20.4911H46.0807ZM52.3809 17.4767V9.25726H41.2073V7.35815H54.5212V17.4767H52.3809Z" fill="#595857"/>
<path d="M73.8938 14.2716V16.1104H58.0479V14.2716H61.2331V12.6639H63.3533V14.2716H68.5783V12.6639H70.6985V14.2716H73.8838H73.8938ZM70.2262 9.47864C70.2262 10.0112 70.1157 10.5036 69.8946 10.9859C69.6736 11.4581 69.3621 11.8802 68.9803 12.2318C68.5884 12.5835 68.1262 12.8749 67.6137 13.0859C67.1013 13.2969 66.5486 13.4075 65.9658 13.4075C65.383 13.4075 64.8404 13.307 64.3179 13.0859C63.8055 12.8749 63.3432 12.5936 62.9514 12.2318C62.5695 11.8802 62.2681 11.4581 62.037 10.9859C61.8159 10.5136 61.7054 10.0112 61.7054 9.47864C61.7054 8.94609 61.8159 8.44368 62.037 7.97141C62.258 7.49915 62.5695 7.07713 62.9514 6.72544C63.3432 6.37375 63.8055 6.08236 64.3179 5.87135C64.8304 5.66033 65.383 5.5498 65.9658 5.5498C66.5486 5.5498 67.0912 5.66033 67.6137 5.87135C68.1262 6.08236 68.5884 6.36371 68.9803 6.72544C69.3621 7.07713 69.6635 7.49915 69.8946 7.97141C70.1157 8.44368 70.2262 8.94609 70.2262 9.47864ZM70.2262 20.5115C70.2262 21.0441 70.1157 21.5364 69.8946 22.0188C69.6736 22.491 69.3621 22.913 68.9803 23.2647C68.5884 23.6164 68.1262 23.9078 67.6137 24.1188C67.1013 24.3298 66.5486 24.4404 65.9658 24.4404C65.383 24.4404 64.8404 24.3399 64.3179 24.1188C63.7954 23.8978 63.3432 23.6265 62.9514 23.2647C62.5695 22.913 62.2681 22.491 62.037 22.0188C61.8159 21.5465 61.7054 21.0441 61.7054 20.5115C61.7054 19.979 61.8159 19.4766 62.037 19.0043C62.258 18.532 62.5695 18.11 62.9514 17.7583C63.3432 17.4066 63.8055 17.1152 64.3179 16.9042C64.8304 16.6932 65.383 16.5827 65.9658 16.5827C66.5486 16.5827 67.0912 16.6832 67.6137 16.9042C68.1262 17.1152 68.5884 17.3966 68.9803 17.7583C69.3621 18.11 69.6635 18.532 69.8946 19.0043C70.1157 19.4766 70.2262 19.979 70.2262 20.5115ZM68.1061 9.47864C68.1061 8.8858 67.8951 8.38339 67.4831 7.98146C67.0711 7.57954 66.5587 7.37857 65.9658 7.37857C65.373 7.37857 64.8706 7.57954 64.4485 7.98146C64.0366 8.38339 63.8256 8.8858 63.8256 9.47864C63.8256 10.0715 64.0366 10.5739 64.4485 10.9758C64.8605 11.3777 65.373 11.5787 65.9658 11.5787C66.5587 11.5787 67.0611 11.3777 67.4831 10.9758C67.9051 10.5739 68.1061 10.0715 68.1061 9.47864ZM68.1061 20.5115C68.1061 19.9187 67.8951 19.4163 67.4831 19.0144C67.0711 18.6124 66.5587 18.4115 65.9658 18.4115C65.373 18.4115 64.8706 18.6124 64.4485 19.0144C64.0366 19.4163 63.8256 19.9187 63.8256 20.5115C63.8256 21.1044 64.0366 21.6068 64.4485 22.0087C64.8605 22.4106 65.373 22.6116 65.9658 22.6116C66.5587 22.6116 67.0611 22.4106 67.4831 22.0087C67.8951 21.6068 68.1061 21.1044 68.1061 20.5115Z" fill="#595857"/>
<path d="M85.5798 21.4655H76.4259V19.687L81.3395 15.095C82.5854 13.9294 83.1984 12.9246 83.1984 12.0605C83.1984 11.3872 82.9874 10.8145 82.5553 10.3523C82.1232 9.89005 81.5304 9.65895 80.7667 9.65895C80.2141 9.65895 79.7016 9.88001 79.2193 10.3322C78.8375 10.6839 78.5762 11.2466 78.4456 12.0203C78.4155 12.2011 78.3954 12.392 78.3652 12.593L76.2651 12.0605C76.3053 10.8145 76.7475 9.78957 77.5815 8.96562C78.4155 8.15172 79.5308 7.73975 80.9174 7.73975C82.2237 7.73975 83.3089 8.16177 84.163 9.00582C85.0171 9.84986 85.4492 10.8446 85.4492 12.0002C85.4492 12.6433 85.2884 13.2964 84.9568 13.9596C84.6252 14.6227 84.1228 15.2658 83.4295 15.8989L79.5308 19.5664H85.5697V21.4655H85.5798Z" fill="#595857"/>
<path d="M96.3215 21.4664H94.1008V19.0448H87.8408V17.3366L94.2214 7.96167H96.3215V17.1357H98.1V19.0348H96.3215V21.4564V21.4664ZM94.1008 17.1457V11.4785L90.3328 17.1457H94.1008Z" fill="#595857"/>
</svg>
