<svg width="132" height="36" viewBox="0 0 132 36" fill="none" xmlns="http://www.w3.org/2000/svg">
<path d="M30.0616 14.6058C30.0616 14.6058 30.0616 14.5422 30.0616 14.5183C30.0218 13.0462 29.4568 11.5742 28.3826 10.134C27.1573 8.49484 25.3431 7.03075 23.1231 5.90881C17.6964 3.21139 14.06 3.82408 12.1822 5.00171C10.4078 6.14752 9.73143 8.07312 9.74734 10.2295C9.76326 12.9667 11.5059 17.7568 13.5985 22.3321C13.5985 22.3321 21.5158 21.4886 24.8736 20.4781C28.2315 19.4596 30.0775 17.3828 30.0775 14.6058H30.0616Z" fill="url(#paint0_radial_50_3519)"/>
<path d="M12.1502 24.0986C9.65967 24.3533 5.31515 24.1225 5.31515 24.1384C5.04461 24.1384 4.6945 24.1862 4.59106 24.3771C4.56719 24.4169 4.55127 24.4806 4.55127 24.5761C4.55127 24.7988 4.66267 25.1887 5.10826 25.8571C5.79256 26.8518 7.16117 28.4272 9.78698 29.9789C12.7311 31.6657 14.7283 31.9681 15.6513 31.9999C16.5186 31.9999 16.7334 31.7931 16.7971 31.6896C16.8926 31.5066 16.9403 31.3077 16.2481 30.4404C14.5373 28.2204 13.304 26.1515 12.1343 24.0986H12.1502Z" fill="url(#paint1_radial_50_3519)"/>
<path d="M11.3467 22.5632C9.3097 18.5847 7.6069 13.8503 7.34432 13.0307C6.16668 9.41027 4.70258 8.28037 3.20667 8.55887C1.66301 8.90102 0.429679 10.4765 0.0875275 13.1898C0.0318285 13.6832 0 14.1526 0 14.6221C0 16.4681 0.445591 18.1311 1.36065 19.7623C2.34732 21.4651 3.42946 22.2608 5.12431 22.5473C6.8271 22.8337 10.0179 22.6905 11.3467 22.5632Z" fill="url(#paint2_radial_50_3519)"/>
<path d="M14.3224 24.1068C15.2295 25.8653 16.1446 27.409 17.0915 28.7776C18.1975 30.2257 19.2796 31.5625 22.3829 31.6421C24.7779 31.6421 26.8149 30.9419 28.7803 29.4698C31.0162 27.7193 32.0029 25.6823 31.3424 24.1705C30.6104 22.587 28.1278 22.2449 24.6267 22.7541C19.757 23.4623 15.9616 24.0034 14.3145 24.1148L14.3224 24.1068Z" fill="url(#paint3_radial_50_3519)"/>
<path d="M49.5245 17.9954H51.7763V16.8576H49.5245V13.6509H47.5034V24.0984H49.5245V17.9874V17.9954Z" fill="#231F20"/>
<path d="M44.6708 21.1626C45.3472 20.534 45.6973 19.7622 45.6973 18.8789C45.6973 18.3379 45.5541 17.8286 45.2835 17.3751C45.0289 16.9533 44.6947 16.6032 44.2889 16.3247H46.2304V15.1869H43.2306V13.5H41.2096V15.1869H38.1938V16.3247H40.1194C39.7295 16.6032 39.3954 16.9533 39.1328 17.3751C38.8543 17.8286 38.719 18.3379 38.719 18.8789C38.719 19.7622 39.0612 20.526 39.7455 21.1626C40.4298 21.7992 41.2573 22.1174 42.2042 22.1174C43.1511 22.1174 43.9865 21.7992 44.6629 21.1626H44.6708ZM42.2042 16.7385C42.6179 16.7385 42.976 16.9454 43.2625 17.3671C43.5489 17.7809 43.7001 18.2901 43.7001 18.871C43.7001 19.4518 43.5489 19.9611 43.2625 20.3749C42.976 20.7966 42.6179 21.0035 42.2042 21.0035C41.7904 21.0035 41.4483 20.7966 41.1539 20.3749C40.8594 19.9531 40.7083 19.4518 40.7083 18.871C40.7083 18.2901 40.8594 17.7809 41.1539 17.3671C41.4483 16.9533 41.7984 16.7385 42.2042 16.7385Z" fill="#231F20"/>
<path d="M50.0023 26.6291H42.65V23.1519H40.6289V26.2869C40.6289 26.7484 40.7721 27.1144 41.0586 27.385C41.3371 27.6396 41.7031 27.7749 42.1407 27.7749H49.9943V26.637L50.0023 26.6291Z" fill="#231F20"/>
<path d="M64.8099 20.2001V19.0623H62.6695C62.6695 19.0623 63.1787 18.2029 63.1787 16.699V13.6436H53.6542V14.7814H61.1576V16.9218C61.1576 18.2268 60.895 19.0543 60.895 19.0543H51.9673V20.1922H57.3701V22.6429H53.4473V23.7808H61.086V27.7513H63.1071V22.6429H59.3832V20.1922H64.786L64.8099 20.2001Z" fill="#231F20"/>
<path d="M73.746 23.6293H75.592C75.958 22.7938 76.4116 20.8364 76.4116 19.1734V13.9536H66.521V15.0915H74.3905V19.1575C74.3905 20.8523 74.1995 22.4437 73.746 23.6373V23.6293Z" fill="#231F20"/>
<path d="M65.4941 25.7694H77.8673V24.6315H71.4142V18.6797H69.3931V24.6315H65.4941V25.7694Z" fill="#231F20"/>
<path d="M101.937 13.6436V16.4524H99.041V17.5902H101.937V21.5767H103.958V13.6436H101.937Z" fill="#231F20"/>
<path d="M102.494 22.6586C101.77 22.0141 100.879 21.6958 99.8448 21.6958C98.8104 21.6958 97.9192 22.022 97.1951 22.6586C96.471 23.2952 96.105 24.0829 96.105 24.998C96.105 25.913 96.471 26.6928 97.1951 27.3373C97.9192 27.9739 98.8104 28.3001 99.8448 28.3001C100.879 28.3001 101.77 27.9818 102.494 27.3373C103.219 26.7008 103.585 25.913 103.585 24.998C103.585 24.0829 103.219 23.2952 102.494 22.6586ZM101.054 26.4939C100.712 26.9236 100.314 27.1384 99.8448 27.1384C99.3753 27.1384 98.9695 26.9236 98.6353 26.4939C98.3011 26.0642 98.1261 25.5629 98.1261 24.99C98.1261 24.4171 98.3011 23.9078 98.6353 23.4702C98.9695 23.0326 99.3833 22.8098 99.8448 22.8098C100.306 22.8098 100.72 23.0326 101.054 23.4702C101.388 23.9078 101.563 24.4251 101.563 24.99C101.563 25.5549 101.388 26.0642 101.054 26.4939Z" fill="#231F20"/>
<path d="M105.645 24.6321V25.7699H118.026V24.6321H112.846V21.7675H116.57V13.9458H114.549V16.492H109.122V13.9458H107.101V20.2875C107.101 20.757 107.237 21.123 107.507 21.3776C107.778 21.6402 108.16 21.7675 108.629 21.7675H110.817V24.6321H105.637H105.645ZM109.122 20.6297V17.6299H114.549V20.6297H109.122Z" fill="#231F20"/>
<path d="M125.809 23.0163H129.031V24.4087H131.052V13.6509H129.031V21.9739H125.809V23.0242V23.0163Z" fill="#231F20"/>
<path d="M125.753 14.4232C125.092 13.8582 124.273 13.5718 123.318 13.5718C122.363 13.5718 121.56 13.8582 120.899 14.4232C120.231 14.9961 119.896 15.6963 119.896 16.5079C119.896 17.3195 120.231 18.0118 120.899 18.5767C121.56 19.1417 122.371 19.4281 123.318 19.4281C124.265 19.4281 125.092 19.1417 125.753 18.5767C126.413 18.0118 126.747 17.3195 126.747 16.5079C126.747 15.6963 126.413 14.9961 125.753 14.4232ZM122.315 15.2189C122.594 14.8847 122.928 14.7096 123.318 14.7096C123.708 14.7096 124.05 14.8847 124.321 15.2189C124.599 15.561 124.742 15.9827 124.742 16.5079C124.742 17.0331 124.599 17.4548 124.321 17.7969C124.042 18.1311 123.708 18.3062 123.318 18.3062C122.928 18.3062 122.594 18.1391 122.315 17.7969C122.037 17.4628 121.894 17.0251 121.894 16.5079C121.894 15.9907 122.029 15.561 122.315 15.2189Z" fill="#231F20"/>
<path d="M119.053 21.0829H122.132V23.1597H124.153V21.0829H127.98V19.9849H119.053V21.0829Z" fill="#231F20"/>
<path d="M123.517 26.6291V23.876H121.496V26.279C121.496 26.7485 121.639 27.1145 121.925 27.3771C122.212 27.6396 122.578 27.767 123.015 27.767H131.49V26.6291H123.517Z" fill="#231F20"/>
<path d="M97.2986 15.092C97.2986 16.6595 97.6487 17.7894 98.2773 18.6089C98.9696 19.5717 99.9244 20.0571 100.784 20.3117L100.012 21.2507H99.996C98.4524 21.0597 96.5586 19.3489 96.2642 18.418C95.9698 19.3489 94.076 21.0597 92.5324 21.2507H92.5165L91.7446 20.3117C92.596 20.0571 93.5588 19.5717 94.2511 18.6089C94.8797 17.7894 95.2298 16.6595 95.2298 15.092H92.5403V13.9541H99.996V15.092H97.3066H97.2986Z" fill="#231F20"/>
<path d="M87.7979 20.5898V18.2186C87.9252 18.0833 88.0445 17.9401 88.14 17.7889C88.4265 17.3433 88.5697 16.85 88.5697 16.3168C88.5697 15.4416 88.1878 14.6936 87.4478 14.0889C86.7078 13.4842 85.7927 13.1738 84.7026 13.1738C83.6125 13.1738 82.6974 13.4842 81.9574 14.0889C81.2174 14.6936 80.8434 15.4495 80.8434 16.3168C80.8434 16.85 80.9946 17.3513 81.2811 17.7968C81.3845 17.956 81.5039 18.0992 81.6312 18.2345V20.5898H78.2256V21.7276H91.2035V20.5898H87.7979ZM85.7688 20.5898H83.6443V19.3485C83.9785 19.4201 84.3286 19.4599 84.7026 19.4599C85.0766 19.4599 85.4267 19.4201 85.7609 19.3485V20.5898H85.7688ZM84.7105 18.3459C83.6841 18.3459 82.8566 17.4388 82.8566 16.3248C82.8566 15.2108 83.692 14.2958 84.7105 14.2958C85.729 14.2958 86.5725 15.2029 86.5725 16.3248C86.5725 17.4467 85.737 18.3459 84.7105 18.3459Z" fill="#231F20"/>
<path d="M87.3123 23.0963C86.5961 22.5234 85.7209 22.229 84.7103 22.229C83.6998 22.229 82.8325 22.5234 82.1163 23.0963C81.4002 23.6772 81.0342 24.4013 81.0342 25.2527C81.0342 26.1041 81.4002 26.8202 82.1163 27.4011C82.8325 27.9819 83.7077 28.2763 84.7103 28.2763C85.7129 28.2763 86.6041 27.9819 87.3123 27.4011C88.0284 26.8202 88.3865 26.0961 88.3865 25.2527C88.3865 24.4092 88.0204 23.6772 87.3123 23.0963ZM84.7103 27.1385C83.8112 27.1385 83.0791 26.2871 83.0791 25.2368C83.0791 24.1864 83.8112 23.335 84.7103 23.335C85.6095 23.335 86.3415 24.1864 86.3415 25.2368C86.3415 26.2871 85.6095 27.1385 84.7103 27.1385Z" fill="#231F20"/>
<defs>
<radialGradient id="paint0_radial_50_3519" cx="0" cy="0" r="1" gradientUnits="userSpaceOnUse" gradientTransform="translate(8.49523 9.38443) scale(20.2209 19.756)">
<stop stop-color="#CAD833"/>
<stop offset="1" stop-color="#61B94C"/>
</radialGradient>
<radialGradient id="paint1_radial_50_3519" cx="0" cy="0" r="1" gradientUnits="userSpaceOnUse" gradientTransform="translate(8.49508 9.18999) scale(20.2209 19.7561)">
<stop stop-color="#FCE937"/>
<stop offset="0.3" stop-color="#FBE435"/>
<stop offset="0.64" stop-color="#F8D731"/>
<stop offset="0.99" stop-color="#F5C02B"/>
<stop offset="1" stop-color="#F5C02B"/>
</radialGradient>
<radialGradient id="paint2_radial_50_3519" cx="0" cy="0" r="1" gradientUnits="userSpaceOnUse" gradientTransform="translate(8.49522 9.3848) scale(20.2209 19.7561)">
<stop stop-color="#F5B728"/>
<stop offset="1" stop-color="#E93731"/>
</radialGradient>
<radialGradient id="paint3_radial_50_3519" cx="0" cy="0" r="1" gradientUnits="userSpaceOnUse" gradientTransform="translate(13.4101 13.3617) scale(18.3795 17.957)">
<stop stop-color="#50C0DD"/>
<stop offset="0.99" stop-color="#00A2C6"/>
</radialGradient>
</defs>
</svg>
