<svg width="122" height="28" viewBox="0 0 122 28" fill="none" xmlns="http://www.w3.org/2000/svg">
<g clip-path="url(#clip0_352_3935)">
<path d="M120.56 10.2709C120.56 10.2429 120.56 10.2148 120.56 10.1868C120.521 8.76243 119.978 7.33402 118.937 5.94163C117.757 4.36118 116.002 2.94077 113.861 1.85246C108.625 -0.760288 105.12 -0.164118 103.305 0.972207C101.59 2.07652 100.944 3.94906 100.956 6.03365C100.968 8.68241 102.655 13.3197 104.673 17.749C104.673 17.749 112.31 16.9368 115.548 15.9525C118.786 14.9682 120.564 12.9516 120.564 10.2709H120.56Z" fill="url(#paint0_radial_352_3935)"/>
<path d="M103.277 19.4573C100.876 19.7054 96.6888 19.4813 96.6888 19.4933C96.6888 19.4933 96.6902 19.4933 96.6928 19.4933C96.4296 19.4933 96.0986 19.5373 95.995 19.7254C95.971 19.7654 95.9551 19.8254 95.9551 19.9174C95.9551 20.1295 96.0628 20.5056 96.4934 21.1538C97.1554 22.1181 98.4754 23.6385 101.012 25.1389C103.847 26.7714 105.777 27.0635 106.666 27.0915C107.5 27.0915 107.715 26.8954 107.775 26.7874C107.871 26.6114 107.915 26.4193 107.249 25.5831C105.598 23.4345 104.409 21.4299 103.281 19.4453L103.277 19.4573Z" fill="url(#paint1_radial_352_3935)"/>
<path d="M102.503 17.973C100.541 14.1199 98.8983 9.53855 98.6431 8.75033C97.5066 5.24132 96.0949 4.15301 94.6473 4.42109C93.1598 4.74918 91.9675 6.27362 91.6365 8.90237C91.5806 9.37851 91.5527 9.83864 91.5527 10.2868C91.5527 12.0713 91.9794 13.6797 92.8647 15.2602C93.8178 16.9087 94.8547 17.6769 96.4937 17.953C98.1327 18.229 101.211 18.089 102.499 17.969L102.503 17.973Z" fill="url(#paint2_radial_352_3935)"/>
<path d="M105.375 19.4695C106.252 21.17 107.129 22.6624 108.046 23.9868C109.119 25.3872 110.16 26.6835 113.151 26.7596C115.464 26.7596 117.426 26.0874 119.328 24.655C121.489 22.9585 122.434 20.9899 121.804 19.5295C121.095 17.9971 118.702 17.665 115.324 18.1531C110.623 18.8373 106.966 19.3655 105.375 19.4655V19.4695Z" fill="url(#paint3_radial_352_3935)"/>
<path d="M10.3404 11.0431H12.3942V9.99876H10.3404V7.06592H8.49805V16.6327H10.3404V11.0431Z" fill="#231F20"/>
<path d="M5.90599 13.9399C6.52809 13.3597 6.83915 12.6555 6.83915 11.8473C6.83915 11.3511 6.71154 10.887 6.4603 10.4669C6.22502 10.0828 5.92194 9.76269 5.55107 9.50261H7.31769V8.46232H4.57804V6.92188H2.73566V8.46232H0V9.50261H1.75864C1.39973 9.75869 1.09666 10.0828 0.861374 10.4669C0.61014 10.887 0.478541 11.3511 0.478541 11.8473C0.478541 12.6555 0.79358 13.3597 1.41967 13.9399C2.04576 14.52 2.79946 14.8161 3.66084 14.8161C4.52221 14.8161 5.28788 14.524 5.90599 13.9399ZM3.66084 9.89472C4.03968 9.89472 4.36669 10.0868 4.6259 10.4669C4.88909 10.847 5.02468 11.3111 5.02468 11.8433C5.02468 12.3754 4.88909 12.8396 4.6259 13.2237C4.3627 13.6078 4.03968 13.7998 3.66084 13.7998C3.28199 13.7998 2.96695 13.6078 2.69977 13.2237C2.43258 12.8396 2.297 12.3754 2.297 11.8433C2.297 11.3111 2.43258 10.847 2.69977 10.4669C2.96695 10.0868 3.28997 9.89472 3.66084 9.89472Z" fill="#231F20"/>
<path d="M10.779 18.9413H4.06748V15.7563H2.2251V18.6252C2.2251 19.0493 2.3567 19.3854 2.61989 19.6255C2.87512 19.8615 3.21009 19.9816 3.61287 19.9816H10.783V18.9413H10.779Z" fill="#231F20"/>
<path d="M24.282 13.0636V12.0233H22.332C22.332 12.0233 22.7986 11.2391 22.7986 9.85872V7.06592H14.109V8.11022H20.9562V10.0708C20.9562 11.2631 20.7169 12.0273 20.7169 12.0273H12.5737V13.0676H17.5067V15.3123H13.9296V16.3526H20.9003V19.9856H22.7427V15.3123H19.3451V13.0676H24.278L24.282 13.0636Z" fill="#231F20"/>
<path d="M32.437 16.2004H34.1239C34.4589 15.4362 34.8696 13.6437 34.8696 12.1193V7.33789H25.8491V8.37819H33.0272V12.0952C33.0272 13.6437 32.8518 15.1041 32.441 16.1964L32.437 16.2004Z" fill="#231F20"/>
<path d="M24.9039 18.1608H36.1935V17.1165H30.3034V11.667H28.461V17.1165H24.8999V18.1608H24.9039Z" fill="#231F20"/>
<path d="M58.1586 7.06211V9.63084H55.5146V10.6751H58.1586V14.3202H60.001V7.05811H58.1586V7.06211Z" fill="#231F20"/>
<path d="M58.6613 15.3081C57.9993 14.7199 57.1858 14.4238 56.2446 14.4238C55.3035 14.4238 54.486 14.7199 53.828 15.3081C53.166 15.8922 52.8311 16.6125 52.8311 17.4447C52.8311 18.2769 53.166 19.0011 53.828 19.5853C54.49 20.1695 55.3035 20.4656 56.2446 20.4656C57.1858 20.4656 57.9993 20.1695 58.6613 19.5853C59.3233 19.0011 59.6582 18.2809 59.6582 17.4407C59.6582 16.6005 59.3233 15.8842 58.6613 15.3041V15.3081ZM57.3493 18.8251C57.0382 19.2212 56.6753 19.4133 56.2446 19.4133C55.814 19.4133 55.4471 19.2172 55.14 18.8251C54.829 18.433 54.6734 17.9688 54.6734 17.4487C54.6734 16.9285 54.829 16.4604 55.14 16.0563C55.4471 15.6562 55.8179 15.4561 56.2446 15.4561C56.6713 15.4561 57.0422 15.6562 57.3493 16.0563C57.6603 16.4604 57.8159 16.9285 57.8159 17.4487C57.8159 17.9688 57.6603 18.433 57.3493 18.8251Z" fill="#231F20"/>
<path d="M61.5401 17.1207V18.165H72.8337V17.1207H68.1081V14.4999H71.5017V7.33789H69.6594V9.67056H64.7105V7.33789H62.8681V13.1395C62.8681 13.5677 62.9917 13.9038 63.2389 14.1398C63.4862 14.3799 63.8291 14.4959 64.2638 14.4959H66.2617V17.1167H61.5361L61.5401 17.1207ZM64.7105 13.4556V10.7149H69.6594V13.4556H64.7105Z" fill="#231F20"/>
<path d="M79.936 15.6366H82.8791V16.9089H84.7214V7.05811H82.8791V14.6763H79.936V15.6366Z" fill="#231F20"/>
<path d="M79.8846 7.77388C79.2825 7.25773 78.5368 6.99365 77.6674 6.99365C76.7981 6.99365 76.0643 7.25773 75.4581 7.77388C74.852 8.29803 74.5449 8.93821 74.5449 9.68242C74.5449 10.4266 74.852 11.0628 75.4581 11.575C76.0603 12.0911 76.806 12.3512 77.6674 12.3512C78.5288 12.3512 79.2865 12.0911 79.8846 11.575C80.4868 11.0588 80.7939 10.4226 80.7939 9.68242C80.7939 8.94221 80.4868 8.29803 79.8846 7.77388ZM76.7502 8.49808C77.0014 8.18999 77.3085 8.03395 77.6634 8.03395C78.0183 8.03395 78.3294 8.18999 78.5766 8.49808C78.8358 8.81417 78.9595 9.19828 78.9595 9.68242C78.9595 10.1666 78.8319 10.5507 78.5766 10.8628C78.3214 11.1708 78.0143 11.3269 77.6634 11.3269C77.3125 11.3269 77.0014 11.1708 76.7502 10.8628C76.495 10.5547 76.3674 10.1586 76.3674 9.68242C76.3674 9.20628 76.491 8.81417 76.7502 8.49808Z" fill="#231F20"/>
<path d="M73.771 13.8677H76.5784V15.7642H78.4208V13.8677H81.9142V12.8594H73.771V13.8677Z" fill="#231F20"/>
<path d="M77.8468 18.9415V16.4248H76.0044V18.6214C76.0044 19.0496 76.136 19.3857 76.3992 19.6257C76.6584 19.8618 76.9934 19.9818 77.3922 19.9818H85.1206V18.9415H77.8468Z" fill="#231F20"/>
<path d="M53.9236 8.38219C53.9236 9.8146 54.2426 10.8509 54.8129 11.5991C55.447 12.4834 56.3203 12.9235 57.0979 13.1556L56.3921 14.0158H56.3801C54.9684 13.8437 53.2417 12.2753 52.9745 11.4231C52.7073 12.2753 50.9766 13.8437 49.5689 14.0118H49.5569L48.8511 13.1556C49.6287 12.9195 50.502 12.4794 51.1361 11.5991C51.7064 10.8509 52.0254 9.8146 52.0254 8.38219H49.5769V7.33789H56.3761V8.38219H53.9236Z" fill="#231F20"/>
<path d="M45.254 13.4198V11.2512C45.3696 11.1272 45.4773 10.9991 45.569 10.8591C45.8322 10.451 45.9638 9.99885 45.9638 9.51071C45.9638 8.71048 45.6208 8.02228 44.9429 7.47012C44.273 6.91396 43.4275 6.62988 42.4385 6.62988C41.4496 6.62988 40.6041 6.91396 39.9302 7.47012C39.2562 8.02628 38.9133 8.71448 38.9133 9.51071C38.9133 10.0028 39.0449 10.459 39.3081 10.8631C39.3998 11.0071 39.5075 11.1352 39.6231 11.2592V13.4198H36.5166V14.4641H48.3565V13.4198H45.25H45.254ZM43.4076 13.4198H41.4735V12.2795C41.7806 12.3475 42.0996 12.3835 42.4425 12.3835C42.7855 12.3835 43.1045 12.3475 43.4116 12.2795V13.4198H43.4076ZM42.4385 11.3632C41.5014 11.3632 40.7437 10.535 40.7437 9.51071C40.7437 8.48641 41.5014 7.65818 42.4385 7.65818C43.3757 7.65818 44.1334 8.48641 44.1334 9.51071C44.1334 10.535 43.3757 11.3632 42.4385 11.3632Z" fill="#231F20"/>
<path d="M44.8156 15.7082C44.1656 15.1801 43.368 14.916 42.4388 14.916C41.5096 14.916 40.724 15.1841 40.07 15.7082C39.412 16.2404 39.0811 16.9046 39.0811 17.6848C39.0811 18.465 39.416 19.1172 40.07 19.6534C40.724 20.1855 41.5216 20.4576 42.4388 20.4576C43.356 20.4576 44.1656 20.1855 44.8156 19.6534C45.4696 19.1172 45.8006 18.457 45.8006 17.6848C45.8006 16.9126 45.4696 16.2404 44.8156 15.7082ZM42.4388 19.4133C41.6173 19.4133 40.9474 18.6331 40.9474 17.6728C40.9474 16.7125 41.6133 15.9323 42.4388 15.9323C43.2643 15.9323 43.9263 16.7125 43.9263 17.6728C43.9263 18.6331 43.2603 19.4133 42.4388 19.4133Z" fill="#231F20"/>
<path d="M4.82125 23.8706H4.19118L3.23011 25.0549C3.12243 25.187 2.99482 25.347 2.91507 25.4511C2.91507 25.315 2.92304 24.9869 2.92304 24.9869V23.8706H2.38867V27.1035H2.92304V26.1673C2.92304 26.1673 3.4295 25.5631 3.48533 25.5031C3.52521 25.5791 4.39456 27.1035 4.39456 27.1035H5.01267C5.01267 27.1035 3.86816 25.091 3.84822 25.0549C3.87614 25.0229 4.82125 23.8706 4.82125 23.8706Z" fill="#231F20"/>
<path d="M6.27268 24.6147C5.60671 24.6147 5.16406 25.1269 5.16406 25.8871C5.16406 26.6473 5.61469 27.1555 6.25673 27.1555C6.89877 27.1555 7.37731 26.6393 7.37731 25.8751C7.37731 25.1109 6.9227 24.6147 6.26869 24.6147H6.27268ZM6.27667 26.6473C5.91776 26.6473 5.70641 26.3592 5.70641 25.8751C5.70641 25.419 5.92175 25.1229 6.25274 25.1229C6.61165 25.1229 6.83497 25.415 6.83497 25.8871C6.83497 26.3272 6.59969 26.6473 6.27268 26.6473H6.27667Z" fill="#231F20"/>
<path d="M8.95668 24.6147C8.75729 24.6147 8.56587 24.7028 8.43826 24.8388V24.6628H7.8999V27.1035H8.43826V25.7151C8.43826 25.451 8.51403 25.1349 8.88091 25.1349C9.0165 25.1349 9.12018 25.1589 9.22785 25.2149L9.26374 25.2349L9.40332 24.7308L9.38338 24.7188C9.27571 24.6468 9.14012 24.6147 8.95668 24.6147Z" fill="#231F20"/>
<path d="M10.6834 24.6147C10.0135 24.6147 9.59473 25.1029 9.59473 25.8871C9.59473 26.6713 10.0374 27.1555 10.6714 27.1555C11.0224 27.1555 11.2935 27.0514 11.5248 26.8354L11.5488 26.8154L11.2258 26.4753L11.2018 26.4913C11.0264 26.6193 10.8748 26.6753 10.6954 26.6753C10.3883 26.6753 10.177 26.4553 10.1251 26.0872H11.7123V26.0392L11.7282 25.8431C11.7282 25.0989 11.3175 24.6187 10.6794 24.6187L10.6834 24.6147ZM10.6515 25.0989C11.0463 25.0989 11.158 25.383 11.1859 25.635H10.1371C10.1849 25.2909 10.3644 25.0989 10.6515 25.0989Z" fill="#231F20"/>
<path d="M13.1996 24.6147C12.8646 24.6147 12.5974 24.6828 12.3542 24.8308L12.3303 24.8468L12.5416 25.2549L12.5695 25.2389C12.753 25.1389 12.9404 25.0949 13.1837 25.0949C13.4628 25.0949 13.6064 25.2229 13.6064 25.467V25.599C13.4708 25.551 13.3033 25.523 13.0999 25.523C12.4778 25.523 12.1069 25.8231 12.1069 26.3232C12.1069 26.9394 12.5735 27.1555 12.9763 27.1555C13.1996 27.1555 13.4269 27.0634 13.6064 26.9074V27.1075H14.1367V25.447C14.1367 24.9228 13.7938 24.6187 13.1996 24.6187V24.6147ZM13.0879 25.9871C13.3073 25.9871 13.4708 26.0191 13.6064 26.0832V26.3873C13.4987 26.5313 13.2873 26.6713 13.056 26.6713C12.7769 26.6713 12.6214 26.5433 12.6214 26.3072C12.6214 26.1072 12.8008 25.9871 13.0879 25.9871Z" fill="#231F20"/>
<path d="M16.6132 25.643H17.5384V25.1189H16.6132V24.3987H18.2044V23.8745H16.0669V27.1074H18.2722V26.5833H16.6132V25.647V25.643Z" fill="#231F20"/>
<path d="M21.3111 24.6147C20.9402 24.6147 20.7408 24.7468 20.5733 24.9468C20.4338 24.7268 20.2144 24.6147 19.9074 24.6147C19.688 24.6147 19.4966 24.6988 19.365 24.8388V24.6628H18.8267V27.1035H19.365V25.6831C19.365 25.3029 19.5086 25.1069 19.7997 25.1069C20.1068 25.1069 20.2344 25.2869 20.2344 25.7271V27.1035H20.7727V25.6831C20.7727 25.3029 20.9163 25.1069 21.2074 25.1069C21.5145 25.1069 21.6381 25.2869 21.6381 25.7271V27.1035H22.1764V25.7111C22.1764 24.9829 21.8853 24.6147 21.3151 24.6147H21.3111Z" fill="#231F20"/>
<path d="M23.9153 24.6147C23.7039 24.6147 23.5125 24.6948 23.3171 24.8588V24.6668H22.7827V27.9997L23.3171 27.7276V26.9234C23.4447 27.0394 23.6521 27.1555 23.8913 27.1555C24.3459 27.1555 24.8763 26.8314 24.8763 25.9231C24.8763 25.0909 24.5254 24.6147 23.9153 24.6147ZM23.3131 25.391C23.4567 25.2109 23.6481 25.1069 23.8275 25.1069C24.1705 25.1069 24.338 25.379 24.338 25.9351C24.338 26.4153 24.1705 26.6593 23.8435 26.6593C23.6321 26.6593 23.4208 26.5073 23.3091 26.3672V25.391H23.3131Z" fill="#231F20"/>
<path d="M25.4302 23.9987V27.1036H25.9685V23.7227L25.9207 23.7427L25.4302 23.9987Z" fill="#231F20"/>
<path d="M27.6198 24.6147C26.9579 24.6147 26.5112 25.1269 26.5112 25.8871C26.5112 26.6473 26.9619 27.1555 27.6079 27.1555C28.2539 27.1555 28.7285 26.6393 28.7285 25.8751C28.7285 25.1109 28.2739 24.6147 27.6198 24.6147ZM27.6238 26.6473C27.2649 26.6473 27.0536 26.3592 27.0536 25.8751C27.0536 25.419 27.2689 25.1229 27.5999 25.1229C27.9628 25.1229 28.1861 25.415 28.1861 25.8871C28.1861 26.3272 27.9508 26.6473 27.6238 26.6473Z" fill="#231F20"/>
<path d="M30.7102 24.6631L30.2915 25.8554C30.2317 26.0195 30.1599 26.2635 30.1081 26.4276C30.0642 26.2635 29.9844 26.0115 29.9246 25.8474L29.5218 24.6631H28.9316C28.9316 24.6631 29.8249 27.0038 29.8329 27.0278C29.8249 27.0478 29.474 27.944 29.474 27.944H30.0442L31.2805 24.6671H30.7102V24.6631Z" fill="#231F20"/>
<path d="M34.1876 24.6147C33.8167 24.6147 33.6213 24.7468 33.4498 24.9468C33.3102 24.7268 33.0909 24.6147 32.7838 24.6147C32.5645 24.6147 32.3731 24.6988 32.2415 24.8388V24.6628H31.7031V27.1035H32.2415V25.6831C32.2415 25.3029 32.389 25.1069 32.6762 25.1069C32.9832 25.1069 33.1068 25.2869 33.1068 25.7271V27.1035H33.6452V25.6831C33.6452 25.3029 33.7928 25.1069 34.0799 25.1069C34.3869 25.1069 34.5106 25.2869 34.5106 25.7271V27.1035H35.0489V25.7111C35.0489 24.9829 34.7578 24.6147 34.1876 24.6147Z" fill="#231F20"/>
<path d="M36.636 24.6147C35.9661 24.6147 35.5474 25.1029 35.5474 25.8871C35.5474 26.6713 35.99 27.1555 36.6241 27.1555C36.975 27.1555 37.2462 27.0514 37.4775 26.8354L37.5014 26.8154L37.1784 26.4753L37.1545 26.4913C36.975 26.6193 36.8275 26.6753 36.648 26.6753C36.3409 26.6753 36.1296 26.4553 36.0777 26.0872H37.6649V26.0392L37.6809 25.8431C37.6809 25.0989 37.2701 24.6187 36.6321 24.6187L36.636 24.6147ZM36.6081 25.0989C37.0029 25.0989 37.1186 25.383 37.1425 25.635H36.0937C36.1416 25.2909 36.321 25.0989 36.6081 25.0989Z" fill="#231F20"/>
<path d="M39.324 24.6147C39.0967 24.6147 38.8814 24.7028 38.7498 24.8428V24.6628H38.2114V27.1035H38.7498V25.6831C38.7498 25.3109 38.9133 25.1069 39.2124 25.1069C39.5354 25.1069 39.679 25.2989 39.679 25.7271V27.1035H40.2173V25.7111C40.2173 24.9949 39.9102 24.6147 39.324 24.6147Z" fill="#231F20"/>
<path d="M41.7048 26.6675C41.5573 26.6675 41.4895 26.6275 41.4895 26.4154V25.1551H42.0876V24.6669H41.4895V23.7227L41.4416 23.7467L40.9631 23.9987V24.6669H40.6201V25.1551H40.9631V26.4954C40.9631 26.9236 41.1665 27.1556 41.5373 27.1556C41.7168 27.1556 41.8883 27.1156 42.0159 27.0436L42.0318 27.0356L42.0996 26.5435L42.0438 26.5755C41.964 26.6195 41.8324 26.6675 41.7088 26.6675H41.7048Z" fill="#231F20"/>
<path d="M43.998 23.8706V27.1035H44.5484V23.8706H44.5125H43.998Z" fill="#231F20"/>
<path d="M46.3865 24.6147C46.1592 24.6147 45.9439 24.7028 45.8123 24.8428V24.6628H45.2739V27.1035H45.8123V25.6831C45.8123 25.3109 45.9758 25.1069 46.2749 25.1069C46.5979 25.1069 46.7415 25.2989 46.7415 25.7271V27.1035H47.2798V25.7111C47.2798 24.9949 46.9727 24.6147 46.3865 24.6147Z" fill="#231F20"/>
<path d="M48.6319 23.7545C48.2211 23.7545 47.9859 23.9866 47.9859 24.3827V24.6627H47.6748V25.1589H47.9859V27.1034H48.5242V25.1589H48.9709V24.6627H48.5242V24.4227C48.5242 24.2746 48.5681 24.2226 48.7116 24.2226C48.7914 24.2226 48.8712 24.2346 48.9788 24.2666L49.0187 24.2786V23.8065L48.9948 23.7985C48.8871 23.7705 48.7515 23.7505 48.6279 23.7505L48.6319 23.7545Z" fill="#231F20"/>
<path d="M50.3825 24.6147C49.7206 24.6147 49.2739 25.1269 49.2739 25.8871C49.2739 26.6473 49.7246 27.1555 50.3666 27.1555C51.0086 27.1555 51.4872 26.6393 51.4872 25.8751C51.4872 25.1109 51.0326 24.6147 50.3786 24.6147H50.3825ZM50.3865 26.6473C50.0276 26.6473 49.8163 26.3592 49.8163 25.8751C49.8163 25.419 50.0316 25.1229 50.3626 25.1229C50.7215 25.1229 50.9448 25.415 50.9448 25.8871C50.9448 26.3272 50.7095 26.6473 50.3825 26.6473H50.3865Z" fill="#231F20"/>
<path d="M53.07 24.6147C52.8706 24.6147 52.6792 24.7028 52.5515 24.8388V24.6628H52.0132V27.1035H52.5515V25.7151C52.5515 25.451 52.6273 25.1349 52.9942 25.1349C53.1298 25.1349 53.2335 25.1589 53.3411 25.2149L53.377 25.2349L53.5166 24.7308L53.4967 24.7188C53.385 24.6468 53.2534 24.6147 53.07 24.6147Z" fill="#231F20"/>
<path d="M56.42 24.6147C56.0492 24.6147 55.8538 24.7468 55.6783 24.9468C55.5387 24.7268 55.3234 24.6147 55.0123 24.6147C54.793 24.6147 54.6016 24.6988 54.47 24.8388V24.6628H53.9316V27.1035H54.47V25.6831C54.47 25.3029 54.6136 25.1069 54.9007 25.1069C55.2077 25.1069 55.3354 25.2869 55.3354 25.7271V27.1035H55.8737V25.6831C55.8737 25.3029 56.0213 25.1069 56.3044 25.1069C56.6115 25.1069 56.7391 25.2869 56.7391 25.7271V27.1035H57.2774V25.7111C57.2774 24.9829 56.9903 24.6147 56.42 24.6147Z" fill="#231F20"/>
<path d="M58.8685 24.6147C58.5335 24.6147 58.2663 24.6828 58.023 24.8308L57.9991 24.8468L58.2145 25.2549L58.2424 25.2389C58.4258 25.1389 58.6132 25.0949 58.8565 25.0949C59.1356 25.0949 59.2792 25.2229 59.2792 25.467V25.599C59.1436 25.551 58.9761 25.523 58.7728 25.523C58.1507 25.523 57.7798 25.8231 57.7798 26.3232C57.7798 26.9394 58.2504 27.1555 58.6491 27.1555C58.8725 27.1555 59.0958 27.0634 59.2792 26.9074V27.1075H59.8056V25.447C59.8056 24.9228 59.4627 24.6187 58.8685 24.6187V24.6147ZM58.7568 25.9871C58.9761 25.9871 59.1396 26.0191 59.2752 26.0832V26.3873C59.1676 26.5313 58.9562 26.6713 58.7209 26.6713C58.4418 26.6713 58.2862 26.5433 58.2862 26.3072C58.2862 26.1072 58.4657 25.9871 58.7528 25.9871H58.7568Z" fill="#231F20"/>
<path d="M61.3172 26.6675C61.1696 26.6675 61.1019 26.6275 61.1019 26.4154V25.1551H61.7V24.6669H61.1019V23.7227L61.054 23.7467L60.5715 23.9987V24.6669H60.2285V25.1551H60.5715V26.4954C60.5715 26.9236 60.7749 27.1556 61.1457 27.1556C61.3252 27.1556 61.4927 27.1156 61.6282 27.0436L61.6402 27.0356L61.704 26.5435L61.6482 26.5755C61.5684 26.6195 61.4368 26.6675 61.3132 26.6675H61.3172Z" fill="#231F20"/>
<path d="M62.5689 23.7549C62.3815 23.7549 62.23 23.9069 62.23 24.091C62.23 24.275 62.3815 24.4191 62.5689 24.4191C62.7564 24.4191 62.9039 24.271 62.9039 24.091C62.9039 23.9109 62.7524 23.7549 62.5689 23.7549Z" fill="#231F20"/>
<path d="M62.3018 24.6631V27.1038H62.8401V24.6631H62.8082H62.3018Z" fill="#231F20"/>
<path d="M64.4875 24.6147C63.8256 24.6147 63.3789 25.1269 63.3789 25.8871C63.3789 26.6473 63.8295 27.1555 64.4716 27.1555C65.1136 27.1555 65.5922 26.6393 65.5922 25.8751C65.5922 25.1109 65.1375 24.6147 64.4835 24.6147H64.4875ZM64.4955 26.6473C64.1366 26.6473 63.9213 26.3592 63.9213 25.8751C63.9213 25.419 64.1366 25.1229 64.4716 25.1229C64.8305 25.1229 65.0538 25.415 65.0538 25.8871C65.0538 26.3272 64.8185 26.6473 64.4955 26.6473Z" fill="#231F20"/>
<path d="M67.2308 24.6147C67.0035 24.6147 66.7881 24.7028 66.6565 24.8428V24.6628H66.1182V27.1035H66.6565V25.6831C66.6565 25.3109 66.82 25.1069 67.1231 25.1069C67.4421 25.1069 67.5857 25.2989 67.5857 25.7271V27.1035H68.124V25.7111C68.124 24.9949 67.813 24.6147 67.2308 24.6147Z" fill="#231F20"/>
<path d="M71.2187 25.1748C70.6325 25.0028 70.5368 24.8988 70.5368 24.7107C70.5368 24.4826 70.7242 24.3466 71.0433 24.3466C71.3424 24.3466 71.5697 24.4386 71.7691 24.6387L71.793 24.6627L72.1798 24.2786L72.1559 24.2546C71.8408 23.9545 71.4979 23.8145 71.0792 23.8145C70.4331 23.8145 69.9825 24.1906 69.9825 24.7307C69.9825 25.2989 70.2856 25.4829 71.0114 25.695C71.5497 25.855 71.7172 25.9711 71.7172 26.1911C71.7172 26.4792 71.5099 26.6233 71.0832 26.6233C70.792 26.6233 70.481 26.4832 70.2696 26.2552L70.2497 26.2311L69.8589 26.6032L69.8788 26.6273C70.166 26.9594 70.5927 27.1474 71.0473 27.1474C71.8369 27.1474 72.2715 26.7953 72.2715 26.1551C72.2715 25.5149 71.793 25.3429 71.2187 25.1708V25.1748Z" fill="#231F20"/>
<path d="M73.7909 24.6147C73.117 24.6147 72.6982 25.1029 72.6982 25.8871C72.6982 26.6713 73.1409 27.1555 73.775 27.1555C74.1259 27.1555 74.3971 27.0514 74.6284 26.8354L74.6523 26.8154L74.3293 26.4753L74.3053 26.4913C74.1299 26.6193 73.9783 26.6753 73.7989 26.6753C73.4918 26.6753 73.2845 26.4553 73.2286 26.0872H74.8158V26.0352L74.8317 25.8471C74.8317 25.1029 74.421 24.6227 73.7829 24.6227L73.7909 24.6147ZM73.759 25.0989C74.1538 25.0989 74.2695 25.383 74.2934 25.635H73.2446C73.2924 25.2909 73.4719 25.0989 73.759 25.0989Z" fill="#231F20"/>
<path d="M76.4191 24.6147C76.2197 24.6147 76.0283 24.7028 75.9007 24.8388V24.6628H75.3623V27.1035H75.9007V25.7151C75.9007 25.451 75.9764 25.1349 76.3433 25.1349C76.4789 25.1349 76.5826 25.1589 76.6903 25.2149L76.7261 25.2349L76.8697 24.7308L76.8498 24.7188C76.7381 24.6468 76.6065 24.6147 76.4231 24.6147H76.4191Z" fill="#231F20"/>
<path d="M78.7835 24.6631L78.3648 25.9755C78.305 26.1595 78.2571 26.3196 78.2252 26.4396C78.1893 26.3156 78.1375 26.1515 78.0777 25.9755L77.639 24.6631H77.0728L77.962 27.1038H78.4805L79.3538 24.6631H78.7835Z" fill="#231F20"/>
<path d="M80.0719 23.7549C79.8844 23.7549 79.7329 23.9069 79.7329 24.091C79.7329 24.275 79.8844 24.4191 80.0719 24.4191C80.2593 24.4191 80.4069 24.267 80.4069 24.091C80.4069 23.9149 80.2553 23.7549 80.0719 23.7549Z" fill="#231F20"/>
<path d="M79.8008 24.6631V27.1038H80.3391V24.6631H80.3072H79.8008Z" fill="#231F20"/>
<path d="M81.958 25.1229C82.1614 25.1229 82.3289 25.2069 82.5243 25.403L82.5482 25.427L82.8672 25.0509L82.8513 25.0309C82.612 24.7508 82.3249 24.6147 81.9739 24.6147C81.3239 24.6147 80.8853 25.1269 80.8853 25.8911C80.8853 26.6553 81.3359 27.1555 81.962 27.1555C82.4246 27.1555 82.6718 26.9234 82.8513 26.6993L82.8672 26.6793L82.5203 26.3432L82.4963 26.3672C82.3089 26.5593 82.1813 26.6513 81.9699 26.6513C81.631 26.6513 81.4236 26.3592 81.4236 25.8831C81.4236 25.407 81.627 25.1269 81.958 25.1269V25.1229Z" fill="#231F20"/>
<path d="M84.2947 24.6147C83.6208 24.6147 83.2061 25.1029 83.2061 25.8871C83.2061 26.6713 83.6487 27.1555 84.2828 27.1555C84.6337 27.1555 84.9049 27.0514 85.1362 26.8354L85.1601 26.8154L84.8371 26.4753L84.8132 26.4913C84.6337 26.6193 84.4862 26.6753 84.3067 26.6753C83.9996 26.6753 83.7883 26.4553 83.7364 26.0872H85.3236V26.0352L85.3396 25.8431C85.3396 25.0989 84.9288 24.6187 84.2907 24.6187L84.2947 24.6147ZM84.2628 25.0989C84.6576 25.0989 84.7733 25.383 84.7972 25.635H83.7484C83.7963 25.2909 83.9757 25.0989 84.2628 25.0989Z" fill="#231F20"/>
</g>
<defs>
<radialGradient id="paint0_radial_352_3935" cx="0" cy="0" r="1" gradientUnits="userSpaceOnUse" gradientTransform="translate(100.711 6.27052) scale(19.5071 19.1467)">
<stop stop-color="#CAD833"/>
<stop offset="1" stop-color="#61B94C"/>
</radialGradient>
<radialGradient id="paint1_radial_352_3935" cx="0" cy="0" r="1" gradientUnits="userSpaceOnUse" gradientTransform="translate(100.711 6.0863) scale(19.5071 19.1467)">
<stop stop-color="#FCE937"/>
<stop offset="0.3" stop-color="#FBE435"/>
<stop offset="0.64" stop-color="#F8D731"/>
<stop offset="0.99" stop-color="#F5C02B"/>
<stop offset="1" stop-color="#F5C02B"/>
</radialGradient>
<radialGradient id="paint2_radial_352_3935" cx="0" cy="0" r="1" gradientUnits="userSpaceOnUse" gradientTransform="translate(100.711 6.27042) scale(19.5071 19.1467)">
<stop stop-color="#F5B728"/>
<stop offset="1" stop-color="#E93731"/>
</radialGradient>
<radialGradient id="paint3_radial_352_3935" cx="0" cy="0" r="1" gradientUnits="userSpaceOnUse" gradientTransform="translate(105.451 10.1272) scale(17.7387 17.411)">
<stop stop-color="#50C0DD"/>
<stop offset="0.99" stop-color="#00A2C6"/>
</radialGradient>
<clipPath id="clip0_352_3935">
<rect width="122" height="28" fill="white"/>
</clipPath>
</defs>
</svg>
