<svg width="48" height="48" viewBox="0 0 48 48" fill="none" xmlns="http://www.w3.org/2000/svg">
<path d="M41 22.6V14.08C41 6.02002 39.12 4 31.56 4H16.44C8.88 4 7 6.02002 7 14.08V36.6C7 41.92 9.92002 43.18 13.46 39.38L13.48 39.36C15.12 37.62 17.62 37.76 19.04 39.66L21.06 42.36" stroke="#111111" stroke-width="2" stroke-linecap="round" stroke-linejoin="round"/>
<path d="M16 14H32" stroke="#111111" stroke-width="2" stroke-linecap="round" stroke-linejoin="round"/>
<path d="M18 22H30" stroke="#111111" stroke-width="2" stroke-linecap="round" stroke-linejoin="round"/>
<path d="M36.8038 28.7231L28.4996 37.0275C28.1711 37.3559 27.8661 37.9658 27.7958 38.4115L27.35 41.5784C27.1858 42.7279 27.9834 43.5255 29.1329 43.3613L32.2998 42.9156C32.7455 42.8452 33.3789 42.5402 33.6839 42.2118L41.9882 33.9075C43.4192 32.4765 44.0995 30.811 41.9882 28.6997C39.9004 26.6119 38.2348 27.2921 36.8038 28.7231Z" fill="#29C78E" stroke="white" stroke-width="1.5" stroke-miterlimit="10" stroke-linecap="round" stroke-linejoin="round"/>
<path d="M35.603 29.9194C36.3068 32.453 38.2773 34.4235 40.8108 35.1272" stroke="white" stroke-width="1.5" stroke-miterlimit="10" stroke-linecap="round" stroke-linejoin="round"/>
</svg>
