<svg width="24" height="24" viewBox="0 0 24 24" fill="none" xmlns="http://www.w3.org/2000/svg">
<path d="M22 18L22 15.58C22 14 21 13 19.42 13L16 13L16 19.99C16 21.1 16.91 22 18.02 22C19.11 21.99 20.11 21.55 20.83 20.83C21.55 20.1 22 19.1 22 18Z" stroke="white" stroke-width="1.5" stroke-miterlimit="10" stroke-linecap="round" stroke-linejoin="round"/>
<path d="M16 20L16 2L2 2L2 17L2 18C2 20.21 3 22 6 22L7 22L18 22C16.9 22 16 21.1 16 20Z" stroke="white" stroke-width="1.5" stroke-miterlimit="10" stroke-linecap="round" stroke-linejoin="round"/>
<path d="M6 11L12 11" stroke="white" stroke-width="1.5" stroke-linecap="round" stroke-linejoin="round"/>
<path d="M6 7L12 7" stroke="white" stroke-width="1.5" stroke-linecap="round" stroke-linejoin="round"/>
<path d="M6 15L12 15" stroke="white" stroke-width="1.5" stroke-linecap="round" stroke-linejoin="round"/>
</svg>
