<svg width="24" height="24" viewBox="0 0 24 24" fill="none" xmlns="http://www.w3.org/2000/svg">
<path d="M10.1103 11.1445H7.4603C6.8303 11.1445 6.32031 11.6545 6.32031 12.2845V17.4045H10.1103V11.1445V11.1445Z" stroke="#111111" stroke-width="1.5" stroke-miterlimit="10" stroke-linecap="round" stroke-linejoin="round"/>
<path d="M12.7616 6.59766H11.2415C10.6115 6.59766 10.1016 7.10767 10.1016 7.73767V17.3977H13.8916V7.73767C13.8916 7.10767 13.3916 6.59766 12.7616 6.59766Z" stroke="#111111" stroke-width="1.5" stroke-miterlimit="10" stroke-linecap="round" stroke-linejoin="round"/>
<path d="M16.5484 12.8438H13.8984V17.3938H17.6884V13.9838C17.6784 13.3538 17.1684 12.8438 16.5484 12.8438Z" stroke="#111111" stroke-width="1.5" stroke-miterlimit="10" stroke-linecap="round" stroke-linejoin="round"/>
<path d="M9 22.0039H15C20 22.0039 22 20.0039 22 15.0039V9.00391C22 4.00391 20 2.00391 15 2.00391H9C4 2.00391 2 4.00391 2 9.00391V15.0039C2 20.0039 4 22.0039 9 22.0039Z" stroke="#111111" stroke-width="1.5" stroke-linecap="round" stroke-linejoin="round"/>
</svg>
