<svg width="40" height="40" viewBox="0 0 40 40" fill="none" xmlns="http://www.w3.org/2000/svg">
<rect x="0.498535" y="0.5" width="39" height="39" rx="19.5" fill="white"/>
<rect x="0.498535" y="0.5" width="39" height="39" rx="19.5" stroke="#DDDDDD"/>
<path d="M15.857 10.0699C14.793 10.1201 14.0664 10.2899 13.4312 10.5395C12.7738 10.7957 12.2166 11.1395 11.6622 11.6959C11.1078 12.2523 10.7664 12.8099 10.512 13.4683C10.2658 14.105 10.099 14.8322 10.052 15.8968C10.005 16.9614 9.99455 17.3036 9.99975 20.0192C10.005 22.7348 10.017 23.0752 10.0686 24.142C10.1194 25.2058 10.2886 25.9322 10.5382 26.5676C10.7948 27.225 11.1382 27.782 11.6948 28.3366C12.2514 28.8912 12.8086 29.2318 13.4686 29.4866C14.1046 29.7324 14.832 29.9 15.8964 29.9466C16.9608 29.9932 17.3034 30.004 20.0183 29.9988C22.7331 29.9936 23.0749 29.9816 24.1415 29.931C25.2081 29.8804 25.9307 29.71 26.5663 29.4616C27.2237 29.2044 27.7811 28.8616 28.3353 28.3048C28.8895 27.748 29.2307 27.19 29.4849 26.5312C29.7313 25.8952 29.8988 25.1678 29.945 24.1042C29.9916 23.0368 30.0026 22.696 29.9974 19.9808C29.9922 17.2656 29.98 16.9252 29.9294 15.8588C29.8788 14.7924 29.7094 14.0682 29.4599 13.4323C29.2029 12.7749 28.8599 12.2183 28.3035 11.6633C27.7471 11.1083 27.1887 10.7673 26.5301 10.5137C25.8937 10.2675 25.1667 10.0997 24.1023 10.0537C23.0379 10.0077 22.6953 9.99594 19.9795 10.0011C17.2636 10.0063 16.9236 10.0179 15.857 10.0699ZM15.9738 28.1476C14.9988 28.1052 14.4694 27.9432 14.1166 27.8076C13.6494 27.6276 13.3166 27.41 12.965 27.0618C12.6134 26.7136 12.3974 26.3796 12.215 25.9134C12.078 25.5606 11.913 25.0318 11.8674 24.0568C11.8178 23.003 11.8074 22.6866 11.8016 20.0168C11.7958 17.347 11.806 17.031 11.8522 15.9768C11.8938 15.0026 12.0568 14.4726 12.1922 14.12C12.3722 13.6522 12.589 13.3199 12.938 12.9685C13.287 12.6171 13.62 12.4007 14.0866 12.2183C14.439 12.0807 14.9678 11.9171 15.9424 11.8707C16.997 11.8207 17.313 11.8107 19.9825 11.8049C22.6519 11.7991 22.9687 11.8091 24.0237 11.8555C24.9979 11.8979 25.5281 12.0593 25.8803 12.1955C26.3477 12.3755 26.6803 12.5917 27.0317 12.9413C27.3831 13.2909 27.5997 13.6228 27.7821 14.0904C27.9199 14.4418 28.0835 14.9704 28.1295 15.9456C28.1797 17.0002 28.1911 17.3164 28.1959 19.9856C28.2007 22.6548 28.1913 22.9718 28.1451 24.0256C28.1025 25.0006 27.9409 25.5302 27.8051 25.8834C27.6251 26.3504 27.4081 26.6834 27.0589 27.0346C26.7097 27.3858 26.3771 27.6022 25.9103 27.7846C25.5583 27.922 25.0289 28.086 24.0551 28.1324C23.0005 28.182 22.6845 28.1924 20.0141 28.1982C17.3436 28.204 17.0286 28.1932 15.974 28.1476M24.1261 14.6554C24.1265 14.8927 24.1973 15.1246 24.3295 15.3217C24.4617 15.5189 24.6494 15.6724 24.8688 15.7628C25.0883 15.8533 25.3296 15.8766 25.5623 15.8299C25.795 15.7832 26.0087 15.6685 26.1762 15.5003C26.3437 15.3322 26.4576 15.1181 26.5035 14.8853C26.5494 14.6524 26.5251 14.4111 26.4339 14.192C26.3426 13.9729 26.1885 13.7858 25.9908 13.6543C25.7932 13.5228 25.5611 13.4529 25.3237 13.4533C25.0055 13.454 24.7006 13.581 24.476 13.8064C24.2514 14.0318 24.1256 14.3372 24.1261 14.6554ZM14.864 20.01C14.8696 22.846 17.1728 25.1398 20.0083 25.1344C22.8437 25.129 25.1391 22.826 25.1337 19.99C25.1283 17.154 22.8245 14.8596 19.9887 14.8652C17.1528 14.8708 14.8586 17.1744 14.864 20.01ZM16.6652 20.0064C16.6639 19.3471 16.8581 18.7022 17.2233 18.1533C17.5885 17.6044 18.1083 17.1761 18.7169 16.9226C19.3255 16.6691 19.9956 16.6018 20.6425 16.7291C21.2894 16.8565 21.884 17.1728 22.3511 17.638C22.8182 18.1033 23.1368 18.6966 23.2667 19.343C23.3966 19.9894 23.332 20.6597 23.0809 21.2693C22.8298 21.8789 22.4035 22.4004 21.8561 22.7677C21.3086 23.1351 20.6645 23.3319 20.0053 23.3332C19.5675 23.3341 19.1338 23.2488 18.729 23.0821C18.3243 22.9154 17.9563 22.6706 17.6461 22.3616C17.3359 22.0527 17.0897 21.6857 16.9214 21.2816C16.7531 20.8775 16.666 20.4441 16.6652 20.0064Z" fill="#111111"/>
</svg>
