<svg width="40" height="40" viewBox="0 0 40 40" fill="none" xmlns="http://www.w3.org/2000/svg">
<rect x="0.499268" y="0.5" width="39.0008" height="39" rx="19.5" fill="white"/>
<rect x="0.499268" y="0.5" width="39.0008" height="39" rx="19.5" stroke="#DDDDDD"/>
<circle cx="19.9993" cy="20" r="10" fill="white"/>
<path d="M29.9989 20.0367C29.9989 14.4936 25.5218 10 19.9991 10C14.4764 10 9.99927 14.4936 9.99927 20.0367C9.99927 24.7436 13.228 28.6932 17.5835 29.778V23.104H15.5216V20.0367H17.5835V18.7151C17.5835 15.299 19.1239 13.7156 22.4654 13.7156C23.099 13.7156 24.1922 13.8405 24.6394 13.9649V16.7451C24.4034 16.7202 23.9934 16.7078 23.4842 16.7078C21.8446 16.7078 21.211 17.3312 21.211 18.952V20.0367H24.4774L23.9162 23.104H21.211V30C26.1625 29.3998 29.9993 25.1683 29.9993 20.0367H29.9989Z" fill="#111111"/>
</svg>
