<svg width="24" height="24" viewBox="0 0 24 24" fill="none" xmlns="http://www.w3.org/2000/svg">
<circle cx="12" cy="12" r="12" fill="#19B3BD"/>
<path fill-rule="evenodd" clip-rule="evenodd" d="M7.45814 6.47894L10.9395 5.16277C11.5186 4.94574 12.4674 4.94574 13.0605 5.16277L16.5419 6.47193C17.3442 6.77297 18 7.72509 18 8.5862V13.7878C18 14.614 17.4558 15.6991 16.793 16.1961L13.793 18.4434C12.8093 19.1855 11.1907 19.1855 10.207 18.4434L7.20698 16.1961C6.54419 15.6991 6 14.614 6 13.7878V8.5862C6 7.73209 6.65581 6.77997 7.45814 6.47894ZM14.8589 10.3481C15.0512 10.1499 15.0464 9.8334 14.8481 9.64112C14.6499 9.44885 14.3334 9.45365 14.1411 9.65185L11.5742 12.2979L10.3431 11.1363C10.1423 10.9468 9.82585 10.956 9.63634 11.1569C9.44682 11.3577 9.45601 11.6741 9.65685 11.8637L11.2465 13.3637C11.4454 13.5513 11.7582 13.5444 11.9486 13.3481L14.8589 10.3481Z" fill="white"/>
</svg>
