<svg width="24" height="24" viewBox="0 0 24 24" fill="none" xmlns="http://www.w3.org/2000/svg">
<rect width="24" height="24" rx="12" fill="#39425D"/>
<circle cx="12" cy="14" r="6" fill="white"/>
<path fill-rule="evenodd" clip-rule="evenodd" d="M12 13C12.4142 13 12.75 13.3358 12.75 13.75L12.75 16.25C12.75 16.6642 12.4142 17 12 17C11.5858 17 11.25 16.6642 11.25 16.25L11.25 13.75C11.25 13.3358 11.5858 13 12 13Z" fill="#39425D"/>
<path d="M13.5 13.5C13.5 14.3284 12.8284 15 12 15C11.1716 15 10.5 14.3284 10.5 13.5C10.5 12.6716 11.1716 12 12 12C12.8284 12 13.5 12.6716 13.5 13.5Z" fill="#39425D"/>
<path d="M8.625 8.24976C8.625 6.38579 10.136 4.87476 12 4.87476C13.864 4.87476 15.375 6.3858 15.375 8.24976V9.74976H8.625V8.24976Z" stroke="white" stroke-width="1.5"/>
</svg>
