<svg width="170" height="22" viewBox="0 0 170 22" fill="none" xmlns="http://www.w3.org/2000/svg">
<path d="M169.147 1V11.512H166.771V1H169.147ZM163.147 6.304C163.147 7.312 162.883 8.2 162.355 8.968C161.827 9.736 161.075 10.336 160.099 10.768C159.139 11.184 158.019 11.392 156.739 11.392C155.443 11.392 154.307 11.184 153.331 10.768C152.371 10.336 151.627 9.736 151.099 8.968C150.571 8.2 150.307 7.312 150.307 6.304C150.307 5.312 150.571 4.432 151.099 3.664C151.627 2.896 152.371 2.296 153.331 1.864C154.307 1.432 155.443 1.216 156.739 1.216C158.019 1.216 159.139 1.432 160.099 1.864C161.075 2.296 161.827 2.896 162.355 3.664C162.883 4.432 163.147 5.312 163.147 6.304ZM152.683 6.304C152.683 7.28 153.051 8.048 153.787 8.608C154.539 9.168 155.523 9.448 156.739 9.448C157.955 9.448 158.931 9.168 159.667 8.608C160.403 8.048 160.771 7.28 160.771 6.304C160.771 5.328 160.403 4.56 159.667 4C158.931 3.44 157.955 3.16 156.739 3.16C155.523 3.16 154.539 3.44 153.787 4C153.051 4.56 152.683 5.328 152.683 6.304ZM166.819 12.64H169.147V21.232H152.011V12.64H154.363V14.8H166.819V12.64ZM166.819 19.288V16.696H154.363V19.288H166.819Z" fill="#333333"/>
<path d="M148.845 11.584H145.965V21.496H143.589V1H145.965V9.304H148.845V11.584ZM128.157 1.744H139.317V6.688C139.317 9.392 138.869 11.768 137.973 13.816C137.077 15.848 135.789 17.424 134.109 18.544C132.429 19.664 130.445 20.224 128.157 20.224V17.968C129.997 17.968 131.565 17.512 132.861 16.6C134.173 15.672 135.173 14.368 135.861 12.688C136.549 11.008 136.893 9.024 136.893 6.736V3.928H128.157V1.744Z" fill="#333333"/>
<path d="M121.727 13.864V1H124.103V17.056H121.727V15.784H115.511V13.864H121.727ZM112.103 9.04C110.279 9.04 108.807 8.688 107.687 7.984C106.583 7.28 106.031 6.296 106.031 5.032C106.031 3.768 106.583 2.792 107.687 2.104C108.807 1.4 110.279 1.048 112.103 1.048C113.927 1.048 115.391 1.4 116.495 2.104C117.615 2.792 118.175 3.768 118.175 5.032C118.175 6.296 117.615 7.28 116.495 7.984C115.391 8.688 113.927 9.04 112.103 9.04ZM112.103 2.92C110.983 2.92 110.079 3.104 109.391 3.472C108.703 3.824 108.359 4.344 108.359 5.032C108.359 5.72 108.703 6.248 109.391 6.616C110.079 6.984 110.983 7.168 112.103 7.168C113.223 7.168 114.127 6.984 114.815 6.616C115.503 6.248 115.847 5.72 115.847 5.032C115.847 4.344 115.503 3.824 114.815 3.472C114.127 3.104 113.223 2.92 112.103 2.92ZM110.471 12.448H104.807V10.48H113.279C116.479 10.48 118.719 10.208 119.999 9.664V11.632C118.783 12.176 116.519 12.448 113.207 12.448H112.847V16.12H110.471V12.448ZM124.631 19.216V21.232H106.703V15.016H109.079V19.216H124.631Z" fill="#333333"/>
<path d="M96.3854 5.464H82.2974V3.376H88.1294V0.783997H90.5534V3.376H96.3854V5.464ZM101.377 0.999997V21.496H99.0014V0.999997H101.377ZM90.5774 18.16C93.7294 18.16 95.9694 17.856 97.2974 17.248V19.408C96.6574 19.696 95.7454 19.912 94.5614 20.056C93.3934 20.2 92.0734 20.272 90.6014 20.272H82.2014V18.16H88.1774V15.112C86.6734 14.952 85.4974 14.512 84.6494 13.792C83.8014 13.056 83.3774 12.112 83.3774 10.96C83.3774 9.648 83.9134 8.616 84.9854 7.864C86.0734 7.096 87.5374 6.712 89.3774 6.712C91.2174 6.712 92.6734 7.096 93.7454 7.864C94.8334 8.616 95.3774 9.648 95.3774 10.96C95.3774 12.112 94.9454 13.056 94.0814 13.792C93.2334 14.528 92.0574 14.976 90.5534 15.136V18.16H90.5774ZM85.6334 10.96C85.6334 11.632 85.9534 12.184 86.5934 12.616C87.2494 13.032 88.1774 13.24 89.3774 13.24C90.5774 13.24 91.4974 13.032 92.1374 12.616C92.7934 12.184 93.1214 11.632 93.1214 10.96C93.1214 10.288 92.7934 9.736 92.1374 9.304C91.4974 8.872 90.5774 8.656 89.3774 8.656C88.1774 8.656 87.2494 8.872 86.5934 9.304C85.9534 9.736 85.6334 10.288 85.6334 10.96Z" fill="#333333"/>
<path d="M69.0988 16.648H59.4028V14.512L68.5228 1.76801H71.4988V14.512H74.6428V16.648H71.4988V20.992H69.0988V16.648ZM69.0988 14.512V4.52801L61.9948 14.512H69.0988Z" fill="#333333"/>
<path d="M45.3879 19.36L52.2039 12.52C53.4199 11.288 54.2919 10.256 54.8199 9.42401C55.3479 8.57601 55.6119 7.80801 55.6119 7.12001C55.6119 6.00001 55.2599 5.12801 54.5559 4.50401C53.8519 3.86401 52.8919 3.54401 51.6759 3.54401C50.8439 3.54401 50.1239 3.73601 49.5159 4.12001C48.9239 4.48801 48.4679 4.98401 48.1479 5.60801C47.8439 6.23201 47.6919 6.91201 47.6919 7.64801H45.1719C45.1719 6.48001 45.4359 5.41601 45.9639 4.45601C46.5079 3.49601 47.2759 2.73601 48.2679 2.17601C49.2599 1.60001 50.4039 1.31201 51.6999 1.31201C52.9799 1.31201 54.0999 1.55201 55.0599 2.03201C56.0359 2.51201 56.7879 3.19201 57.3159 4.07201C57.8439 4.95201 58.1079 5.96001 58.1079 7.09601C58.1079 8.10401 57.8039 9.10401 57.1959 10.096C56.5879 11.088 55.5399 12.344 54.0519 13.864L49.0119 18.808H58.7559V20.992H45.3879V19.36Z" fill="#333333"/>
<path d="M43.398 10.6V12.52H22.926V10.6H27.414V8.03201C26.374 7.72801 25.558 7.30401 24.966 6.76C24.39 6.216 24.102 5.56001 24.102 4.79201C24.102 3.48001 24.942 2.50401 26.622 1.86401C28.302 1.208 30.478 0.880005 33.15 0.880005C35.822 0.880005 37.998 1.208 39.678 1.86401C41.358 2.50401 42.198 3.48001 42.198 4.79201C42.198 5.56001 41.902 6.216 41.31 6.76C40.734 7.30401 39.926 7.72801 38.886 8.03201V10.6H43.398ZM26.622 4.79201C26.622 5.48001 27.23 6.00001 28.446 6.35201C29.662 6.688 31.23 6.85601 33.15 6.85601C35.07 6.85601 36.638 6.688 37.854 6.35201C39.07 6.00001 39.678 5.48001 39.678 4.79201C39.678 4.12001 39.062 3.61601 37.83 3.28C36.614 2.928 35.054 2.75201 33.15 2.75201C31.246 2.75201 29.678 2.928 28.446 3.28C27.23 3.61601 26.622 4.12001 26.622 4.79201ZM29.766 10.6H36.534V8.53601C35.414 8.66401 34.286 8.728 33.15 8.728C32.014 8.728 30.886 8.66401 29.766 8.53601V10.6ZM33.15 14.104C35.854 14.104 38.03 14.392 39.678 14.968C41.326 15.544 42.15 16.488 42.15 17.8C42.15 19.112 41.318 20.064 39.654 20.656C38.006 21.248 35.838 21.544 33.15 21.544C30.462 21.544 28.286 21.248 26.622 20.656C24.974 20.064 24.15 19.112 24.15 17.8C24.15 16.488 24.974 15.544 26.622 14.968C28.27 14.392 30.446 14.104 33.15 14.104ZM33.15 19.672C35.022 19.672 36.574 19.52 37.806 19.216C39.038 18.928 39.654 18.456 39.654 17.8C39.654 17.16 39.038 16.696 37.806 16.408C36.574 16.12 35.022 15.976 33.15 15.976C31.278 15.976 29.726 16.12 28.494 16.408C27.278 16.696 26.67 17.16 26.67 17.8C26.67 18.456 27.278 18.928 28.494 19.216C29.726 19.52 31.278 19.672 33.15 19.672Z" fill="#333333"/>
<path d="M16.9521 3.952H1.56807V1.72H19.4241V15.256H16.9521V3.952ZM20.7921 18.28V20.512H0.320068V18.28H7.95207V9.136H10.4001V18.28H20.7921Z" fill="#333333"/>
</svg>
